<svg width="51" height="52" viewBox="0 0 51 52" fill="none" xmlns="http://www.w3.org/2000/svg">
<path d="M26.3333 1.09623C25.8177 0.798504 25.1823 0.798503 24.6667 1.09622L4.34936 12.8264C3.8337 13.1241 3.51603 13.6744 3.51603 14.2698V37.7302C3.51603 38.3256 3.8337 38.8759 4.34936 39.1736L24.6667 50.9038C25.1823 51.2015 25.8177 51.2015 26.3333 50.9038L46.6506 39.1736C47.1663 38.8759 47.484 38.3256 47.484 37.7302V14.2698C47.484 13.6744 47.1663 13.1241 46.6506 12.8264L26.3333 1.09623Z" stroke="#FAA300" stroke-width="0.666667" stroke-linejoin="round"/>
<path d="M24.8333 4.7184C25.2458 4.48022 25.754 4.48022 26.1666 4.7184L43.5971 14.7819C44.0097 15.0201 44.2638 15.4603 44.2638 15.9366V36.0637C44.2638 36.5401 44.0097 36.9802 43.5971 37.2184L26.1666 47.2819C25.754 47.5201 25.2458 47.5201 24.8333 47.2819L7.4027 37.2184C6.99017 36.9802 6.73603 36.5401 6.73603 36.0637V15.9366C6.73603 15.4603 6.99017 15.0201 7.4027 14.7819L24.8333 4.7184Z" fill="#363440"/>
<path d="M24.7778 16C24.7778 15.4477 25.2255 15 25.7778 15C26.3301 15 26.7778 15.4477 26.7778 16V36C26.7778 36.5523 26.3301 37 25.7778 37C25.2255 37 24.7778 36.5523 24.7778 36V16Z" stroke="#FAA300" stroke-width="2" stroke-miterlimit="10" stroke-linecap="round" stroke-linejoin="round"/>
<path d="M15.5 26.7222C14.9477 26.7222 14.5 26.2745 14.5 25.7222C14.5 25.1699 14.9477 24.7222 15.5 24.7222H35.5C36.0523 24.7222 36.5 25.1699 36.5 25.7222C36.5 26.2745 36.0523 26.7222 35.5 26.7222H15.5Z" stroke="#FAA300" stroke-width="2" stroke-miterlimit="10" stroke-linecap="round" stroke-linejoin="round"/>
</svg>
