<svg width="50" height="52" viewBox="0 0 50 52" fill="none" xmlns="http://www.w3.org/2000/svg">
<path d="M25.8333 1.09623C25.3177 0.798504 24.6823 0.798503 24.1667 1.09622L3.84936 12.8264C3.3337 13.1241 3.01603 13.6744 3.01603 14.2698V37.7302C3.01603 38.3256 3.3337 38.8759 3.84936 39.1736L24.1667 50.9038C24.6823 51.2015 25.3177 51.2015 25.8333 50.9038L46.1506 39.1736C46.6663 38.8759 46.984 38.3256 46.984 37.7302V14.2698C46.984 13.6744 46.6663 13.1241 46.1506 12.8264L25.8333 1.09623Z" stroke="#FAA300" stroke-width="0.666667" stroke-linejoin="round"/>
<path d="M24.3333 4.7184C24.7458 4.48022 25.254 4.48022 25.6666 4.7184L43.0971 14.7819C43.5097 15.0201 43.7638 15.4603 43.7638 15.9366V36.0637C43.7638 36.5401 43.5097 36.9802 43.0971 37.2184L25.6666 47.2819C25.254 47.5201 24.7458 47.5201 24.3333 47.2819L6.9027 37.2184C6.49017 36.9802 6.23603 36.5401 6.23603 36.0637V15.9366C6.23603 15.4603 6.49017 15.0201 6.9027 14.7819L24.3333 4.7184Z" fill="#5E5C68"/>
<path d="M24.2778 16C24.2778 15.4477 24.7255 15 25.2778 15C25.8301 15 26.2778 15.4477 26.2778 16V36C26.2778 36.5523 25.8301 37 25.2778 37C24.7255 37 24.2778 36.5523 24.2778 36V16Z" stroke="#D27B00" stroke-width="2" stroke-miterlimit="10" stroke-linecap="round" stroke-linejoin="round"/>
<path d="M15 26.7222C14.4477 26.7222 14 26.2745 14 25.7222C14 25.1699 14.4477 24.7222 15 24.7222H35C35.5523 24.7222 36 25.1699 36 25.7222C36 26.2745 35.5523 26.7222 35 26.7222H15Z" stroke="#D27B00" stroke-width="2" stroke-miterlimit="10" stroke-linecap="round" stroke-linejoin="round"/>
</svg>
