<svg width="321" height="355" viewBox="0 0 321 355" fill="none" xmlns="http://www.w3.org/2000/svg">
<path d="M1.73305 264.265C2.19757 264.068 2.73584 264.248 2.99066 264.684C18.9583 291.966 41.742 314.638 69.114 330.473C96.4524 346.287 127.422 354.733 158.992 354.994C159.545 354.998 159.994 354.552 159.995 353.999L160 352.349C160.001 351.797 159.555 351.348 159.002 351.344C128.07 351.085 97.7275 342.808 70.9417 327.313C44.2035 311.846 21.933 289.72 6.29221 263.098C5.98189 262.57 6.21953 261.891 6.79007 261.668L8.29438 261.079C8.37407 261.048 8.38037 260.938 8.30476 260.898L0.144348 256.578C0.0777477 256.542 -0.00244141 256.591 -0.00244141 256.666V264.849C-0.00244141 264.921 0.0706295 264.969 0.136569 264.941L1.73305 264.265Z" fill="white" fill-opacity="0.3"/>
<path d="M319.267 90.7348C318.803 90.9316 318.264 90.7511 318.01 90.3157C302.042 63.033 279.258 40.3611 251.886 24.527C224.548 8.71238 193.578 0.266045 162.008 0.00569153C161.456 0.00113678 161.006 0.447899 161.005 1.00018L161 2.65015C160.999 3.20243 161.446 3.65109 161.998 3.65571C192.93 3.91425 223.273 12.1915 250.059 27.6864C276.797 43.1539 299.067 65.2793 314.708 91.9012C315.018 92.4294 314.781 93.1088 314.21 93.3319L312.706 93.9201C312.626 93.9512 312.62 94.0616 312.695 94.1016L320.856 98.4218C320.922 98.4571 321.003 98.4088 321.003 98.3334V90.1505C321.003 90.0789 320.93 90.0305 320.864 90.0584L319.267 90.7348Z" fill="white" fill-opacity="0.3"/>
</svg>
