<svg width="19" height="20" viewBox="0 0 19 20" fill="none" xmlns="http://www.w3.org/2000/svg">
<path d="M3.88179 5.80572C3.23831 6.71599 2.79691 7.78533 2.62742 8.95333C2.5364 9.59298 1.9441 10.0377 1.30449 9.94669C0.664841 9.85567 0.220116 9.26337 0.311131 8.62376C0.653904 6.26134 1.83816 4.20361 3.53359 2.73643C5.2305 1.26795 7.43592 0.390729 9.81932 0.390729C11.2563 0.390729 12.6585 0.714673 13.9315 1.31795C15.0058 1.82705 15.9843 2.53299 16.8107 3.40897L18.1521 2.59131C18.4184 2.42893 18.7516 2.67811 18.6933 2.98369L18.1174 7.33919C18.0874 7.56466 17.8608 7.69814 17.6497 7.61908L13.5006 6.13041C13.21 6.02634 13.1677 5.62947 13.419 5.47646L14.7521 4.66385C14.212 4.16343 13.5988 3.74832 12.9335 3.43283C11.9748 2.9785 10.913 2.73447 9.81932 2.73447C8.63698 2.73447 7.51444 3.01729 6.52128 3.52252" stroke="white" stroke-width="0.5" stroke-miterlimit="2.613" stroke-linecap="round" stroke-linejoin="round"/>
<path d="M1.34959 12.381L5.49876 13.8697C5.78927 13.9738 5.83161 14.3707 5.58032 14.5236L4.2472 15.3363C4.78728 15.8367 5.40051 16.2518 6.06575 16.5673C7.02454 17.0216 8.08626 17.2656 9.17997 17.2656C10.9884 17.2656 12.6571 16.6041 13.9368 15.4967C15.2178 14.3881 16.1127 12.8328 16.3719 11.0468C16.4629 10.4072 17.0552 9.96244 17.6948 10.0535C18.3344 10.1445 18.7792 10.7368 18.6882 11.3764C18.3454 13.7388 17.1612 15.7965 15.4657 17.2637C13.7688 18.7321 11.5634 19.6094 9.17997 19.6094C7.74302 19.6094 6.34087 19.2854 5.06786 18.6822C3.99357 18.1731 3.01498 17.4672 2.18861 16.5911L0.847246 17.4088C0.58084 17.5712 0.247716 17.322 0.306036 17.0164L0.881934 12.6609C0.911855 12.4355 1.13857 12.302 1.34959 12.381Z" stroke="white" stroke-width="0.5" stroke-miterlimit="2.613" stroke-linecap="round" stroke-linejoin="round"/>
<path d="M5.06226 4.50342H5.06336" stroke="white" stroke-width="0.5" stroke-miterlimit="2.613" stroke-linecap="round" stroke-linejoin="round"/>
</svg>
