<svg width="375" height="395" viewBox="0 0 375 395" fill="none" xmlns="http://www.w3.org/2000/svg">
<path d="M278.494 24.7439C239.307 1.13482 192.345 -5.94012 147.942 5.07549C103.538 16.0911 70.6105 47.4763 47.0014 86.6638H47C68.9215 50.2774 109.68 27.271 150.91 17.0428C192.14 6.81454 235.745 13.3838 272.131 35.3053L268.477 40.0005L288.475 38.5005L281.477 21.0005L278.494 24.7439Z" fill="#E25A5A" fill-opacity="0.5"/>
<path d="M284.702 327.374C323.529 303.176 351.153 264.545 361.497 219.98C371.841 175.415 358.825 131.828 334.627 93.0014L334.627 93.0002C357.096 129.051 359.091 175.813 349.486 217.192C339.881 258.572 314.232 294.441 278.181 316.91L275.656 311.522L267.914 330.022L286.684 331.731L284.702 327.374Z" fill="#E25A5A" fill-opacity="0.5"/>
<path d="M10.095 188.9C12.4356 234.59 32.8305 277.479 66.7932 308.131C100.756 338.784 145.188 348.531 190.878 346.191L190.879 346.192C148.455 348.365 106.59 327.44 75.0544 298.978C43.5193 270.516 24.5822 230.693 22.4089 188.269L28.3451 188.673L15.9184 172.933L5.32383 188.521L10.095 188.9Z" fill="#E25A5A" fill-opacity="0.5"/>
</svg>
