<svg width="21" height="20" viewBox="0 0 21 20" fill="none" xmlns="http://www.w3.org/2000/svg">
<mask id="mask0_639_218" style="mask-type:luminance" maskUnits="userSpaceOnUse" x="0" y="0" width="21" height="20">
<path d="M20 19.5V0.500031H1V19.5H20Z" fill="white" stroke="white"/>
</mask>
<g mask="url(#mask0_639_218)">
<path d="M4.88179 5.80572C4.23831 6.71599 3.79691 7.78533 3.62742 8.95333C3.5364 9.59298 2.9441 10.0377 2.30449 9.94669C1.66484 9.85567 1.22012 9.26337 1.31113 8.62376C1.6539 6.26134 2.83816 4.20361 4.53359 2.73643C6.2305 1.26795 8.43592 0.390729 10.8193 0.390729C12.2563 0.390729 13.6585 0.714673 14.9315 1.31795C16.0058 1.82705 16.9843 2.53299 17.8107 3.40897L19.1521 2.59131C19.4184 2.42893 19.7516 2.67811 19.6933 2.98369L19.1174 7.33919C19.0874 7.56466 18.8608 7.69814 18.6497 7.61908L14.5006 6.13041C14.21 6.02634 14.1677 5.62947 14.419 5.47646L15.7521 4.66385C15.212 4.16343 14.5988 3.74832 13.9335 3.43283C12.9748 2.9785 11.913 2.73447 10.8193 2.73447C9.63698 2.73447 8.51444 3.01729 7.52128 3.52252" stroke="white" stroke-width="0.5" stroke-miterlimit="2.613" stroke-linecap="round" stroke-linejoin="round"/>
<path d="M2.34959 12.381L6.49876 13.8697C6.78927 13.9738 6.83161 14.3707 6.58032 14.5236L5.2472 15.3363C5.78728 15.8367 6.40051 16.2518 7.06575 16.5673C8.02454 17.0216 9.08626 17.2656 10.18 17.2656C11.9884 17.2656 13.6571 16.6041 14.9368 15.4967C16.2178 14.3881 17.1127 12.8328 17.3719 11.0468C17.4629 10.4072 18.0552 9.96244 18.6948 10.0535C19.3344 10.1445 19.7792 10.7368 19.6882 11.3764C19.3454 13.7388 18.1612 15.7965 16.4657 17.2637C14.7688 18.7321 12.5634 19.6094 10.18 19.6094C8.74302 19.6094 7.34087 19.2854 6.06786 18.6822C4.99357 18.1731 4.01498 17.4672 3.18861 16.5911L1.84725 17.4088C1.58084 17.5712 1.24772 17.322 1.30604 17.0164L1.88193 12.6609C1.91186 12.4355 2.13857 12.302 2.34959 12.381Z" stroke="white" stroke-width="0.5" stroke-miterlimit="2.613" stroke-linecap="round" stroke-linejoin="round"/>
<path d="M6.06226 4.50342H6.06336" stroke="white" stroke-width="0.5" stroke-miterlimit="2.613" stroke-linecap="round" stroke-linejoin="round"/>
</g>
</svg>
