<svg width="42" height="27" viewBox="0 0 42 27" fill="none" xmlns="http://www.w3.org/2000/svg">
<path d="M27.297 21.5957H37.3892C39.3963 21.5957 41.0234 19.9845 41.0234 17.9971V9.00281C41.0234 7.0154 39.3963 5.40422 37.3892 5.40422H19.4876V4.45164C19.4876 2.54838 17.9233 1 16.0007 1C15.218 1 14.4483 1.26649 13.8337 1.7504L2.33973 10.7987C1.50336 11.4572 1.02352 12.4416 1.02344 13.4998C1.02344 14.5579 1.50312 15.5425 2.33949 16.2011L13.8337 25.2496C14.4485 25.7335 15.218 26 16.0007 26H16.0008C17.9265 26 19.4876 24.4542 19.4876 22.5473V21.5957H24.8825" stroke="#F9BA0B" stroke-miterlimit="10" stroke-linecap="round" stroke-linejoin="round"/>
<path d="M32.6694 8.45978H36.8284C37.441 8.45978 37.9377 8.95157 37.9377 9.55828V17.442C37.9377 18.0487 37.441 18.5405 36.8284 18.5405H16.8014C16.6954 18.5406 16.5938 18.5823 16.5189 18.6565C16.444 18.7307 16.4019 18.8313 16.4019 18.9362V22.5485C16.4019 22.8797 16.0155 23.0642 15.7538 22.8581L4.25976 13.8098C4.05864 13.6515 4.05864 13.3489 4.25976 13.1905L15.7538 4.14218C16.0155 3.93609 16.4019 4.12066 16.4019 4.45187V8.06417C16.4019 8.16909 16.444 8.2697 16.5189 8.34388C16.5939 8.41807 16.6955 8.45976 16.8014 8.45978H30.2549" stroke="#F9BA0B" stroke-miterlimit="10" stroke-linecap="round" stroke-linejoin="round"/>
</svg>
