<svg width="50" height="50" viewBox="0 0 50 50" fill="none" xmlns="http://www.w3.org/2000/svg">
<path d="M50 25C50 38.8071 38.8071 50 25 50C17.7214 50 11.1694 46.8898 6.60102 41.9255C5.39742 40.6181 4.33603 39.1866 3.43469 37.6551C1.25204 33.9429 0 29.6173 0 25C0 11.1929 11.1929 0 25 0C29.6184 0 33.9439 1.25204 37.6551 3.43571C39.1867 4.33638 40.618 5.39783 41.9245 6.60204C46.8888 11.1684 50 17.7214 50 25Z" fill="#F0CD00"/>
<path d="M50.0001 25.0002C50.0001 38.4961 39.3072 49.4941 25.9307 49.9829C12.5542 49.4941 1.86133 38.4961 1.86133 25.0002C1.86133 11.5043 12.5542 0.506354 25.9307 0.0175781C39.3072 0.506354 50.0001 11.5043 50.0001 25.0002Z" fill="#FFDE50"/>
<path d="M41.9244 6.60187L6.6009 41.9253C5.3973 40.6179 4.33591 39.1864 3.43457 37.6549L37.655 3.43555C39.1866 4.33622 40.6178 5.39766 41.9244 6.60187ZM48.2754 15.86L15.8591 48.2764C13.5824 47.3808 11.4498 46.1554 9.52947 44.6396L44.6397 9.52942C46.1558 11.4497 47.3808 13.5828 48.2754 15.86Z" fill="#FFEA94"/>
<path d="M44.4265 24.9998C44.4265 35.7283 35.7286 44.4263 25 44.4263C21.2633 44.4263 17.7735 43.3712 14.8112 41.5426C13.5235 40.7479 12.3329 39.8059 11.2633 38.7355C10.4769 37.95 9.75935 37.0986 9.11838 36.1906C8.22793 34.9298 7.49141 33.5671 6.92451 32.1314C6.07961 29.9937 5.6041 27.6692 5.57553 25.2385C5.57349 25.159 5.57349 25.0794 5.57349 24.9998C5.57349 14.2712 14.2704 5.57324 25 5.57324C25.0796 5.57324 25.1602 5.57324 25.2398 5.57528C27.6704 5.60385 29.9939 6.08039 32.1317 6.92426C33.5671 7.49158 34.9298 8.22807 36.1908 9.11814C37.1 9.761 37.951 10.4783 38.7357 11.263C39.8063 12.3324 40.7484 13.5231 41.5429 14.811C43.3714 17.7732 44.4265 21.263 44.4265 24.9998Z" fill="#FAA300"/>
<path d="M38.7357 11.263L11.2633 38.7355C10.4769 37.95 9.75935 37.0986 9.11838 36.1906C8.22793 34.9298 7.49141 33.5671 6.92451 32.1314C6.07961 29.9937 5.6041 27.6692 5.57553 25.2385C5.57349 25.159 5.57349 25.0794 5.57349 24.9998C5.57349 14.2712 14.2704 5.57324 25 5.57324C25.0796 5.57324 25.1602 5.57324 25.2398 5.57528C27.6704 5.60385 29.9939 6.08039 32.1317 6.92426C33.5671 7.49158 34.9298 8.22807 36.1908 9.11814C37.1 9.761 37.951 10.4783 38.7357 11.263Z" fill="#FFBD00"/>
<path d="M44.4261 24.9998C44.4261 35.7283 35.7281 44.4263 24.9995 44.4263C24.6312 44.4263 24.2659 44.4161 23.9026 44.3957C34.121 43.8273 42.2312 35.36 42.2312 24.9998C42.2312 14.6396 34.121 6.17222 23.9026 5.60385C24.2659 5.58345 24.6312 5.57324 24.9995 5.57324C35.7281 5.57324 44.4261 14.2712 44.4261 24.9998Z" fill="#F68E00"/>
<path d="M10.2869 31C10.2089 31 10.1439 30.974 10.0919 30.922C10.0486 30.87 10.0269 30.8093 10.0269 30.74V21.666C10.0269 21.5707 10.0529 21.497 10.1049 21.445C10.1569 21.3843 10.2262 21.354 10.3129 21.354H14.0309C15.3309 21.354 16.3232 21.5707 17.0079 22.004C17.7012 22.4287 18.0479 23.057 18.0479 23.889C18.0479 24.357 17.9222 24.7557 17.6709 25.085C17.4282 25.4057 16.9862 25.709 16.3449 25.995C16.3276 26.0037 16.3189 26.021 16.3189 26.047C16.3189 26.0643 16.3276 26.0773 16.3449 26.086C17.0469 26.3287 17.5452 26.632 17.8399 26.996C18.1346 27.3513 18.2819 27.815 18.2819 28.387C18.2819 29.271 17.9439 29.9297 17.2679 30.363C16.5919 30.7877 15.5736 31 14.2129 31H10.2869ZM14.1479 29.245C14.6159 29.245 14.9669 29.1367 15.2009 28.92C15.4349 28.6947 15.5519 28.426 15.5519 28.114C15.5519 27.8887 15.4956 27.6937 15.3829 27.529C15.2702 27.3643 15.1142 27.2387 14.9149 27.152C14.7156 27.0653 14.4859 27.022 14.2259 27.022H12.9259C12.7439 27.022 12.6529 27.1087 12.6529 27.282V28.985C12.6529 29.1583 12.7179 29.245 12.8479 29.245H14.1479ZM14.2259 25.228C14.3992 25.228 14.5596 25.2063 14.7069 25.163C14.8542 25.111 14.9842 25.0417 15.0969 24.955C15.2096 24.8683 15.2962 24.7643 15.3569 24.643C15.4176 24.513 15.4479 24.3613 15.4479 24.188C15.4479 23.85 15.3222 23.5857 15.0709 23.395C14.8196 23.2043 14.5032 23.109 14.1219 23.109H12.9259C12.7439 23.109 12.6529 23.187 12.6529 23.343V24.955C12.6529 25.137 12.7179 25.228 12.8479 25.228H14.2259ZM21.6807 30.649C21.6807 30.779 21.6503 30.87 21.5897 30.922C21.529 30.974 21.4293 31 21.2907 31H19.6787C19.5573 31 19.475 30.9783 19.4317 30.935C19.3883 30.883 19.3667 30.805 19.3667 30.701V24.383C19.3667 24.201 19.4447 24.11 19.6007 24.11H21.4597C21.607 24.11 21.6807 24.1923 21.6807 24.357V30.649ZM21.6937 23.057C21.6937 23.291 21.5593 23.408 21.2907 23.408H19.6657C19.5443 23.408 19.462 23.382 19.4187 23.33C19.3753 23.278 19.3537 23.2 19.3537 23.096V21.64C19.3537 21.4493 19.4317 21.354 19.5877 21.354H21.4597C21.6157 21.354 21.6937 21.4407 21.6937 21.614V23.057ZM23.2461 31C23.0381 31 22.9341 30.9003 22.9341 30.701V24.383C22.9341 24.201 23.0077 24.11 23.1551 24.11H25.0011C25.1484 24.11 25.2221 24.188 25.2221 24.344V24.968C25.2221 25.02 25.2351 25.0547 25.2611 25.072C25.2871 25.0807 25.3261 25.0633 25.3781 25.02C25.5774 24.812 25.7897 24.63 26.0151 24.474C26.2404 24.318 26.4744 24.1967 26.7171 24.11C26.9684 24.0233 27.2327 23.98 27.5101 23.98C28.1254 23.98 28.6194 24.1707 28.9921 24.552C29.3734 24.9247 29.5641 25.4273 29.5641 26.06V30.649C29.5641 30.883 29.4427 31 29.2001 31H27.5231C27.4191 31 27.3454 30.9783 27.3021 30.935C27.2674 30.8917 27.2501 30.8137 27.2501 30.701V26.385C27.2501 26.1423 27.1764 25.956 27.0291 25.826C26.8904 25.696 26.6911 25.631 26.4311 25.631C26.2751 25.631 26.1277 25.657 25.9891 25.709C25.8591 25.761 25.7334 25.8433 25.6121 25.956C25.4907 26.06 25.3694 26.1943 25.2481 26.359V30.662C25.2481 30.8873 25.1181 31 24.8581 31H23.2461ZM39.257 30.415C39.4043 30.6317 39.452 30.7833 39.4 30.87C39.3566 30.9567 39.2526 31 39.088 31H37.008C36.7653 31 36.605 30.922 36.527 30.766L34.889 28.088C34.8283 27.9667 34.772 27.906 34.72 27.906C34.668 27.906 34.6073 27.9623 34.538 28.075L32.939 30.766C32.8956 30.8527 32.8306 30.9133 32.744 30.948C32.6573 30.9827 32.5576 31 32.445 31H30.794C30.6293 31 30.5253 30.961 30.482 30.883C30.4386 30.7963 30.4906 30.6403 30.638 30.415L33.277 26.346C33.3463 26.2593 33.3766 26.1857 33.368 26.125C33.368 26.0643 33.3376 25.9907 33.277 25.904L30.599 21.757C30.547 21.679 30.5296 21.5923 30.547 21.497C30.573 21.4017 30.651 21.354 30.781 21.354H32.978C33.108 21.354 33.2033 21.3757 33.264 21.419C33.3333 21.4537 33.3896 21.5143 33.433 21.601L34.824 23.954C34.8673 24.0233 34.915 24.058 34.967 24.058C35.0276 24.058 35.0753 24.0233 35.11 23.954L36.501 21.601C36.5443 21.5143 36.5963 21.4537 36.657 21.419C36.7263 21.3757 36.8216 21.354 36.943 21.354H38.763C38.9016 21.354 38.9753 21.3973 38.984 21.484C38.9926 21.5707 38.9666 21.653 38.906 21.731L36.371 25.605C36.319 25.683 36.293 25.7523 36.293 25.813C36.3016 25.8737 36.3363 25.9473 36.397 26.034L39.257 30.415Z" fill="#F68E00"/>
<path d="M11.2869 30C11.2089 30 11.1439 29.974 11.0919 29.922C11.0486 29.87 11.0269 29.8093 11.0269 29.74V20.666C11.0269 20.5707 11.0529 20.497 11.1049 20.445C11.1569 20.3843 11.2262 20.354 11.3129 20.354H15.0309C16.3309 20.354 17.3232 20.5707 18.0079 21.004C18.7012 21.4287 19.0479 22.057 19.0479 22.889C19.0479 23.357 18.9222 23.7557 18.6709 24.085C18.4282 24.4057 17.9862 24.709 17.3449 24.995C17.3276 25.0037 17.3189 25.021 17.3189 25.047C17.3189 25.0643 17.3276 25.0773 17.3449 25.086C18.0469 25.3287 18.5452 25.632 18.8399 25.996C19.1346 26.3513 19.2819 26.815 19.2819 27.387C19.2819 28.271 18.9439 28.9297 18.2679 29.363C17.5919 29.7877 16.5736 30 15.2129 30H11.2869ZM15.1479 28.245C15.6159 28.245 15.9669 28.1367 16.2009 27.92C16.4349 27.6947 16.5519 27.426 16.5519 27.114C16.5519 26.8887 16.4956 26.6937 16.3829 26.529C16.2702 26.3643 16.1142 26.2387 15.9149 26.152C15.7156 26.0653 15.4859 26.022 15.2259 26.022H13.9259C13.7439 26.022 13.6529 26.1087 13.6529 26.282V27.985C13.6529 28.1583 13.7179 28.245 13.8479 28.245H15.1479ZM15.2259 24.228C15.3992 24.228 15.5596 24.2063 15.7069 24.163C15.8542 24.111 15.9842 24.0417 16.0969 23.955C16.2096 23.8683 16.2962 23.7643 16.3569 23.643C16.4176 23.513 16.4479 23.3613 16.4479 23.188C16.4479 22.85 16.3222 22.5857 16.0709 22.395C15.8196 22.2043 15.5032 22.109 15.1219 22.109H13.9259C13.7439 22.109 13.6529 22.187 13.6529 22.343V23.955C13.6529 24.137 13.7179 24.228 13.8479 24.228H15.2259ZM22.6807 29.649C22.6807 29.779 22.6503 29.87 22.5897 29.922C22.529 29.974 22.4293 30 22.2907 30H20.6787C20.5573 30 20.475 29.9783 20.4317 29.935C20.3883 29.883 20.3667 29.805 20.3667 29.701V23.383C20.3667 23.201 20.4447 23.11 20.6007 23.11H22.4597C22.607 23.11 22.6807 23.1923 22.6807 23.357V29.649ZM22.6937 22.057C22.6937 22.291 22.5593 22.408 22.2907 22.408H20.6657C20.5443 22.408 20.462 22.382 20.4187 22.33C20.3753 22.278 20.3537 22.2 20.3537 22.096V20.64C20.3537 20.4493 20.4317 20.354 20.5877 20.354H22.4597C22.6157 20.354 22.6937 20.4407 22.6937 20.614V22.057ZM24.2461 30C24.0381 30 23.9341 29.9003 23.9341 29.701V23.383C23.9341 23.201 24.0077 23.11 24.1551 23.11H26.0011C26.1484 23.11 26.2221 23.188 26.2221 23.344V23.968C26.2221 24.02 26.2351 24.0547 26.2611 24.072C26.2871 24.0807 26.3261 24.0633 26.3781 24.02C26.5774 23.812 26.7897 23.63 27.0151 23.474C27.2404 23.318 27.4744 23.1967 27.7171 23.11C27.9684 23.0233 28.2327 22.98 28.5101 22.98C29.1254 22.98 29.6194 23.1707 29.9921 23.552C30.3734 23.9247 30.5641 24.4273 30.5641 25.06V29.649C30.5641 29.883 30.4427 30 30.2001 30H28.5231C28.4191 30 28.3454 29.9783 28.3021 29.935C28.2674 29.8917 28.2501 29.8137 28.2501 29.701V25.385C28.2501 25.1423 28.1764 24.956 28.0291 24.826C27.8904 24.696 27.6911 24.631 27.4311 24.631C27.2751 24.631 27.1277 24.657 26.9891 24.709C26.8591 24.761 26.7334 24.8433 26.6121 24.956C26.4907 25.06 26.3694 25.1943 26.2481 25.359V29.662C26.2481 29.8873 26.1181 30 25.8581 30H24.2461ZM40.257 29.415C40.4043 29.6317 40.452 29.7833 40.4 29.87C40.3566 29.9567 40.2526 30 40.088 30H38.008C37.7653 30 37.605 29.922 37.527 29.766L35.889 27.088C35.8283 26.9667 35.772 26.906 35.72 26.906C35.668 26.906 35.6073 26.9623 35.538 27.075L33.939 29.766C33.8956 29.8527 33.8306 29.9133 33.744 29.948C33.6573 29.9827 33.5576 30 33.445 30H31.794C31.6293 30 31.5253 29.961 31.482 29.883C31.4386 29.7963 31.4906 29.6403 31.638 29.415L34.277 25.346C34.3463 25.2593 34.3766 25.1857 34.368 25.125C34.368 25.0643 34.3376 24.9907 34.277 24.904L31.599 20.757C31.547 20.679 31.5296 20.5923 31.547 20.497C31.573 20.4017 31.651 20.354 31.781 20.354H33.978C34.108 20.354 34.2033 20.3757 34.264 20.419C34.3333 20.4537 34.3896 20.5143 34.433 20.601L35.824 22.954C35.8673 23.0233 35.915 23.058 35.967 23.058C36.0276 23.058 36.0753 23.0233 36.11 22.954L37.501 20.601C37.5443 20.5143 37.5963 20.4537 37.657 20.419C37.7263 20.3757 37.8216 20.354 37.943 20.354H39.763C39.9016 20.354 39.9753 20.3973 39.984 20.484C39.9926 20.5707 39.9666 20.653 39.906 20.731L37.371 24.605C37.319 24.683 37.293 24.7523 37.293 24.813C37.3016 24.8737 37.3363 24.9473 37.397 25.034L40.257 29.415Z" fill="#FFEA94"/>
</svg>
