<svg width="113" height="29" viewBox="0 0 113 29" fill="none" xmlns="http://www.w3.org/2000/svg">
<g filter="url(#filter0_i_758_1324)">
<path d="M0 6C0 2.68629 2.68629 0 6 0H107C110.314 0 113 2.68629 113 6V29H0V6Z" fill="#EACAA4"/>
<path d="M25.3853 24V14.5001H28.2865L22.0006 5L15.7148 14.5001H18.6159V24" stroke="#380000" stroke-miterlimit="10" stroke-linecap="round" stroke-linejoin="round"/>
<path d="M14.2858 24V20.0822H15.7144L12.8572 15.6047L10 20.0822H11.4286V24" stroke="#380000" stroke-miterlimit="10" stroke-linecap="round" stroke-linejoin="round"/>
<path d="M32.5714 24V20.0822H34L31.1428 15.6047L28.2856 20.0822H29.7142V24" stroke="#380000" stroke-miterlimit="10" stroke-linecap="round" stroke-linejoin="round"/>
<path d="M46.1183 22V6.72727H51.7114C52.7952 6.72727 53.6926 6.90625 54.4035 7.2642C55.1144 7.61719 55.6464 8.09695 55.9994 8.70348C56.3524 9.30504 56.5289 9.98366 56.5289 10.7393C56.5289 11.3757 56.412 11.9126 56.1784 12.3501C55.9447 12.7827 55.6315 13.1307 55.2387 13.3942C54.8509 13.6527 54.4234 13.8416 53.9561 13.9609V14.1101C54.4632 14.1349 54.9578 14.299 55.4401 14.6023C55.9273 14.9006 56.33 15.3256 56.6482 15.8775C56.9664 16.4293 57.1254 17.1005 57.1254 17.891C57.1254 18.6715 56.9415 19.3725 56.5736 19.994C56.2107 20.6104 55.6489 21.1001 54.8882 21.4631C54.1276 21.821 53.1556 22 51.9724 22H46.1183ZM48.4227 20.0238H51.7487C52.8524 20.0238 53.6428 19.81 54.1201 19.3825C54.5974 18.9549 54.836 18.4205 54.836 17.7791C54.836 17.2969 54.7142 16.8544 54.4706 16.4517C54.227 16.049 53.879 15.7283 53.4266 15.4897C52.9791 15.2511 52.4472 15.1317 51.8307 15.1317H48.4227V20.0238ZM48.4227 13.3345H51.51C52.0271 13.3345 52.4919 13.2351 52.9046 13.0362C53.3222 12.8374 53.6528 12.5589 53.8964 12.201C54.145 11.8381 54.2693 11.4105 54.2693 10.9183C54.2693 10.2869 54.048 9.75746 53.6056 9.3299C53.1631 8.90234 52.4845 8.68856 51.5697 8.68856H48.4227V13.3345ZM64.5045 22.2312C63.4307 22.2312 62.4935 21.9851 61.6931 21.4929C60.8927 21.0007 60.2712 20.3121 59.8287 19.4272C59.3863 18.5423 59.165 17.5082 59.165 16.3249C59.165 15.1367 59.3863 14.0977 59.8287 13.2077C60.2712 12.3178 60.8927 11.6268 61.6931 11.1346C62.4935 10.6424 63.4307 10.3963 64.5045 10.3963C65.5784 10.3963 66.5155 10.6424 67.316 11.1346C68.1164 11.6268 68.7378 12.3178 69.1803 13.2077C69.6228 14.0977 69.844 15.1367 69.844 16.3249C69.844 17.5082 69.6228 18.5423 69.1803 19.4272C68.7378 20.3121 68.1164 21.0007 67.316 21.4929C66.5155 21.9851 65.5784 22.2312 64.5045 22.2312ZM64.512 20.3594C65.208 20.3594 65.7847 20.1754 66.2421 19.8075C66.6995 19.4396 67.0376 18.9499 67.2563 18.3384C67.48 17.7269 67.5919 17.0533 67.5919 16.3175C67.5919 15.5866 67.48 14.9155 67.2563 14.304C67.0376 13.6875 66.6995 13.1928 66.2421 12.82C65.7847 12.4471 65.208 12.2607 64.512 12.2607C63.811 12.2607 63.2293 12.4471 62.767 12.82C62.3096 13.1928 61.969 13.6875 61.7453 14.304C61.5265 14.9155 61.4172 15.5866 61.4172 16.3175C61.4172 17.0533 61.5265 17.7269 61.7453 18.3384C61.969 18.9499 62.3096 19.4396 62.767 19.8075C63.2293 20.1754 63.811 20.3594 64.512 20.3594ZM77.1578 22.2312C76.084 22.2312 75.1468 21.9851 74.3464 21.4929C73.546 21.0007 72.9245 20.3121 72.4821 19.4272C72.0396 18.5423 71.8184 17.5082 71.8184 16.3249C71.8184 15.1367 72.0396 14.0977 72.4821 13.2077C72.9245 12.3178 73.546 11.6268 74.3464 11.1346C75.1468 10.6424 76.084 10.3963 77.1578 10.3963C78.2317 10.3963 79.1689 10.6424 79.9693 11.1346C80.7697 11.6268 81.3912 12.3178 81.8336 13.2077C82.2761 14.0977 82.4973 15.1367 82.4973 16.3249C82.4973 17.5082 82.2761 18.5423 81.8336 19.4272C81.3912 20.3121 80.7697 21.0007 79.9693 21.4929C79.1689 21.9851 78.2317 22.2312 77.1578 22.2312ZM77.1653 20.3594C77.8613 20.3594 78.438 20.1754 78.8954 19.8075C79.3528 19.4396 79.6909 18.9499 79.9096 18.3384C80.1333 17.7269 80.2452 17.0533 80.2452 16.3175C80.2452 15.5866 80.1333 14.9155 79.9096 14.304C79.6909 13.6875 79.3528 13.1928 78.8954 12.82C78.438 12.4471 77.8613 12.2607 77.1653 12.2607C76.4643 12.2607 75.8826 12.4471 75.4203 12.82C74.9629 13.1928 74.6223 13.6875 74.3986 14.304C74.1799 14.9155 74.0705 15.5866 74.0705 16.3175C74.0705 17.0533 74.1799 17.7269 74.3986 18.3384C74.6223 18.9499 74.9629 19.4396 75.4203 19.8075C75.8826 20.1754 76.4643 20.3594 77.1653 20.3594ZM93.5697 13.342L91.5487 13.6999C91.4642 13.4414 91.33 13.1953 91.146 12.9616C90.9671 12.728 90.7235 12.5366 90.4152 12.3874C90.107 12.2383 89.7217 12.1637 89.2593 12.1637C88.6279 12.1637 88.1009 12.3054 87.6784 12.5888C87.2558 12.8672 87.0445 13.2276 87.0445 13.6701C87.0445 14.0529 87.1862 14.3612 87.4695 14.5948C87.7529 14.8285 88.2103 15.0199 88.8417 15.169L90.6613 15.5866C91.7153 15.8303 92.5008 16.2056 93.0178 16.7127C93.5349 17.2198 93.7934 17.8786 93.7934 18.6889C93.7934 19.375 93.5945 19.9865 93.1968 20.5234C92.8041 21.0554 92.2547 21.473 91.5487 21.7763C90.8477 22.0795 90.0349 22.2312 89.1102 22.2312C87.8275 22.2312 86.781 21.9577 85.9706 21.4109C85.1602 20.859 84.6631 20.076 84.4791 19.0618L86.6343 18.7337C86.7686 19.2955 87.0445 19.7205 87.4621 20.0089C87.8797 20.2923 88.4241 20.4339 89.0953 20.4339C89.8261 20.4339 90.4102 20.2823 90.8477 19.979C91.2852 19.6708 91.504 19.2955 91.504 18.853C91.504 18.495 91.3698 18.1942 91.1013 17.9506C90.8378 17.707 90.4326 17.5231 89.8857 17.3988L87.9468 16.9737C86.8779 16.7301 86.0874 16.3423 85.5754 15.8104C85.0683 15.2784 84.8147 14.6048 84.8147 13.7894C84.8147 13.1133 85.0036 12.5217 85.3815 12.0146C85.7593 11.5075 86.2813 11.1122 86.9475 10.8288C87.6137 10.5405 88.3769 10.3963 89.2369 10.3963C90.4749 10.3963 91.4493 10.6648 92.1602 11.2017C92.8712 11.7337 93.341 12.4471 93.5697 13.342ZM101.592 10.5455V12.3352H95.3352V10.5455H101.592ZM97.0131 7.80114H99.2429V18.6367C99.2429 19.0692 99.3075 19.3949 99.4368 19.6136C99.5661 19.8274 99.7326 19.9741 99.9364 20.0536C100.145 20.1282 100.371 20.1655 100.615 20.1655C100.794 20.1655 100.951 20.1531 101.085 20.1282C101.219 20.1033 101.324 20.0835 101.398 20.0685L101.801 21.9105C101.672 21.9602 101.488 22.0099 101.249 22.0597C101.01 22.1143 100.712 22.1442 100.354 22.1491C99.7674 22.1591 99.2205 22.0547 98.7134 21.8359C98.2063 21.6172 97.7962 21.2791 97.483 20.8217C97.1697 20.3643 97.0131 19.7901 97.0131 19.0991V7.80114Z" fill="#380000"/>
</g>
<defs>
<filter id="filter0_i_758_1324" x="0" y="-2" width="113" height="31" filterUnits="userSpaceOnUse" color-interpolation-filters="sRGB">
<feFlood flood-opacity="0" result="BackgroundImageFix"/>
<feBlend mode="normal" in="SourceGraphic" in2="BackgroundImageFix" result="shape"/>
<feColorMatrix in="SourceAlpha" type="matrix" values="0 0 0 0 0 0 0 0 0 0 0 0 0 0 0 0 0 0 127 0" result="hardAlpha"/>
<feOffset dy="-2"/>
<feGaussianBlur stdDeviation="2"/>
<feComposite in2="hardAlpha" operator="arithmetic" k2="-1" k3="1"/>
<feColorMatrix type="matrix" values="0 0 0 0 0.054902 0 0 0 0 0.0431373 0 0 0 0 0.117647 0 0 0 0.6 0"/>
<feBlend mode="normal" in2="shape" result="effect1_innerShadow_758_1324"/>
</filter>
</defs>
</svg>
