<svg width="42" height="42" viewBox="0 0 42 42" fill="none" xmlns="http://www.w3.org/2000/svg">
<path d="M21 42C32.598 42 42 32.598 42 21C42 9.40202 32.598 0 21 0C9.40202 0 0 9.40202 0 21C0 32.598 9.40202 42 21 42Z" fill="#FFF7DF"/>
<path d="M28.7911 25.8089C29.0842 26.1022 29.2834 26.476 29.3636 26.8827C29.4439 27.2895 29.4014 27.7109 29.2416 28.0934C29.0818 28.476 28.812 28.8025 28.4663 29.0313C28.1206 29.2602 27.7147 29.3812 27.3001 29.3789C26.7541 29.3789 26.2291 29.1689 25.8091 28.7699L21.0001 23.9609L16.1911 28.7699C15.7711 29.1899 15.2461 29.3789 14.7001 29.3789C14.1541 29.3789 13.6291 29.1689 13.2091 28.7699C13.0144 28.5757 12.86 28.3449 12.7546 28.0909C12.6492 27.8368 12.595 27.5645 12.595 27.2894C12.595 27.0144 12.6492 26.7421 12.7546 26.488C12.86 26.234 13.0144 26.0032 13.2091 25.8089L18.0181 20.9999L13.2091 16.1909C13.0147 15.9965 12.8605 15.7657 12.7552 15.5117C12.65 15.2577 12.5959 14.9854 12.5959 14.7104C12.5959 14.4355 12.65 14.1632 12.7552 13.9092C12.8605 13.6552 13.0147 13.4244 13.2091 13.2299C13.4035 13.0355 13.6343 12.8813 13.8884 12.7761C14.1424 12.6709 14.4146 12.6167 14.6896 12.6167C14.9646 12.6167 15.2368 12.6709 15.4908 12.7761C15.7449 12.8813 15.9757 13.0355 16.1701 13.2299L20.9791 18.0389L25.7881 13.2299C25.9825 13.0355 26.2133 12.8813 26.4674 12.7761C26.7214 12.6709 26.9936 12.6167 27.2686 12.6167C27.5436 12.6167 27.8158 12.6709 28.0698 12.7761C28.3239 12.8813 28.5547 13.0355 28.7491 13.2299C28.9435 13.4244 29.0977 13.6552 29.203 13.9092C29.3082 14.1632 29.3623 14.4355 29.3623 14.7104C29.3623 14.9854 29.3082 15.2577 29.203 15.5117C29.0977 15.7657 28.9435 15.9965 28.7491 16.1909L23.9401 20.9999L28.7491 25.8089H28.7911Z" fill="#F9BA0B"/>
</svg>
