<svg width="39" height="39" viewBox="0 0 39 39" fill="none" xmlns="http://www.w3.org/2000/svg">
<path d="M5.99903 16.2965C4.57899 14.2398 4.15717 12.5082 4.77925 11.2892L5.49608 9.88269C5.91338 9.06379 6.33085 8.24449 6.74909 7.42512C7.41496 6.1188 9.18948 5.6915 11.7455 6.2222C14.1627 6.72405 17.0483 8.01694 19.8707 9.86268C21.2227 10.7471 22.4833 11.7064 23.6175 12.7137L23.1112 13.445C22.0073 12.4645 20.779 11.5301 19.4604 10.6674C16.7172 8.87354 13.9248 7.61942 11.5975 7.13626C9.44034 6.68834 7.93206 6.96311 7.45952 7.89006C6.55506 9.66532 9.46857 14.1724 15.2475 18.0524L14.8291 18.8518C12.097 17.0175 9.75566 14.8708 8.23623 12.8072C7.3738 11.6359 6.82189 10.5442 6.59486 9.58599C6.46553 9.83974 6.33596 10.0936 6.20674 10.3473L5.48974 11.7541C5.13531 12.4487 5.3634 13.56 6.11169 14.8772L6.7323 13.6581L7.44308 14.1223L6.63525 15.7092L6.64541 15.7241C7.19991 16.5271 7.90177 17.3575 8.7184 18.184L9.42137 16.8034L10.1321 17.2677L9.35104 18.8016C10.2276 19.6283 11.212 20.4431 12.2721 21.214L11.8288 21.996C9.37511 20.2118 7.30476 18.1876 5.99903 16.2965ZM12.3519 9.50007C14.103 10.0905 16.2718 11.2032 18.4588 12.6332C19.3684 13.2287 20.2391 13.8511 21.0469 14.4832L21.5132 13.7185C20.6874 13.0724 19.798 12.4365 18.8692 11.8285C16.6281 10.3631 14.3967 9.21986 12.586 8.60935C10.5473 7.92192 9.29979 7.99253 8.87838 8.81902C8.45662 9.6449 9.02638 10.9035 10.5718 12.5597C11.9441 14.0305 13.9341 15.6481 16.1759 17.1148C16.3215 17.2095 16.4686 17.3042 16.6141 17.3971L17.0168 16.5874C16.8726 16.4955 16.7289 16.4029 16.5854 16.3096C14.3983 14.8786 12.4628 13.3071 11.1356 11.8847C9.66589 10.3095 9.48096 9.49495 9.58869 9.28403C9.69648 9.0729 10.4126 8.84621 12.3519 9.50007ZM32.6489 22.9864C31.0564 25.1074 28.6253 27.2919 25.8035 29.1373C22.9802 30.9831 20.0941 32.2759 17.6768 32.7778C16.9606 32.9265 16.3056 33 15.7193 33C14.213 33 13.1594 32.5152 12.68 31.5746C12.2205 30.6722 11.7607 29.7701 11.3006 28.8682L10.7103 27.7106C10.0442 26.4038 10.6045 24.4492 12.2881 22.2068C13.8807 20.0856 16.3123 17.901 19.1351 16.0556C21.9569 14.2103 24.8428 12.9177 27.2611 12.4159C29.8176 11.8856 31.5923 12.3125 32.2584 13.6182L34.2267 17.4845C34.8926 18.7899 34.3323 20.744 32.6489 22.9864ZM11.4208 27.2459L11.4209 27.246C11.8933 28.1728 13.4017 28.4475 15.559 27.9997C17.8864 27.5165 20.6794 26.2624 23.4235 24.4685C26.1665 22.6747 28.5216 20.5621 30.0549 18.5201C31.476 16.6275 32.0202 15.0104 31.548 14.0834L31.5477 14.0829C31.0754 13.1568 29.5668 12.8824 27.409 13.3301C25.0806 13.8132 22.2879 15.0669 19.5453 16.8605C16.8018 18.6542 14.4465 20.7667 12.9132 22.809C11.4921 24.7015 10.9482 26.3187 11.4208 27.2459ZM33.516 17.949L32.4122 15.7808C32.1769 16.7712 31.5945 17.904 30.6799 19.1221C29.0873 21.2431 26.6559 23.4276 23.8337 25.2732C21.0104 27.119 18.1243 28.4118 15.707 28.9137C14.9909 29.0624 14.3358 29.1358 13.7495 29.1359C13.1992 29.1359 12.7097 29.0709 12.2862 28.9429C12.6544 29.6651 13.0229 30.3875 13.3908 31.1101C13.7495 31.8138 14.7061 32.1411 16.0901 32.0619L15.4686 30.8405L16.1795 30.3765L16.9866 31.9629C17.1625 31.9351 17.3431 31.9022 17.5289 31.8636C18.283 31.707 19.0862 31.4691 19.9207 31.1585L19.2157 29.7762L19.9262 29.3114L20.7093 30.8471C21.5816 30.4834 22.4809 30.0458 23.3888 29.5426L22.6669 28.1242L23.3777 27.6601L24.1222 29.1229C24.979 28.6169 25.8163 28.0694 26.6317 27.4821L25.8858 26.0194L26.5963 25.5547L27.3193 26.9726C28.1578 26.3339 28.9418 25.6707 29.6559 24.997L28.8737 23.4608L29.5844 22.9965L30.2884 24.3791C30.9432 23.7157 31.5269 23.0464 32.0238 22.3845C32.1424 22.2266 32.258 22.0659 32.3705 21.9026L31.5627 20.3174L32.2734 19.8529L32.8947 21.0722C33.647 19.754 33.8748 18.6524 33.516 17.949ZM12.8395 26.3166C12.4187 25.4904 12.9887 24.2317 14.5336 22.5755C15.9065 21.1035 17.8963 19.4862 20.1365 18.0215C22.3776 16.5561 24.609 15.4129 26.4197 14.8024C28.4585 14.1149 29.7059 14.1855 30.1274 15.0123C30.549 15.839 29.9792 17.098 28.4339 18.7542C27.0616 20.225 25.0715 21.8421 22.8305 23.3074C20.5894 24.7728 18.358 25.9161 16.5473 26.5266C15.6223 26.8385 14.8603 26.9943 14.2643 26.9943C13.5466 26.9943 13.0698 26.7683 12.8395 26.3166ZM13.5502 25.852C13.6577 26.063 14.3738 26.2897 16.3131 25.6359C18.0642 25.0454 20.233 23.9327 22.4202 22.5026C24.6074 21.0725 26.5428 19.5015 27.8699 18.0792C29.3398 16.5039 29.5245 15.6883 29.4168 15.4771C29.3091 15.2659 28.593 15.0393 26.6537 15.6931C24.9027 16.2835 22.7338 17.3962 20.5467 18.8264C18.3605 20.2559 16.4253 21.827 15.0975 23.2505C13.6279 24.8261 13.4427 25.6412 13.5502 25.852ZM7.67063 22.2879H6.85018V23.4656H5.81046V24.3948H6.85018V25.5725H7.67063V24.3948H8.71036V23.4656H7.67063V22.2879ZM25.1715 11.5293H25.9919V10.3516H27.03V9.42234H25.992V8.24469H25.1715V9.42234H24.1318V10.3516H25.1715V11.5293H25.1715Z" fill="#F9BA0B"/>
</svg>
