<svg width="50" height="50" viewBox="0 0 50 50" fill="none" xmlns="http://www.w3.org/2000/svg">
<path d="M37.9229 0.119135L11.6372 7.63589C11.3256 7.72603 11.0349 7.86428 10.7788 8.04412C10.4246 8.28965 10.1446 8.60766 9.96313 8.97024L0.229067 28.5792C0.0149955 29.0106 -0.0509489 29.4874 0.0393174 29.9512C0.107845 30.3054 0.265637 30.6419 0.501189 30.9358L14.9455 48.9715C15.2 49.2892 15.5379 49.5485 15.9306 49.7275C16.3234 49.9065 16.7595 50 17.2021 50H39.7057C40.2671 50 40.8152 49.8497 41.2766 49.5692C41.7381 49.2887 42.091 48.8913 42.2881 48.4302L49.8244 30.8017C49.8673 30.7012 49.8996 30.5983 49.927 30.4947C49.9739 30.3165 50 30.1347 50 29.9523C50 29.7407 49.9684 29.5289 49.9048 29.3225L41.4405 1.78978C41.3431 1.47283 41.1732 1.1766 40.9411 0.919103C40.709 0.661611 40.4196 0.448259 40.0905 0.292036C39.7615 0.135717 39.3997 0.0397775 39.027 0.0100534C38.6544 -0.0196707 38.2787 0.0174425 37.9229 0.119135Z" fill="#B87333"/>
<path d="M9.96332 8.96927L0.229067 28.5783C0.0149955 29.0096 -0.0509488 29.4864 0.0393174 29.9502L26.5214 25.4878L10.7788 8.04315C10.4246 8.28864 10.1446 8.60666 9.96332 8.96927Z" fill="#C6864C"/>
<path d="M37.923 0.119211L11.6373 7.63597C11.3257 7.72611 11.035 7.86436 10.7788 8.04419L26.5214 25.4888L49.9269 30.4946C49.9738 30.3164 49.9999 30.1346 49.9999 29.9522C49.9999 29.7406 49.9682 29.5288 49.9046 29.3224L41.4403 1.78969C41.343 1.47277 41.1731 1.17654 40.941 0.919051C40.709 0.661558 40.4196 0.448179 40.0906 0.291907C39.7615 0.135634 39.3997 0.0397322 39.027 0.0100424C38.6544 -0.0196455 38.2787 0.0174982 37.923 0.119211Z" fill="#955A24"/>
</svg>
