<svg width="50" height="50" viewBox="0 0 50 50" fill="none" xmlns="http://www.w3.org/2000/svg">
<path d="M0.119147 12.0771L7.6359 38.3628C7.72605 38.6744 7.86429 38.9651 8.04413 39.2212C8.28966 39.5754 8.60767 39.8554 8.97025 40.0369L28.5792 49.7709C29.0106 49.985 29.4874 50.0509 29.9512 49.9607C30.3055 49.8922 30.6419 49.7344 30.9359 49.4988L48.9715 35.0545C49.2892 34.8 49.5485 34.4621 49.7275 34.0694C49.9065 33.6766 50 33.2405 50 32.7979V10.2943C50 9.73288 49.8497 9.18482 49.5692 8.72337C49.2887 8.26191 48.8913 7.90904 48.4302 7.7119L30.8017 0.175596C30.7012 0.132754 30.5983 0.100394 30.4947 0.0729964C30.3165 0.0261099 30.1347 5.96046e-06 29.9523 5.96046e-06C29.7407 5.96046e-06 29.5289 0.031626 29.3225 0.0952437L1.78979 8.55953C1.47285 8.6569 1.1766 8.8268 0.919115 9.05888C0.661623 9.29096 0.448271 9.58037 0.292048 9.90947C0.135733 10.2385 0.0397894 10.6004 0.0100653 10.973C-0.0196588 11.3457 0.0174544 11.7213 0.119147 12.0771Z" fill="#71E2EF"/>
<path d="M8.96952 40.0367L28.5785 49.7709C29.0099 49.985 29.4867 50.0509 29.9504 49.9607L25.488 23.4786L8.04339 39.2212C8.28889 39.5754 8.60691 39.8554 8.96952 40.0367Z" fill="#B0EAF0"/>
<path d="M0.119219 12.077L7.63598 38.3627C7.72612 38.6743 7.86436 38.965 8.0442 39.2212L25.4888 23.4786L30.4946 0.0731324C30.3164 0.026246 30.1346 0.00013819 29.9522 0.00013819C29.7406 0.00013819 29.5288 0.0317658 29.3224 0.0953835L1.7897 8.55966C1.47278 8.65705 1.17655 8.82693 0.919058 9.05898C0.661566 9.29103 0.448187 9.58039 0.291914 9.90944C0.135641 10.2385 0.0397394 10.6003 0.0100496 10.973C-0.0196382 11.3456 0.0175055 11.7213 0.119219 12.077Z" fill="#22D8ED"/>
</svg>
