<svg width="50" height="50" viewBox="0 0 50 50" fill="none" xmlns="http://www.w3.org/2000/svg">
<path d="M49.8809 37.9229L42.3641 11.6372C42.274 11.3256 42.1357 11.0349 41.9559 10.7788C41.7103 10.4246 41.3923 10.1446 41.0298 9.96313L21.4208 0.229067C20.9894 0.0149955 20.5126 -0.0509488 20.0488 0.0393174C19.6945 0.107845 19.3581 0.265637 19.0642 0.501189L1.02855 14.9455C0.710843 15.2 0.451528 15.5379 0.272507 15.9306C0.0934859 16.3234 1.82878e-05 16.7595 0 17.2021L0 39.7057C-3.87348e-06 40.2671 0.150294 40.8152 0.430811 41.2766C0.711329 41.7381 1.1087 42.091 1.56984 42.2881L19.1983 49.8244C19.2988 49.8673 19.4017 49.8996 19.5053 49.927C19.6835 49.9739 19.8653 50 20.0477 50C20.2593 50 20.4711 49.9684 20.6775 49.9048L48.2102 41.4405C48.5272 41.3431 48.8234 41.1732 49.0809 40.9411C49.3384 40.709 49.5517 40.4196 49.708 40.0905C49.8643 39.7615 49.9602 39.3997 49.9899 39.027C50.0197 38.6544 49.9826 38.2787 49.8809 37.9229Z" fill="#29A351"/>
<path d="M41.0305 9.96331L21.4215 0.229067C20.9901 0.0149955 20.5133 -0.0509488 20.0496 0.0393174L24.512 26.5214L41.9566 10.7788C41.7111 10.4246 41.3931 10.1446 41.0305 9.96331Z" fill="#9EF7BC"/>
<path d="M49.8808 37.923L42.364 11.6373C42.2739 11.3257 42.1356 11.035 41.9558 10.7788L24.5112 26.5214L19.5054 49.9269C19.6836 49.9738 19.8654 49.9999 20.0478 49.9999C20.2594 49.9999 20.4712 49.9682 20.6776 49.9046L48.2103 41.4403C48.5272 41.343 48.8235 41.1731 49.0809 40.941C49.3384 40.709 49.5518 40.4196 49.7081 40.0906C49.8644 39.7615 49.9603 39.3997 49.99 39.027C50.0196 38.6544 49.9825 38.2787 49.8808 37.923Z" fill="#50C878"/>
</svg>
