<svg width="21" height="21" viewBox="0 0 21 21" fill="none" xmlns="http://www.w3.org/2000/svg">
<path d="M18.4424 0H2.55761C1.14733 0 0 1.14733 0 2.55761V18.4423C0 19.8526 1.14733 21 2.55761 21H10.6993C11.0418 21 11.3194 20.7223 11.3194 20.3799V12.8613C11.3194 12.5189 11.0418 12.2413 10.6993 12.2413H8.47049V10.4762H10.6993C11.0418 10.4762 11.3194 10.1986 11.3194 9.85616V7.34634C11.3194 5.98806 12.4244 4.88302 13.7827 4.88302H15.9333V6.64805H13.7827C13.3977 6.64805 13.0845 6.96136 13.0845 7.34638V9.8562C13.0845 10.1986 13.3621 10.4763 13.7045 10.4763H15.9334V12.2413H13.7045C13.3621 12.2413 13.0845 12.5189 13.0845 12.8614V20.3799C13.0845 20.7224 13.3621 21 13.7045 21H18.4424C19.8526 21 21 19.8526 21 18.4424V2.55761C21 1.14733 19.8526 0 18.4424 0ZM19.7598 18.4424C19.7598 19.1688 19.1688 19.7599 18.4423 19.7599H14.3245V13.4814H16.5533C16.8958 13.4814 17.1734 13.2038 17.1734 12.8613V9.8562C17.1734 9.51376 16.8958 9.23613 16.5533 9.23613H14.3245V7.88819H16.5533C16.8958 7.88819 17.1734 7.61056 17.1734 7.26812V4.26299C17.1734 3.92055 16.8958 3.64292 16.5533 3.64292H13.7827C11.7406 3.64292 10.0792 5.30429 10.0792 7.34638V9.23613H7.85042C7.50798 9.23613 7.23034 9.51376 7.23034 9.8562V12.8613C7.23034 13.2038 7.50798 13.4814 7.85042 13.4814H10.0792V19.7598H2.55761C1.83114 19.7598 1.24011 19.1688 1.24011 18.4423V2.55761C1.24011 1.83114 1.8311 1.24011 2.55761 1.24011H18.4423C19.1688 1.24011 19.7598 1.8311 19.7598 2.55761V18.4424Z" fill="white"/>
</svg>
