<svg width="375" height="279" viewBox="0 0 375 279" fill="none" xmlns="http://www.w3.org/2000/svg">
<mask id="mask0_714_1049" style="mask-type:alpha" maskUnits="userSpaceOnUse" x="0" y="0" width="375" height="279">
<rect width="375" height="279" fill="url(#paint0_radial_714_1049)"/>
</mask>
<g mask="url(#mask0_714_1049)">
<path d="M105.119 105.68C104.572 104.513 102.911 103.975 101.756 103.658C101.157 103.494 100.557 103.299 99.9461 103.184C99.899 103.178 99.8519 103.172 99.8042 103.165C99.5146 103.006 98.4821 102.892 98.3413 102.899C97.3203 102.954 96.0528 103.647 95.8753 104.777C95.8684 104.819 95.8621 104.863 95.8552 104.905C95.6621 106.131 95.9845 107.338 97.1158 108.004C98.3465 108.728 99.7036 108.65 101.081 108.641C102.279 108.633 104.048 108.538 104.878 107.551C105.36 106.977 105.434 106.351 105.119 105.68Z" fill="#FFDA4C"/>
<path d="M107.806 97.7825C107.434 96.4811 106.688 95.6841 105.836 94.6798C105.053 93.7571 104.283 92.8148 103.526 91.8696C102.562 90.6653 100.494 90.8635 99.4882 91.8696C98.3339 93.0239 98.473 94.7407 99.4882 95.9076C100.451 97.0137 101.51 97.9008 102.772 98.6512C104.097 99.4384 105.235 99.8325 106.781 99.586C107.56 99.4619 108.004 98.4777 107.806 97.7825Z" fill="#FFDA4C"/>
<path d="M114.658 89.8263C114.518 88.8271 114.691 88.16 114.681 87.1632C114.653 84.1191 110.433 83.6738 109.502 86.4622C108.967 88.0618 109.397 89.8964 110.17 91.361C110.753 92.4653 112.271 93.916 113.627 93.796C114.188 93.7465 114.843 93.4076 114.954 92.7859C115.115 91.8746 114.788 90.7542 114.658 89.8263Z" fill="#FFDA4C"/>
<path d="M259.788 110.233C261.075 110.156 262.189 108.811 262.911 107.855C263.285 107.358 263.688 106.874 264.02 106.348C264.044 106.307 264.067 106.265 264.09 106.224C264.346 106.013 264.833 105.096 264.878 104.962C265.205 103.993 265.029 102.56 264.044 101.977C264.007 101.955 263.97 101.933 263.933 101.911C262.865 101.279 261.625 101.132 260.588 101.937C259.46 102.813 259.031 104.103 258.53 105.386C258.095 106.503 257.529 108.181 258.14 109.317C258.494 109.977 259.049 110.277 259.788 110.233Z" fill="#FFDA4C"/>
<path d="M266.134 115.648C267.481 115.783 268.497 115.384 269.745 114.964C270.891 114.578 272.052 114.21 273.209 113.856C274.685 113.404 275.265 111.41 274.702 110.104C274.055 108.604 272.409 108.099 270.95 108.611C269.566 109.098 268.35 109.754 267.187 110.649C265.966 111.589 265.179 112.501 264.836 114.029C264.665 114.798 265.416 115.575 266.134 115.648Z" fill="#FFDA4C"/>
<path d="M270.995 124.955C271.975 125.194 272.531 125.601 273.461 125.961C276.3 127.06 278.273 123.303 276.027 121.407C274.738 120.319 272.875 120.041 271.228 120.218C269.987 120.351 268.078 121.225 267.687 122.53C267.527 123.069 267.599 123.804 268.136 124.136C268.922 124.623 270.084 124.733 270.995 124.955Z" fill="#FFDA4C"/>
<path d="M338.238 139.406C338.011 139.017 337.569 138.877 337.145 138.961C336.706 139.047 336.263 139.114 335.819 139.166C335.643 138.564 335.47 137.961 335.293 137.359C335.032 136.471 333.869 136.556 333.573 137.359C333.339 137.996 333.096 138.631 332.849 139.263C332.239 139.231 331.63 139.172 331.028 139.075C330.591 139.005 330.156 139.122 329.919 139.526C329.704 139.895 329.758 140.418 330.072 140.716C330.59 141.206 331.111 141.69 331.631 142.176C331.321 142.881 331.025 143.594 330.838 144.332C330.775 144.583 330.834 144.788 330.958 144.931C331.003 145.087 331.08 145.233 331.191 145.345C331.595 145.749 332.151 145.672 332.56 145.345L333.841 144.24C334.575 144.921 335.309 145.602 336.042 146.284C336.716 146.91 337.897 146.3 337.625 145.363C337.286 144.194 336.944 143.026 336.604 141.857C337.098 141.431 337.592 141.005 338.087 140.578C338.408 140.302 338.443 139.757 338.238 139.406Z" fill="#8A6FD0"/>
<path d="M82.417 62.0774C82.19 61.689 81.7482 61.5488 81.3236 61.6327C80.8852 61.7188 80.4422 61.7855 79.9975 61.8378C79.8217 61.2356 79.6482 60.6329 79.4712 60.0308C79.2103 59.1431 78.0469 59.2281 77.7515 60.0308C77.5171 60.668 77.2746 61.3029 77.0264 61.9349C76.4162 61.9033 75.8078 61.8435 75.2062 61.7476C74.769 61.6775 74.334 61.7941 74.0973 62.1986C73.8818 62.5675 73.9358 63.0903 74.2507 63.3885C74.7678 63.8781 75.2895 64.3624 75.8095 64.8491C75.4998 65.5541 75.2039 66.2665 75.0166 67.0054C74.9528 67.2565 75.0126 67.4611 75.1361 67.6041C75.1815 67.7604 75.2579 67.9063 75.3694 68.0178C75.7733 68.4217 76.3289 68.3453 76.7386 68.0178L78.0193 66.9129C78.753 67.5944 79.4867 68.2752 80.2204 68.9572C80.8938 69.5835 82.0757 68.9733 81.8034 68.0356C81.4644 66.867 81.1219 65.6989 80.7818 64.5302C81.2759 64.1039 81.7706 63.6775 82.2653 63.2506C82.5871 62.9731 82.6221 62.4279 82.417 62.0774Z" fill="#8A6FD0"/>
<path d="M188.473 226.836C188.478 226.482 188.237 226.209 187.917 226.092C187.587 225.972 187.262 225.837 186.941 225.693C187.067 225.216 187.195 224.739 187.32 224.262C187.504 223.558 186.686 223.143 186.162 223.564C185.745 223.898 185.324 224.227 184.9 224.552C184.502 224.283 184.117 223.996 183.75 223.687C183.484 223.462 183.144 223.364 182.82 223.541C182.525 223.702 182.349 224.076 182.441 224.405C182.591 224.945 182.745 225.482 182.898 226.021C182.403 226.37 181.914 226.73 181.489 227.152C181.344 227.295 181.301 227.457 181.326 227.604C181.293 227.727 181.286 227.856 181.316 227.977C181.424 228.413 181.829 228.587 182.238 228.533L183.549 228.309C183.767 229.065 183.985 229.822 184.202 230.579C184.401 231.274 185.444 231.343 185.642 230.601C185.888 229.675 186.132 228.75 186.377 227.825C186.883 227.738 187.389 227.652 187.896 227.565C188.224 227.509 188.469 227.155 188.473 226.836Z" fill="#8A6FD0"/>
<path d="M367.266 34.3C367.399 34.6913 367.77 34.8987 368.167 34.9022C368.578 34.9056 368.988 34.928 369.398 34.9625C369.445 35.5365 369.49 36.1111 369.538 36.6851C369.608 37.532 370.671 37.6704 371.084 37.0028C371.413 36.4725 371.748 35.9468 372.088 35.4239C372.631 35.5652 373.167 35.7313 373.691 35.9289C374.072 36.0726 374.484 36.0479 374.772 35.7278C375.034 35.436 375.082 34.9556 374.854 34.6293C374.479 34.0932 374.099 33.5617 373.721 33.028C374.13 32.4511 374.528 31.865 374.833 31.2347C374.936 31.0204 374.921 30.8257 374.836 30.674C374.824 30.5252 374.782 30.3798 374.702 30.2591C374.413 29.8213 373.899 29.7868 373.471 30.0063L372.115 30.7636C371.58 30.0149 371.046 29.2669 370.512 28.5182C370.022 27.8304 368.846 28.1608 368.918 29.0548C369.007 30.1689 369.099 31.283 369.189 32.3971C368.665 32.6895 368.141 32.9814 367.618 33.2739C367.278 33.4623 367.146 33.9467 367.266 34.3Z" fill="#8A6FD0"/>
<path d="M14.3559 142.037C14.4886 142.429 14.8598 142.636 15.2574 142.64C15.6676 142.643 16.0785 142.665 16.4881 142.7C16.5352 143.274 16.5801 143.848 16.6277 144.422C16.6984 145.269 17.7608 145.408 18.1745 144.74C18.5031 144.21 18.8387 143.684 19.1782 143.161C19.7212 143.303 20.2573 143.469 20.7813 143.666C21.1616 143.81 21.5747 143.786 21.862 143.465C22.124 143.173 22.1723 142.693 21.9436 142.367C21.569 141.831 21.1892 141.298 20.8112 140.765C21.2202 140.188 21.6178 139.602 21.9229 138.972C22.0264 138.758 22.0108 138.563 21.9264 138.411C21.9143 138.262 21.8724 138.117 21.7931 137.996C21.5047 137.559 20.9904 137.524 20.5612 137.744L19.2047 138.501C18.6703 137.752 18.136 137.004 17.6022 136.256C17.1121 135.568 15.9365 135.898 16.0084 136.792C16.0974 137.906 16.1894 139.02 16.2796 140.134C15.7561 140.427 15.2327 140.719 14.7087 141.011C14.3686 141.2 14.2364 141.684 14.3559 142.037Z" fill="#8A6FD0"/>
<path d="M251.922 85.8671C252.075 85.5143 251.947 85.1293 251.673 84.8667C251.39 84.595 251.119 84.3111 250.857 84.0181C251.182 83.597 251.509 83.1775 251.835 82.7558C252.314 82.1341 251.663 81.3429 250.96 81.5251C250.401 81.6699 249.84 81.8072 249.278 81.9393C248.99 81.4871 248.722 81.0223 248.481 80.5443C248.307 80.1973 248.006 79.9427 247.606 79.972C247.242 79.9985 246.909 80.2938 246.863 80.6649C246.789 81.2751 246.721 81.8853 246.65 82.4961C246.006 82.6196 245.364 82.7569 244.76 82.9856C244.554 83.0632 244.444 83.2057 244.408 83.3648C244.323 83.474 244.262 83.6004 244.242 83.7343C244.169 84.2209 244.504 84.5818 244.938 84.7139L246.352 85.0891C246.255 85.9481 246.159 86.807 246.062 87.666C245.973 88.4549 246.995 89.0019 247.503 88.3475C248.136 87.5316 248.767 86.7145 249.4 85.8987C249.945 86.0435 250.491 86.1882 251.036 86.333C251.391 86.4278 251.785 86.1859 251.922 85.8671Z" fill="#8A6FD0"/>
<path d="M194.996 10.8565C195.252 10.8117 195.422 10.5968 195.47 10.3446C195.519 10.0843 195.58 9.82517 195.647 9.56833C196.006 9.59649 196.365 9.62637 196.724 9.65394C197.254 9.69474 197.46 9.03341 197.096 8.70246C196.807 8.43989 196.522 8.17329 196.239 7.90439C196.387 7.57344 196.551 7.24939 196.733 6.93625C196.864 6.70872 196.896 6.44385 196.732 6.22839C196.582 6.03246 196.292 5.95317 196.064 6.06521C195.692 6.24907 195.32 6.43695 194.949 6.62311C194.64 6.3048 194.324 5.99224 193.971 5.73483C193.851 5.6475 193.729 5.63773 193.625 5.67623C193.532 5.66876 193.438 5.68083 193.354 5.71932C193.051 5.85837 192.972 6.18185 193.058 6.47717L193.369 7.41659C192.847 7.68031 192.325 7.94461 191.803 8.20834C191.323 8.45023 191.393 9.23164 191.951 9.27646C192.648 9.33219 193.344 9.38677 194.041 9.44193C194.161 9.80448 194.281 10.167 194.402 10.5296C194.482 10.7634 194.764 10.8967 194.996 10.8565Z" fill="#8A6FD0"/>
<path d="M85.8019 255.327C85.9398 255.037 85.8456 254.73 85.6267 254.526C85.4009 254.316 85.1849 254.095 84.9763 253.867C85.2601 253.516 85.5457 253.166 85.8289 252.815C86.2472 252.297 85.7318 251.679 85.1418 251.849C84.6729 251.984 84.2029 252.113 83.7318 252.238C83.5065 251.882 83.2986 251.515 83.1147 251.136C82.9808 250.861 82.7389 250.666 82.4063 250.702C82.1035 250.735 81.8167 250.984 81.7673 251.286C81.6863 251.782 81.6093 252.278 81.5312 252.773C80.9928 252.894 80.455 253.026 79.9454 253.23C79.7724 253.299 79.6759 253.418 79.6409 253.547C79.5673 253.638 79.5122 253.742 79.4909 253.851C79.4145 254.247 79.6817 254.528 80.0379 254.621L81.1997 254.879C81.0922 255.576 80.9848 256.273 80.8762 256.971C80.7768 257.611 81.6082 258.02 82.0506 257.474C82.6028 256.795 83.1532 256.114 83.7048 255.434C84.1529 255.534 84.6017 255.633 85.0498 255.733C85.3429 255.797 85.6778 255.589 85.8019 255.327Z" fill="#8A6FD0"/>
<path d="M288.168 269.804C288.43 269.739 288.59 269.502 288.62 269.238C288.651 268.964 288.694 268.691 288.745 268.419C289.119 268.421 289.493 268.425 289.868 268.426C290.42 268.429 290.584 267.728 290.181 267.412C289.862 267.162 289.546 266.908 289.232 266.65C289.361 266.296 289.506 265.947 289.671 265.609C289.791 265.364 289.804 265.086 289.617 264.876C289.447 264.684 289.14 264.624 288.913 264.758C288.541 264.977 288.17 265.199 287.799 265.42C287.455 265.113 287.105 264.813 286.719 264.573C286.588 264.492 286.461 264.491 286.357 264.538C286.26 264.538 286.163 264.557 286.08 264.603C285.777 264.77 285.718 265.112 285.83 265.41L286.223 266.36C285.702 266.673 285.182 266.986 284.66 267.299C284.182 267.586 284.313 268.39 284.895 268.395C285.621 268.4 286.347 268.403 287.072 268.409C287.224 268.775 287.376 269.142 287.529 269.508C287.627 269.747 287.931 269.863 288.168 269.804Z" fill="#8A6FD0"/>
<path d="M7.69023 13.8885C7.84248 13.5358 7.71436 13.1508 7.44086 12.8882C7.15818 12.6165 6.88756 12.3321 6.62498 12.0396C6.95076 11.6184 7.27769 11.199 7.60289 10.7773C8.08208 10.155 7.43167 9.36442 6.72783 9.54656C6.16935 9.69135 5.60857 9.82867 5.04665 9.96082C4.75822 9.50864 4.48989 9.04381 4.24973 8.56577C4.07563 8.21874 3.77399 7.9642 3.37409 7.99351C3.01039 8.01994 2.67714 8.31469 2.63175 8.68643C2.55763 9.29662 2.48926 9.90738 2.41801 10.5176C1.7745 10.6411 1.13271 10.7784 0.528267 11.0071C0.322572 11.0847 0.212254 11.2272 0.176057 11.3863C0.0915956 11.4955 0.0301184 11.6219 0.0100086 11.7558C-0.0629612 12.2424 0.272584 12.6032 0.706381 12.7354L2.11981 13.1106C2.02328 13.9696 1.92733 14.8285 1.83081 15.6875C1.74175 16.4764 2.76333 17.0234 3.27124 16.3689C3.90441 15.5531 4.53528 14.736 5.16788 13.9201C5.71372 14.0649 6.25898 14.2097 6.80424 14.3545C7.15875 14.4493 7.5529 14.2069 7.69023 13.8885Z" fill="#8A6FD0"/>
<path d="M336.331 59.578C333.492 58.7845 330.732 60.31 328.158 61.3977C325.393 62.5658 322.2 63.9757 320.036 66.1039C318.753 67.3663 319.755 69.4238 321.543 69.1847C324.42 68.8004 327.345 67.3663 329.997 66.2252C332.453 65.1685 335.624 64.3423 337.124 61.9676C337.643 61.1466 337.359 59.8653 336.331 59.578Z" fill="#FFDA4C"/>
<path d="M362.025 112.812C360.015 111.22 357.844 111.525 355.419 111.813C353.071 112.093 350.596 112.272 348.42 113.269C347.496 113.691 347.299 115.247 348.082 115.89C349.874 117.363 352.775 116.846 354.944 116.704C357.429 116.541 360.266 116.656 362.025 114.622C362.436 114.145 362.598 113.266 362.025 112.812Z" fill="#FFDA4C"/>
<path d="M313.612 238.157C312.291 236.585 310.071 235.819 308.404 234.658C307.002 233.681 305.464 232.073 303.626 232.229C303.276 232.259 302.936 232.458 302.846 232.822C302.328 234.941 304.255 236.882 305.657 238.219C307.465 239.944 309.46 241.726 312.021 241.998C314.154 242.225 314.726 239.48 313.612 238.157Z" fill="#FFDA4C"/>
<path d="M250.067 257.043C248.595 254.109 245.318 252.301 243.421 249.665C242.908 248.952 241.835 249.375 242.006 250.261C242.39 252.254 242.664 254.015 243.7 255.822C244.702 257.569 246.037 259.091 247.931 259.822C249.599 260.466 250.735 258.374 250.067 257.043Z" fill="#FFDA4C"/>
<path d="M188.014 267.003C187.948 265.527 187.949 264.036 187.395 262.651C187.094 261.898 186.044 261.37 185.401 262.125C183.303 264.587 182.95 269.151 184.467 271.978C185.221 273.383 187.417 273.028 187.821 271.54C188.229 270.032 188.084 268.544 188.014 267.003Z" fill="#FFDA4C"/>
<path d="M132.363 248.57C131.357 249.449 130.323 250.093 129.407 251.076C128.497 252.053 127.761 253.153 127.025 254.267C125.939 255.91 124.114 258.431 125.447 260.377C125.658 260.685 126.005 260.96 126.407 260.927C128.787 260.729 129.583 258.166 130.483 256.288C131.612 253.931 132.39 251.545 133.377 249.159C133.629 248.549 132.768 248.217 132.363 248.57Z" fill="#FFDA4C"/>
<path d="M80.5099 227.248C77.8589 226.862 75.5486 227.816 73.1923 228.955C71.2686 229.886 67.9729 231.652 68.1953 234.202C68.2453 234.778 68.544 235.175 69.0853 235.37C71.1824 236.129 73.5284 234.131 75.1286 233.003C77.1355 231.589 79.3062 230.457 80.8363 228.486C81.131 228.107 81.1293 227.339 80.5099 227.248Z" fill="#FFDA4C"/>
<path d="M39.1989 113.458C36.7794 112.02 33.8324 112.631 31.1423 112.648C28.886 112.662 26.0752 112.185 24.2539 113.705C23.9505 113.958 24.0476 114.392 24.2539 114.657C25.8184 116.671 29.3313 116.538 31.6778 116.65C34.4191 116.781 37.1919 117.019 39.4235 115.203C39.9923 114.74 39.7625 113.793 39.1989 113.458Z" fill="#FFDA4C"/>
<path d="M54.2517 62.9656C52.605 60.3766 50.159 59.2522 47.3448 58.1749C45.3959 57.4285 41.6882 55.5836 39.7738 57.0039C39.5905 57.1401 39.5147 57.3102 39.5572 57.536C39.9732 59.7555 43.4567 60.915 45.2511 61.8894C47.8642 63.3086 50.3194 64.6445 53.3508 64.5353C54.1092 64.5083 54.6929 63.6597 54.2517 62.9656Z" fill="#FFDA4C"/>
<path d="M89.6722 27.9612C89.139 25.0539 86.6655 22.862 84.6545 20.8757C82.9486 19.1905 80.9313 16.2838 78.3504 16.1895C77.8235 16.1706 77.4316 16.6377 77.4075 17.1324C77.2828 19.6898 80.147 22.0443 81.6627 23.8674C83.4784 26.0508 85.3991 28.5932 88.2639 29.3695C89.162 29.6125 89.8256 28.7995 89.6722 27.9612Z" fill="#FFDA4C"/>
<path d="M296.591 18.6284C293.748 20.7842 290.695 22.659 287.813 24.7728C285.188 26.6982 281.355 28.7977 279.815 31.7509C279.524 32.3106 279.869 33.2689 280.629 33.1695C284.585 32.653 288.454 29.2108 291.685 27.0102C294.408 25.1555 298.235 23.3876 298.466 19.7046C298.52 18.8255 297.338 18.0619 296.591 18.6284Z" fill="#FFDA4C"/>
</g>
<defs>
<radialGradient id="paint0_radial_714_1049" cx="0" cy="0" r="1" gradientUnits="userSpaceOnUse" gradientTransform="translate(188 279) rotate(-90) scale(279 375)">
<stop offset="0.33642" stop-color="#D9D9D9" stop-opacity="0"/>
<stop offset="1" stop-color="#737373"/>
</radialGradient>
</defs>
</svg>
