<svg width="123" height="31" viewBox="0 0 123 31" fill="none" xmlns="http://www.w3.org/2000/svg">
<rect x="0.5" y="28" width="122" height="3" rx="1.5" fill="#0E0B1E"/>
<g filter="url(#filter0_i_714_1085)">
<path d="M5.5 6C5.5 2.68629 8.18629 0 11.5 0H111.5C114.814 0 117.5 2.68629 117.5 6V31H5.5V6Z" fill="#EACAA4"/>
</g>
<path d="M33.718 21V9.36364H41.1726V11.1307H35.826V14.2898H40.6612V16.0568H35.826V21H33.718ZM42.8771 21V12.2727H44.8714V13.7273H44.9624C45.1214 13.2235 45.3942 12.8352 45.7805 12.5625C46.1707 12.286 46.6158 12.1477 47.1158 12.1477C47.2294 12.1477 47.3563 12.1534 47.4964 12.1648C47.6404 12.1723 47.7597 12.1856 47.8544 12.2045V14.0966C47.7673 14.0663 47.629 14.0398 47.4396 14.017C47.254 13.9905 47.0741 13.9773 46.8999 13.9773C46.5249 13.9773 46.1877 14.0587 45.8885 14.2216C45.593 14.3807 45.3601 14.6023 45.1896 14.8864C45.0192 15.1705 44.9339 15.4981 44.9339 15.8693V21H42.8771ZM49.2209 21V12.2727H51.2777V21H49.2209ZM50.255 11.0341C49.9292 11.0341 49.6489 10.9261 49.4141 10.7102C49.1792 10.4905 49.0618 10.2273 49.0618 9.92045C49.0618 9.60985 49.1792 9.34659 49.4141 9.13068C49.6489 8.91098 49.9292 8.80114 50.255 8.80114C50.5845 8.80114 50.8648 8.91098 51.0959 9.13068C51.3307 9.34659 51.4482 9.60985 51.4482 9.92045C51.4482 10.2273 51.3307 10.4905 51.0959 10.7102C50.8648 10.9261 50.5845 11.0341 50.255 11.0341ZM57.2564 21.1705C56.3814 21.1705 55.6257 20.9886 54.9893 20.625C54.3568 20.2576 53.87 19.7386 53.5291 19.0682C53.1882 18.3939 53.0178 17.6004 53.0178 16.6875C53.0178 15.7898 53.1882 15.0019 53.5291 14.3239C53.8738 13.642 54.3549 13.1117 54.9723 12.733C55.5897 12.3504 56.3151 12.1591 57.1484 12.1591C57.6863 12.1591 58.1939 12.2462 58.6712 12.4205C59.1522 12.5909 59.5765 12.8561 59.9439 13.2159C60.3151 13.5758 60.6068 14.0341 60.8189 14.5909C61.031 15.1439 61.1371 15.803 61.1371 16.5682V17.1989H53.9837V15.8125H59.1655C59.1617 15.4186 59.0765 15.0682 58.9098 14.7614C58.7431 14.4508 58.5102 14.2064 58.2109 14.0284C57.9155 13.8504 57.5708 13.7614 57.1768 13.7614C56.7564 13.7614 56.3871 13.8636 56.0689 14.0682C55.7507 14.2689 55.5026 14.5341 55.3246 14.8636C55.1503 15.1894 55.0613 15.5473 55.0575 15.9375V17.1477C55.0575 17.6553 55.1503 18.0909 55.3359 18.4545C55.5215 18.8144 55.781 19.0909 56.1143 19.2841C56.4477 19.4735 56.8378 19.5682 57.2848 19.5682C57.584 19.5682 57.8549 19.5265 58.0973 19.4432C58.3397 19.3561 58.55 19.2292 58.728 19.0625C58.906 18.8958 59.0405 18.6894 59.1314 18.4432L61.0518 18.6591C60.9306 19.1667 60.6996 19.6098 60.3587 19.9886C60.0215 20.3636 59.5897 20.6553 59.0632 20.8636C58.5367 21.0682 57.9344 21.1705 57.2564 21.1705ZM64.9339 15.8864V21H62.8771V12.2727H64.843V13.7557H64.9453C65.1461 13.267 65.4661 12.8788 65.9055 12.5909C66.3487 12.303 66.8961 12.1591 67.5476 12.1591C68.1499 12.1591 68.6745 12.2879 69.1214 12.5455C69.5722 12.803 69.9207 13.1761 70.1669 13.6648C70.4169 14.1534 70.54 14.7462 70.5362 15.4432V21H68.4794V15.7614C68.4794 15.178 68.3279 14.7216 68.0249 14.392C67.7256 14.0625 67.3108 13.8977 66.7805 13.8977C66.4207 13.8977 66.1006 13.9773 65.8203 14.1364C65.5438 14.2917 65.326 14.517 65.1669 14.8125C65.0116 15.108 64.9339 15.4659 64.9339 15.8864ZM75.8658 21.1534C75.1802 21.1534 74.5665 20.9773 74.0249 20.625C73.4832 20.2727 73.0552 19.7614 72.7408 19.0909C72.4264 18.4205 72.2692 17.6061 72.2692 16.6477C72.2692 15.678 72.4283 14.8598 72.7464 14.1932C73.0684 13.5227 73.5021 13.017 74.0476 12.6761C74.593 12.3314 75.201 12.1591 75.8714 12.1591C76.3828 12.1591 76.8033 12.2462 77.1328 12.4205C77.4624 12.5909 77.7237 12.7973 77.9169 13.0398C78.1101 13.2784 78.2597 13.5038 78.3658 13.7159H78.451V9.36364H80.5135V21H78.4908V19.625H78.3658C78.2597 19.8371 78.1063 20.0625 77.9055 20.3011C77.7048 20.536 77.4396 20.7367 77.1101 20.9034C76.7805 21.0701 76.3658 21.1534 75.8658 21.1534ZM76.4396 19.4659C76.8752 19.4659 77.2464 19.3485 77.5533 19.1136C77.8601 18.875 78.093 18.5436 78.2521 18.1193C78.4112 17.6951 78.4908 17.2008 78.4908 16.6364C78.4908 16.072 78.4112 15.5814 78.2521 15.1648C78.0968 14.7481 77.8658 14.4242 77.5589 14.1932C77.2559 13.9621 76.8828 13.8466 76.4396 13.8466C75.9813 13.8466 75.5987 13.9659 75.2919 14.2045C74.9851 14.4432 74.754 14.7727 74.5987 15.1932C74.4434 15.6136 74.3658 16.0947 74.3658 16.6364C74.3658 17.1818 74.4434 17.6686 74.5987 18.0966C74.7578 18.5208 74.9908 18.8561 75.2976 19.1023C75.6082 19.3447 75.9889 19.4659 76.4396 19.4659ZM89.603 14.5795L87.728 14.7841C87.675 14.5947 87.5821 14.4167 87.4496 14.25C87.3208 14.0833 87.1465 13.9489 86.9268 13.8466C86.7071 13.7443 86.4382 13.6932 86.12 13.6932C85.692 13.6932 85.3321 13.786 85.0405 13.9716C84.7526 14.1572 84.6106 14.3977 84.6143 14.6932C84.6106 14.947 84.7034 15.1534 84.8928 15.3125C85.0859 15.4716 85.4041 15.6023 85.8473 15.7045L87.3359 16.0227C88.1617 16.2008 88.7753 16.483 89.1768 16.8693C89.5821 17.2557 89.7867 17.7614 89.7905 18.3864C89.7867 18.9356 89.6257 19.4205 89.3075 19.8409C88.9931 20.2576 88.5556 20.5833 87.995 20.8182C87.4344 21.053 86.7905 21.1705 86.0632 21.1705C84.995 21.1705 84.1352 20.947 83.4837 20.5C82.8321 20.0492 82.4439 19.4223 82.3189 18.6193L84.3246 18.4261C84.4155 18.8201 84.6087 19.1174 84.9041 19.3182C85.1996 19.5189 85.584 19.6193 86.0575 19.6193C86.5462 19.6193 86.9382 19.5189 87.2337 19.3182C87.5329 19.1174 87.6825 18.8693 87.6825 18.5739C87.6825 18.3239 87.5859 18.1174 87.3928 17.9545C87.2034 17.7917 86.9079 17.6667 86.5064 17.5795L85.0178 17.267C84.1806 17.0928 83.5613 16.7992 83.1598 16.3864C82.7583 15.9697 82.5594 15.4432 82.5632 14.8068C82.5594 14.2689 82.7053 13.803 83.0007 13.4091C83.3 13.0114 83.7147 12.7045 84.245 12.4886C84.7791 12.2689 85.3946 12.1591 86.0916 12.1591C87.1143 12.1591 87.9193 12.3769 88.5064 12.8125C89.0973 13.2481 89.4628 13.8371 89.603 14.5795Z" fill="#380000"/>
<defs>
<filter id="filter0_i_714_1085" x="5.5" y="-2" width="112" height="33" filterUnits="userSpaceOnUse" color-interpolation-filters="sRGB">
<feFlood flood-opacity="0" result="BackgroundImageFix"/>
<feBlend mode="normal" in="SourceGraphic" in2="BackgroundImageFix" result="shape"/>
<feColorMatrix in="SourceAlpha" type="matrix" values="0 0 0 0 0 0 0 0 0 0 0 0 0 0 0 0 0 0 127 0" result="hardAlpha"/>
<feOffset dy="-2"/>
<feGaussianBlur stdDeviation="2"/>
<feComposite in2="hardAlpha" operator="arithmetic" k2="-1" k3="1"/>
<feColorMatrix type="matrix" values="0 0 0 0 0.054902 0 0 0 0 0.0431373 0 0 0 0 0.117647 0 0 0 0.6 0"/>
<feBlend mode="normal" in2="shape" result="effect1_innerShadow_714_1085"/>
</filter>
</defs>
</svg>
