<svg width="42" height="40" viewBox="0 0 42 40" fill="none" xmlns="http://www.w3.org/2000/svg">
<path d="M11.876 12.9414V16.1758L13.3514 18.1242V20.789" stroke="#F9BA0B" stroke-miterlimit="10"/>
<path d="M11.2464 21.7761C11.2464 21.7761 11.2153 25.0193 14.8892 26.1492M30.7362 21.7761C30.7362 21.7761 30.7674 25.0193 27.0935 26.1492M20.98 0V4.51293M26.0219 1.56249L23.5423 4.51293M16.0208 1.56249L18.5004 4.51293M12.7379 27.1404C10.0327 27.9701 8.76657 28.6126 8.0069 30.0849M27.8213 20.1744V18.1233L29.2967 16.1749V12.003M5.78986 22.4771C6.05932 21.8842 6.83131 20.0779 6.83131 18.8772C6.01882 18.8772 5.35758 18.26 5.34684 17.4928V17.4733C5.33609 16.6913 6.00394 16.0522 6.83048 16.0522C6.83131 16.0522 6.83131 15.2842 6.83131 15.2842C6.83131 13.9897 7.94135 12.9405 9.31093 12.9405H11.8641C12.6857 12.9405 13.3519 12.3108 13.3519 11.5343V9.72413C13.3519 9.72413 11.8765 10.4273 10.373 10.4273H4.83273C3.11104 10.4273 2.90606 12.046 2.90606 12.046C1.57698 12.046 0.5 13.3764 0.5 14.6327C0.5 19.1756 4.46079 21.9147 5.46834 22.5373L5.78986 22.4771ZM34.3428 15.1146C34.3426 15.1146 34.3426 14.3466 34.3426 14.3466C34.3426 13.0521 33.2324 12.0029 31.8629 12.0029H29.2971C29.2971 9.99265 32.5926 9.17711 34.0611 9.17711C36.8 9.17711 41.5 10.447 41.5 14.6458C41.5 19.5327 37.0603 20.1727 37.0603 22.5962C35.5219 22.5962 34.3425 20.7993 34.3425 17.9396C35.1546 17.9396 35.8159 17.3227 35.8265 16.5552L35.8267 16.5356C35.8377 15.7538 35.1701 15.1146 34.3428 15.1146Z" stroke="#F9BA0B" stroke-miterlimit="10"/>
<path d="M0.5 31.5595V28.2978C0.5 25.8845 2.37873 22.3603 7.25284 22.3603C15.9109 22.3603 17.5962 15.5955 17.9408 12.2979C18.0442 11.3042 18.7674 8.38231 18.7674 8.38231C18.7674 8.38231 19.3022 7.05811 20.9891 7.05811C22.6761 7.05811 23.2109 8.38231 23.2109 8.38231C23.2109 8.38231 23.6076 9.9862 23.8556 11.2213M0.5 32.7313V39.9984M41.4783 37.4844V39.9984M24.0482 12.3932C24.416 15.7237 26.1501 22.3603 34.7254 22.3603C39.6004 22.3603 41.4783 25.8845 41.4783 28.2978V36.3125" stroke="#F9BA0B" stroke-miterlimit="10"/>
<path d="M16.043 39.9999C16.043 30.671 12.7368 27.1406 12.7368 27.1406C19.712 24.8242 20.6262 16.9876 20.994 12.2993" stroke="#F9BA0B" stroke-miterlimit="10"/>
<path d="M25.935 39.9984C25.935 30.6696 29.2412 27.1392 29.2412 27.1392M29.2412 27.1392C22.266 24.8228 21.3518 16.9861 20.984 12.2979M29.2412 27.1392C31.9463 27.9689 33.2125 28.6114 33.9722 30.0837M20.9957 13.3081V7.05811M6.50903 36.6164H7.74885M8.98866 36.6164H10.2285" stroke="#F9BA0B" stroke-miterlimit="10"/>
</svg>
