<svg width="47" height="48" viewBox="0 0 47 48" fill="none" xmlns="http://www.w3.org/2000/svg">
<path d="M24.75 1.14434C23.9765 0.697756 23.0235 0.697756 22.25 1.14434L4.33142 11.4896C3.55791 11.9362 3.08142 12.7615 3.08142 13.6547V34.3453C3.08142 35.2385 3.55791 36.0638 4.33142 36.5104L22.25 46.8557C23.0235 47.3022 23.9765 47.3022 24.75 46.8557L42.6686 36.5104C43.4421 36.0638 43.9186 35.2385 43.9186 34.3453V13.6547C43.9186 12.7615 43.4421 11.9362 42.6686 11.4896L24.75 1.14434Z" stroke="url(#paint0_linear_582_1118)" stroke-linejoin="round"/>
<path fill-rule="evenodd" clip-rule="evenodd" d="M23.8205 4.26795C23.2017 3.91068 22.4393 3.91068 21.8205 4.26795L6.5 13.1132C5.8812 13.4705 5.5 14.1308 5.5 14.8453V32.5359C5.5 33.2504 5.8812 33.9107 6.5 34.268L21.8205 43.1132C22.4393 43.4705 23.2017 43.4705 23.8205 43.1132L39.141 34.268C39.7598 33.9107 40.141 33.2504 40.141 32.5359V14.8453C40.141 14.1308 39.7598 13.4705 39.141 13.1132L23.8205 4.26795ZM10.1342 29.0148C10.0117 30.2815 11.0261 31.3872 12.3352 31.3872C12.6887 31.3872 13.0369 31.304 13.3505 31.145C13.6642 30.986 13.9341 30.7558 14.138 30.474L17.3611 26.0205H16.2655C13.7817 26.0205 11.6509 24.5119 10.7768 22.3707L10.1342 29.0148ZM10.3566 20.4068L9.52978 28.9563C9.3717 30.5911 10.679 31.9944 12.3352 31.9944C12.7838 31.9944 13.226 31.889 13.6252 31.6866C14.0243 31.4843 14.3689 31.1907 14.6299 30.8301L18.1108 26.0205H26.5302L30.011 30.8301L30.011 30.8301C30.2721 31.1907 30.6167 31.4843 31.0159 31.6866C31.415 31.889 31.8573 31.9944 32.3058 31.9944C33.962 31.9944 35.2692 30.5911 35.1112 28.9563L34.2845 20.4079C34.2868 20.3402 34.288 20.2721 34.288 20.2038C34.288 16.9864 31.636 14.387 28.3755 14.387H19.4807C19.313 14.387 19.177 14.523 19.177 14.6907C19.177 14.8584 19.313 14.9943 19.4807 14.9943H28.3755C31.2715 14.9943 33.6177 17.2699 33.6795 20.0897C33.6609 20.1343 33.6527 20.1841 33.6577 20.2356L33.676 20.4254C33.5579 23.1952 31.2346 25.4133 28.3755 25.4133H16.2655C13.4061 25.4133 11.0826 23.1947 10.965 20.4243L10.9833 20.2354C10.9882 20.1841 10.9801 20.1344 10.9616 20.0899C11.018 17.5083 12.9889 15.3831 15.5438 15.0421C15.71 15.0199 15.8268 14.8672 15.8046 14.701C15.7824 14.5348 15.6297 14.418 15.4635 14.4402C12.5814 14.8248 10.3531 17.2547 10.3531 20.2038C10.3531 20.2717 10.3542 20.3394 10.3566 20.4068ZM33.8642 22.371C32.99 24.5121 30.8593 26.0205 28.3755 26.0205H27.2798L30.503 30.474L30.503 30.474C30.7069 30.7558 30.9768 30.986 31.2905 31.145C31.6042 31.304 31.9523 31.3872 32.3058 31.3872C33.6149 31.3872 34.6292 30.2815 34.5067 29.0148L33.8642 22.371ZM25.0921 20.2311C25.0921 20.3988 25.228 20.5347 25.3957 20.5347H27.4964V22.5396C27.4964 22.7073 27.6323 22.8433 27.8 22.8433C27.9677 22.8433 28.1036 22.7073 28.1036 22.5396V20.5347H30.1481C30.3158 20.5347 30.4518 20.3988 30.4518 20.2311C30.4518 20.0634 30.3158 19.9275 30.1481 19.9275H28.1036V17.8683C28.1036 17.7006 27.9677 17.5647 27.8 17.5647C27.6323 17.5647 27.4964 17.7006 27.4964 17.8683V19.9275H25.3957C25.228 19.9275 25.0921 20.0634 25.0921 20.2311ZM18.6141 18.1266C18.6141 18.3883 18.5083 18.6393 18.3201 18.8243C18.1318 19.0094 17.8765 19.1133 17.6103 19.1133C17.344 19.1133 17.0887 19.0094 16.9004 18.8243C16.7122 18.6393 16.6064 18.3883 16.6064 18.1266C16.6064 17.8649 16.7122 17.6139 16.9004 17.4289C17.0887 17.2438 17.344 17.1399 17.6103 17.1399C17.8765 17.1399 18.1318 17.2438 18.3201 17.4289C18.5083 17.6139 18.6141 17.8649 18.6141 18.1266ZM18.3201 22.9792C18.5083 22.7942 18.6141 22.5432 18.6141 22.2815C18.6141 22.0198 18.5083 21.7688 18.3201 21.5838C18.1318 21.3987 17.8765 21.2948 17.6103 21.2948C17.344 21.2948 17.0887 21.3987 16.9004 21.5838C16.7122 21.7688 16.6064 22.0198 16.6064 22.2815C16.6064 22.5432 16.7122 22.7942 16.9004 22.9792C17.0887 23.1643 17.344 23.2682 17.6103 23.2682C17.8765 23.2682 18.1318 23.1643 18.3201 22.9792ZM19.724 21.1905C19.4578 21.1905 19.2024 21.0866 19.0142 20.9015C18.8259 20.7165 18.7202 20.4655 18.7202 20.2038C18.7202 19.9421 18.8259 19.6911 19.0142 19.5061C19.2024 19.321 19.4578 19.2171 19.724 19.2171C19.9903 19.2171 20.2456 19.321 20.4339 19.5061C20.6221 19.6911 20.7279 19.9421 20.7279 20.2038C20.7279 20.4655 20.6221 20.7165 20.4339 20.9015C20.2456 21.0866 19.9903 21.1905 19.724 21.1905ZM14.7869 20.9015C14.9752 21.0865 15.2306 21.1905 15.4968 21.1905C15.7631 21.1905 16.0185 21.0865 16.2068 20.9015C16.395 20.7164 16.5008 20.4654 16.5008 20.2037C16.5008 19.942 16.395 19.691 16.2068 19.5059C16.0185 19.3208 15.7631 19.2169 15.4968 19.2169C15.2306 19.2169 14.9752 19.3208 14.7869 19.5059C14.5986 19.691 14.4929 19.942 14.4929 20.2037C14.4929 20.4654 14.5986 20.7164 14.7869 20.9015Z" fill="#F9BA0B"/>
<defs>
<linearGradient id="paint0_linear_582_1118" x1="23.5" y1="1" x2="23.5" y2="47" gradientUnits="userSpaceOnUse">
<stop stop-color="#F9BA0B"/>
<stop offset="1" stop-color="#040612"/>
</linearGradient>
</defs>
</svg>
