<svg width="46" height="46" viewBox="0 0 46 46" fill="none" xmlns="http://www.w3.org/2000/svg">
<path d="M10.1811 19.2058L9.33206 27.9852C9.19177 29.436 10.3526 30.6904 11.8353 30.6904C12.2363 30.6904 12.6315 30.5961 12.9879 30.4154C13.3443 30.2347 13.6515 29.9729 13.884 29.6517L17.4556 24.7167" stroke="#F9BA0B" stroke-width="0.607275" stroke-miterlimit="10" stroke-linecap="round" stroke-linejoin="round"/>
<path d="M33.46 19.206L34.309 27.9852C34.4493 29.436 33.2885 30.6904 31.8059 30.6904C31.4048 30.6904 31.0096 30.5961 30.6532 30.4154C30.2968 30.2347 29.9895 29.9729 29.757 29.6517L26.1855 24.7168" stroke="#F9BA0B" stroke-width="0.607275" stroke-miterlimit="10" stroke-linecap="round" stroke-linejoin="round"/>
<path d="M18.9807 13.6906H27.8756C30.9733 13.6906 33.4844 16.1589 33.4844 19.2037C33.4844 22.2485 30.9733 24.7168 27.8756 24.7168H15.7656C12.6679 24.7168 10.1567 22.2485 10.1567 19.2037C10.1567 16.4128 12.2665 14.1064 15.0037 13.741" stroke="#F9BA0B" stroke-width="0.607275" stroke-miterlimit="10" stroke-linecap="round" stroke-linejoin="round"/>
<path d="M29.6482 19.231H24.8958" stroke="#F9BA0B" stroke-width="0.607275" stroke-miterlimit="10" stroke-linecap="round" stroke-linejoin="round"/>
<path d="M27.3 21.5396V16.8682" stroke="#F9BA0B" stroke-width="0.607275" stroke-miterlimit="10" stroke-linecap="round" stroke-linejoin="round"/>
<path d="M17.6073 17.6077C17.738 17.4792 17.8105 17.306 17.8105 17.1266C17.8105 16.9471 17.738 16.7739 17.6073 16.6454C17.4764 16.5167 17.2977 16.4435 17.1103 16.4435C16.9229 16.4435 16.7442 16.5167 16.6133 16.6454C16.4826 16.7739 16.4101 16.9471 16.4101 17.1266C16.4101 17.306 16.4826 17.4792 16.6133 17.6077C16.7442 17.7364 16.9229 17.8096 17.1103 17.8096C17.2977 17.8096 17.4764 17.7364 17.6073 17.6077Z" fill="#F9BA0B" stroke="#F9BA0B" stroke-width="0.607275"/>
<path d="M17.6073 21.7625C17.738 21.634 17.8105 21.4608 17.8105 21.2813C17.8105 21.1019 17.738 20.9287 17.6073 20.8002C17.4764 20.6715 17.2977 20.5983 17.1103 20.5983C16.9229 20.5983 16.7442 20.6715 16.6133 20.8002C16.4826 20.9287 16.4101 21.1019 16.4101 21.2813C16.4101 21.4608 16.4826 21.634 16.6133 21.7625C16.7442 21.8912 16.9229 21.9644 17.1103 21.9644C17.2977 21.9644 17.4764 21.8912 17.6073 21.7625Z" fill="#F9BA0B" stroke="#F9BA0B" stroke-width="0.607275"/>
<path d="M18.7271 19.6849C18.858 19.8136 19.0367 19.8868 19.2241 19.8868C19.4115 19.8868 19.5901 19.8136 19.7211 19.6849C19.8518 19.5564 19.9243 19.3832 19.9243 19.2037C19.9243 19.0242 19.8518 18.8511 19.7211 18.7225C19.5901 18.5938 19.4115 18.5206 19.2241 18.5206C19.0367 18.5206 18.858 18.5938 18.7271 18.7225C18.5963 18.8511 18.5239 19.0242 18.5239 19.2037C18.5239 19.3832 18.5963 19.5564 18.7271 19.6849Z" fill="#F9BA0B" stroke="#F9BA0B" stroke-width="0.607275"/>
<path d="M14.4998 19.6848C14.6308 19.8136 14.8095 19.8868 14.9969 19.8868C15.1843 19.8868 15.363 19.8136 15.494 19.6848C15.6247 19.5563 15.6972 19.3831 15.6972 19.2036C15.6972 19.0241 15.6247 18.8509 15.494 18.7223C15.363 18.5936 15.1843 18.5204 14.9969 18.5204C14.8095 18.5204 14.6308 18.5936 14.4998 18.7223C14.369 18.8509 14.2966 19.0241 14.2966 19.2036C14.2966 19.3831 14.369 19.5563 14.4998 19.6848Z" fill="#F9BA0B" stroke="#F9BA0B" stroke-width="0.607275"/>
</svg>
