<svg width="50" height="50" viewBox="0 0 50 50" fill="none" xmlns="http://www.w3.org/2000/svg">
<path d="M0.119135 12.0771L7.63589 38.3628C7.72603 38.6744 7.86428 38.9651 8.04412 39.2212C8.28965 39.5754 8.60766 39.8554 8.97024 40.0369L28.5792 49.7709C29.0106 49.985 29.4874 50.0509 29.9512 49.9607C30.3054 49.8922 30.6419 49.7344 30.9358 49.4988L48.9715 35.0545C49.2892 34.8 49.5485 34.4621 49.7275 34.0694C49.9065 33.6766 50 33.2405 50 32.7979L50 10.2943C50 9.73287 49.8497 9.18481 49.5692 8.72336C49.2887 8.2619 48.8913 7.90903 48.4302 7.71189L30.8017 0.175585C30.7012 0.132746 30.5983 0.100382 30.4947 0.0729845C30.3165 0.026098 30.1347 -5.96046e-06 29.9523 -5.96046e-06C29.7407 -5.96046e-06 29.5289 0.0316141 29.3225 0.0952318L1.78978 8.55952C1.47283 8.65689 1.1766 8.82679 0.919103 9.05887C0.661611 9.29095 0.448259 9.58036 0.292036 9.90946C0.135717 10.2385 0.0397775 10.6003 0.0100534 10.973C-0.0196707 11.3456 0.0174425 11.7213 0.119135 12.0771Z" fill="#FFD700"/>
<path d="M8.96952 40.0367L28.5785 49.7709C29.0099 49.985 29.4867 50.0509 29.9504 49.9607L25.488 23.4786L8.04339 39.2212C8.28889 39.5754 8.60691 39.8554 8.96952 40.0367Z" fill="#FEE665"/>
<path d="M0.119211 12.077L7.63597 38.3627C7.72611 38.6743 7.86436 38.965 8.04419 39.2212L25.4888 23.4786L30.4946 0.0731231C30.3164 0.0262366 30.1346 0.000128839 29.9522 0.000128839C29.7406 0.000128839 29.5288 0.0317565 29.3224 0.0953742L1.78969 8.55966C1.47277 8.65704 1.17654 8.82693 0.919051 9.05898C0.661558 9.29102 0.448179 9.58038 0.291907 9.90943C0.135634 10.2385 0.0397322 10.6003 0.0100424 10.973C-0.0196455 11.3456 0.0174982 11.7213 0.119211 12.077Z" fill="#D3B200"/>
</svg>
