<svg width="39" height="39" viewBox="0 0 39 39" fill="none" xmlns="http://www.w3.org/2000/svg">
<path d="M20.4914 12.6095C21.3278 11.6344 21.7885 10.3363 21.7885 8.95442C21.7885 6.11015 19.8077 3.79616 17.373 3.79616C14.9383 3.79616 12.9575 6.11015 12.9575 8.95442C12.9575 10.3369 13.42 11.6364 14.2598 12.6134C14.333 12.6986 14.383 12.8073 14.4033 12.9257C14.4236 13.0441 14.4134 13.1669 14.374 13.2785C14.3345 13.3901 14.2676 13.4855 14.1817 13.5526C14.0957 13.6198 13.9947 13.6556 13.8914 13.6556C13.823 13.6557 13.7552 13.64 13.692 13.6095C13.6288 13.579 13.5713 13.5343 13.5229 13.4778C12.4849 12.2702 11.9133 10.6637 11.9133 8.95442C11.9133 5.43753 14.3625 2.57627 17.373 2.57627C20.3835 2.57627 22.8327 5.43746 22.8327 8.95442C22.8327 10.6627 22.2631 12.2674 21.229 13.4731C21.1804 13.5296 21.1228 13.5745 21.0595 13.6051C20.9961 13.6357 20.9282 13.6513 20.8596 13.6513C20.791 13.6512 20.7232 13.6353 20.6598 13.6046C20.5965 13.5739 20.539 13.5288 20.4906 13.4721C20.4421 13.4154 20.4037 13.3482 20.3776 13.2741C20.3514 13.2001 20.338 13.1208 20.338 13.0407C20.3381 12.9605 20.3517 12.8812 20.378 12.8073C20.4043 12.7333 20.4428 12.6661 20.4914 12.6095ZM28.4315 18.9404C27.7725 18.4946 26.9566 18.4912 26.3021 18.9316C26.2924 18.938 26.2833 18.9455 26.2737 18.9522C26.1582 17.4579 25.1166 16.677 24.086 16.6759H24.0841C23.4737 16.6759 22.8593 16.9498 22.4355 17.4836C22.3718 17.3955 22.3028 17.3129 22.2289 17.2364C21.8294 16.8239 21.2971 16.5965 20.7302 16.5959H20.7281C20.3109 16.5959 19.9126 16.7193 19.5719 16.9485L19.5768 8.95663C19.5768 7.53941 18.5915 6.38646 17.3814 6.38646H17.377C16.7933 6.38646 16.2429 6.65331 15.8269 7.13837C15.41 7.6245 15.1803 8.26868 15.1803 8.95183L15.1722 22.156L14.0371 20.4096C13.3508 19.3533 12.2926 18.7905 11.2751 18.9407C10.5106 19.0536 9.89798 19.5552 9.63647 20.2823C9.46404 20.7616 9.30363 21.7637 10.1658 23.09C11.9387 25.8193 12.536 27.8069 13.063 29.5605C13.4942 30.9953 13.8666 32.2345 14.7767 33.4512C15.5724 34.5143 15.9544 35.7117 15.9444 37.113L15.937 38.3859C15.9365 38.466 15.9496 38.5455 15.9754 38.6197C16.0012 38.6939 16.0393 38.7614 16.0874 38.8184C16.1356 38.8755 16.1929 38.9208 16.256 38.952C16.3192 38.9832 16.387 38.9995 16.4556 39H16.4592C16.597 39 16.7293 38.9363 16.8271 38.8228C16.9249 38.7093 16.9803 38.5552 16.9813 38.3942L16.9886 37.1222C17.0007 35.4334 16.5209 33.9282 15.5628 32.6483C14.7852 31.6087 14.46 30.5264 14.0482 29.1564C13.5231 27.4091 12.8697 25.2345 10.9976 22.3525C10.5936 21.7311 10.4521 21.1637 10.5991 20.7549C10.7144 20.4344 11.0162 20.2086 11.4061 20.151C11.9141 20.0761 12.6538 20.2982 13.2054 21.1473L15.2774 24.335C15.3435 24.4366 15.4352 24.5114 15.5397 24.5489C15.6441 24.5864 15.756 24.5847 15.8595 24.5441C15.9631 24.5034 16.0531 24.4258 16.1169 24.3222C16.1808 24.2186 16.2152 24.0942 16.2153 23.9666L16.2245 8.95228C16.2245 8.59508 16.3453 8.25748 16.5646 8.00183C16.7834 7.74672 17.0718 7.60636 17.378 7.60636H17.3804C18.0156 7.60636 18.5325 8.21211 18.5325 8.95617L18.5251 21.2751C18.525 21.3552 18.5385 21.4345 18.5647 21.5085C18.5909 21.5826 18.6293 21.6498 18.6778 21.7065C18.7262 21.7632 18.7837 21.8082 18.8471 21.8389C18.9104 21.8696 18.9783 21.8854 19.0469 21.8855H19.0472C19.1856 21.8855 19.3183 21.8213 19.4163 21.707C19.5142 21.5927 19.5692 21.4377 19.5693 21.276L19.5706 19.2058C19.5721 19.1872 19.573 19.1685 19.573 19.1494C19.5734 18.7227 19.6905 18.386 19.9212 18.1487C20.1268 17.9371 20.4209 17.8159 20.7281 17.8159H20.7293C21.0372 17.8162 21.3318 17.9382 21.5376 18.1506C21.7682 18.3886 21.885 18.7258 21.8847 19.1532V21.2755C21.8847 21.4373 21.9397 21.5924 22.0376 21.7068C22.1355 21.8212 22.2683 21.8855 22.4068 21.8855C22.5453 21.8855 22.6781 21.8212 22.776 21.7068C22.8739 21.5924 22.9289 21.4373 22.9289 21.2755V19.2294C22.9297 18.1766 23.655 17.8959 24.0842 17.8959H24.0851C24.393 17.8961 24.6876 18.0182 24.8934 18.2306C25.1241 18.4685 25.2408 18.8058 25.2406 19.2332V21.2755C25.2406 21.4372 25.2955 21.5923 25.3933 21.7066C25.4911 21.821 25.6238 21.8853 25.7622 21.8855H25.7626C25.901 21.8855 26.0337 21.8213 26.1316 21.707C26.2295 21.5927 26.2846 21.4377 26.2847 21.276C26.2851 20.6792 26.4764 20.2221 26.8233 19.9887C27.1504 19.7685 27.5762 19.7715 27.9081 19.9961C28.2621 20.2355 28.4566 20.6911 28.4558 21.2793L28.4521 27.1821C28.4518 29.1897 27.8288 31.1292 26.6982 32.6412C25.7386 33.9206 25.2581 35.4274 25.2701 37.1191L25.2775 38.3942C25.2784 38.5552 25.3338 38.7093 25.4317 38.8228C25.5295 38.9363 25.6617 39 25.7996 39H25.8032C25.9417 38.9989 26.0741 38.9336 26.1713 38.8184C26.2685 38.7033 26.3226 38.5477 26.3217 38.3859L26.3143 37.1099C26.3043 35.7061 26.6868 34.5074 27.4842 33.4444C28.7811 31.7101 29.496 29.4855 29.4963 27.1826L29.5 21.2808C29.5014 20.2538 29.112 19.4008 28.4315 18.9404ZM12.3355 15.4818C12.4388 15.4818 12.5399 15.4459 12.6258 15.3787C12.7117 15.3116 12.7786 15.2161 12.8181 15.1045C12.8575 14.9928 12.8677 14.87 12.8473 14.7516C12.8269 14.6332 12.7769 14.5245 12.7036 14.4394C11.4442 12.976 10.7505 11.0288 10.7505 8.95663C10.7505 4.69058 13.7213 1.21997 17.373 1.21997C21.0246 1.21997 23.9955 4.69058 23.9955 8.95663C23.9955 11.0262 23.3043 12.9712 22.0492 14.4334C22.0007 14.49 21.9621 14.5572 21.9358 14.6311C21.9095 14.7051 21.8959 14.7844 21.8958 14.8645C21.8957 14.9446 21.9091 15.0239 21.9352 15.098C21.9614 15.172 21.9997 15.2393 22.0482 15.296C22.0966 15.3528 22.1541 15.3978 22.2174 15.4285C22.2807 15.4593 22.3486 15.4752 22.4172 15.4753C22.4857 15.4754 22.5536 15.4597 22.617 15.4292C22.6804 15.3986 22.738 15.3538 22.7866 15.2972C24.2395 13.6044 25.0397 11.3527 25.0397 8.95663C25.0397 4.01796 21.6005 0 17.373 0C13.1455 0 9.7063 4.01796 9.7063 8.95663C9.7063 11.3559 10.5092 13.6102 11.9674 15.3043C12.0651 15.4181 12.1975 15.482 12.3355 15.4818Z" fill="#F9BA0B"/>
</svg>
