<svg width="21" height="21" viewBox="0 0 21 21" fill="none" xmlns="http://www.w3.org/2000/svg">
<path fill-rule="evenodd" clip-rule="evenodd" d="M21 5.47436C21 2.45287 18.5471 0 15.5256 0H5.47436C2.45287 0 0 2.45287 0 5.47436V15.5256C0 18.5471 2.45287 21 5.47436 21H15.5256C18.5471 21 21 18.5471 21 15.5256V5.47436ZM20.1026 5.47436V15.5256C20.1026 18.0517 18.0517 20.1026 15.5256 20.1026H5.47436C2.94826 20.1026 0.897436 18.0517 0.897436 15.5256V5.47436C0.897436 2.94826 2.94826 0.897436 5.47436 0.897436H15.5256C18.0517 0.897436 20.1026 2.94826 20.1026 5.47436Z" fill="white"/>
<path fill-rule="evenodd" clip-rule="evenodd" d="M7.08954 8.16637C7.08954 7.91867 6.88852 7.71765 6.64083 7.71765H3.76903C3.52134 7.71765 3.32031 7.91867 3.32031 8.16637V17.3202C3.32031 17.5679 3.52134 17.7689 3.76903 17.7689H6.64083C6.88852 17.7689 7.08954 17.5679 7.08954 17.3202V8.16637ZM6.19211 8.61508V16.8715H4.21775V8.61508H6.19211ZM5.20493 3.23047C4.16462 3.23047 3.32031 4.07478 3.32031 5.11508C3.32031 6.15539 4.16462 6.9997 5.20493 6.9997C6.24524 6.9997 7.08954 6.15539 7.08954 5.11508C7.08954 4.07478 6.24524 3.23047 5.20493 3.23047ZM5.20493 4.1279C5.46214 4.13484 5.70648 4.24189 5.88595 4.42627C6.06542 4.61064 6.16584 4.85778 6.16584 5.11508C6.16584 5.37238 6.06542 5.61953 5.88595 5.8039C5.70648 5.98828 5.46214 6.09533 5.20493 6.10226C4.94772 6.09533 4.70338 5.98828 4.52391 5.8039C4.34444 5.61953 4.24401 5.37238 4.24401 5.11508C4.24401 4.85778 4.34444 4.61064 4.52391 4.42627C4.70338 4.24189 4.94772 4.13484 5.20493 4.1279ZM11.5767 8.43883V8.16637C11.5767 7.91867 11.3757 7.71765 11.128 7.71765H8.25621C8.00852 7.71765 7.80749 7.91867 7.80749 8.16637V16.3596C7.80749 16.7334 7.95598 17.0918 8.22028 17.3561C8.48458 17.6204 8.84305 17.7689 9.21683 17.7689H11.128C11.3757 17.7689 11.5767 17.5679 11.5767 17.3202V11.9428C11.5782 11.9309 11.6019 11.74 11.7903 11.5795C11.9784 11.4197 12.2957 11.3074 12.8105 11.3074C13.8006 11.3074 13.9101 11.9277 13.9101 11.9277V11.9428C13.9101 12.1905 13.9101 12.3683 13.9101 11.9428V17.3202C13.9101 17.5679 14.1111 17.7689 14.3588 17.7689H17.2306C17.4783 17.7689 17.6793 17.5679 17.6793 17.3202V11.078C17.6813 11.0432 17.6798 11.0084 17.6746 10.9739C17.5806 10.3144 17.3166 9.69067 16.9086 9.16406C16.5006 8.63746 15.9625 8.22607 15.3474 7.97034C14.7322 7.7146 14.0611 7.62332 13.4 7.70546C12.7389 7.7876 12.1106 8.04033 11.5767 8.43883ZM16.7819 11.0719V16.8715H14.8075V11.7805C14.8157 11.684 14.8197 11.3537 14.5594 11.0274C14.3333 10.7442 13.8612 10.41 12.8105 10.41C11.9942 10.41 11.5071 10.6422 11.2088 10.896C10.6739 11.3508 10.6793 11.9277 10.6793 11.9277V16.8715H9.21683C9.14959 16.8715 9.083 16.8583 9.02088 16.8326C8.95875 16.8069 8.9023 16.7692 8.85475 16.7217C8.80721 16.6741 8.76951 16.6177 8.7438 16.5555C8.71809 16.4934 8.70488 16.4268 8.70493 16.3596V8.61508H10.6793V9.42278C10.6793 9.50942 10.7044 9.59421 10.7515 9.66691C10.7987 9.7396 10.8659 9.79709 10.945 9.83244C11.0241 9.86778 11.1117 9.87946 11.1973 9.86607C11.283 9.85268 11.3628 9.81479 11.4274 9.75698L11.9084 9.32585C12.3033 8.97167 12.7866 8.73082 13.3072 8.6288C13.8277 8.52677 14.3662 8.56737 14.8656 8.74629C15.3649 8.9252 15.8067 9.23579 16.144 9.64518C16.4813 10.0546 16.7017 10.5475 16.7819 11.0719Z" fill="white"/>
</svg>
