<svg width="33" height="48" viewBox="0 0 33 48" fill="none" xmlns="http://www.w3.org/2000/svg">
<path d="M19.235 0C19.1123 0.00568545 18.9927 0.0394694 18.8853 0.098725C18.7779 0.157981 18.6856 0.241111 18.6157 0.341653L0.145475 26.7366C0.0610806 26.8566 0.011361 26.9974 0.00172656 27.1437C-0.00790783 27.2899 0.0229121 27.436 0.0908324 27.566C0.158753 27.696 0.261171 27.805 0.386942 27.881C0.512713 27.9571 0.657017 27.9973 0.804151 27.9974H13.5831L12.0502 47.1359C11.9895 47.9432 13.0367 48.3151 13.5072 47.656L31.9805 21.2611C32.0649 21.141 32.1146 21.0002 32.1243 20.854C32.1339 20.7077 32.1031 20.5616 32.0352 20.4316C31.9672 20.3016 31.8648 20.1927 31.739 20.1166C31.6133 20.0406 31.469 20.0003 31.3218 20.0003H18.5429L20.0758 0.86169C20.0841 0.748619 20.0682 0.635082 20.0291 0.528583C19.9901 0.422084 19.9288 0.325048 19.8494 0.243887C19.7699 0.162727 19.674 0.0992896 19.5681 0.0577687C19.4622 0.0162478 19.3486 -0.00543508 19.235 0Z" fill="#FFBC42"/>
</svg>
