<svg width="39" height="39" viewBox="0 0 39 39" fill="none" xmlns="http://www.w3.org/2000/svg">
<path d="M12.6586 38.9995C12.5608 38.9995 12.4645 38.981 12.3773 38.9457C12.2901 38.9104 12.2146 38.8591 12.1569 38.7961C12.0992 38.7331 12.0608 38.6601 12.045 38.583C12.0292 38.506 12.0363 38.427 12.0659 38.3526L18.6537 21.7659L11.6143 21.6968C11.5071 21.6957 11.4021 21.6726 11.3094 21.6295C11.2167 21.5865 11.1395 21.525 11.0853 21.4512C11.0311 21.3773 11.0018 21.2934 11.0001 21.2078C10.9984 21.1222 11.0244 21.0376 11.0757 20.9624L25.1738 0.259597C25.2472 0.151675 25.3681 0.0693046 25.5131 0.0283836C25.658 -0.0125374 25.8168 -0.00910913 25.9588 0.0380071C26.1008 0.0851234 26.2159 0.172588 26.282 0.28352C26.348 0.394453 26.3602 0.52099 26.3163 0.638713L20.3305 16.736L27.3861 16.8056C27.4937 16.8067 27.599 16.83 27.6918 16.8734C27.7847 16.9167 27.8618 16.9785 27.9159 17.0528C27.9699 17.1271 27.9988 17.2113 28 17.2972C28.0011 17.3831 27.9743 17.4678 27.9223 17.5429L13.2022 38.7441C13.1483 38.8217 13.0695 38.8863 12.9738 38.9313C12.878 38.9763 12.769 39 12.658 39L12.6586 38.9995ZM12.6617 20.714L19.5077 20.7811C19.6048 20.782 19.7003 20.8011 19.7865 20.8369C19.8727 20.8726 19.9472 20.924 20.0041 20.9868C20.061 21.0497 20.0987 21.1224 20.1141 21.199C20.1295 21.2756 20.1223 21.354 20.093 21.428L15.134 33.913L26.3294 17.7894L19.4928 17.7223C19.3966 17.7214 19.302 17.7027 19.2164 17.6676C19.1309 17.6326 19.0566 17.5822 18.9995 17.5204C18.9425 17.4586 18.9041 17.387 18.8875 17.3113C18.8709 17.2357 18.8764 17.158 18.9038 17.0843L23.4391 4.8865L12.6617 20.714Z" fill="#F9BA0B"/>
</svg>
