<svg width="17" height="40" viewBox="0 0 17 40" fill="none" xmlns="http://www.w3.org/2000/svg">
<path d="M1.65859 39.4985C1.56084 39.4985 1.46447 39.4801 1.3773 39.4447C1.29014 39.4094 1.21462 39.3581 1.15689 39.2951C1.09916 39.2321 1.06082 39.1591 1.04501 39.0821C1.02919 39.005 1.03633 38.926 1.06585 38.8516L7.65372 22.2649L0.614304 22.1958C0.507109 22.1948 0.402075 22.1716 0.309393 22.1286C0.21671 22.0855 0.139528 22.0241 0.0853325 21.9502C0.0311369 21.8763 0.00176816 21.7925 7.73744e-05 21.7068C-0.00161341 21.6212 0.0244316 21.5367 0.0756831 21.4614L14.1738 0.75862C14.2472 0.650698 14.3681 0.568328 14.5131 0.527407C14.658 0.486486 14.8168 0.489914 14.9588 0.537031C15.1008 0.584147 15.2159 0.671611 15.282 0.782544C15.348 0.893476 15.3602 1.02001 15.3163 1.13774L9.33054 17.235L16.3861 17.3046C16.4937 17.3057 16.599 17.3291 16.6918 17.3724C16.7847 17.4157 16.8618 17.4776 16.9159 17.5518C16.9699 17.6261 16.9988 17.7103 17 17.7962C17.0011 17.8821 16.9743 17.9668 16.9223 18.0419L2.20219 39.2431C2.14833 39.3207 2.06945 39.3854 1.97375 39.4304C1.87805 39.4754 1.76901 39.4991 1.65797 39.499L1.65859 39.4985ZM1.6617 21.213L8.50768 21.2801C8.6048 21.281 8.70029 21.3001 8.7865 21.3359C8.87271 21.3716 8.94724 21.423 9.00414 21.4859C9.06103 21.5488 9.09869 21.6214 9.11412 21.698C9.12954 21.7746 9.12229 21.853 9.09295 21.927L4.13401 34.412L15.3294 18.2884L8.49275 18.2213C8.3966 18.2204 8.30202 18.2017 8.21644 18.1667C8.13087 18.1316 8.05662 18.0812 7.99954 18.0194C7.94247 17.9576 7.90411 17.886 7.88749 17.8104C7.87087 17.7347 7.87644 17.657 7.90375 17.5833L12.4391 5.38553L1.6617 21.213Z" fill="#F9BA0B"/>
</svg>
