<svg width="46" height="48" viewBox="0 0 46 48" fill="none" xmlns="http://www.w3.org/2000/svg">
<path d="M24.25 1.14434C23.4765 0.697756 22.5235 0.697756 21.75 1.14434L3.83142 11.4896C3.05791 11.9362 2.58142 12.7615 2.58142 13.6547V34.3453C2.58142 35.2385 3.05791 36.0638 3.83142 36.5104L21.75 46.8557C22.5235 47.3022 23.4765 47.3022 24.25 46.8557L42.1686 36.5104C42.9421 36.0638 43.4186 35.2385 43.4186 34.3453V13.6547C43.4186 12.7615 42.9421 11.9362 42.1686 11.4896L24.25 1.14434Z" stroke="url(#paint0_linear_582_1066)" stroke-linejoin="round"/>
<path fill-rule="evenodd" clip-rule="evenodd" d="M23.3205 4.26795C22.7017 3.91068 21.9393 3.91068 21.3205 4.26795L6 13.1132C5.3812 13.4705 5 14.1308 5 14.8453V32.5359C5 33.2504 5.3812 33.9107 6 34.268L21.3205 43.1132C21.9393 43.4705 22.7017 43.4705 23.3205 43.1132L38.641 34.268C39.2598 33.9107 39.641 33.2504 39.641 32.5359V14.8453C39.641 14.1308 39.2598 13.4705 38.641 13.1132L23.3205 4.26795ZM18.7184 14.8123L18.7185 14.8313V18.9973V18.998V22.8317C17.7769 22.5687 16.6848 22.4199 15.511 22.4199C11.86 22.4199 8.99995 23.8592 8.99995 25.6974V25.6989V29.2341V29.2345V32.7314C8.99995 34.5641 11.86 35.9998 15.511 35.9998C18.0362 35.9998 20.1829 35.3131 21.2669 34.2834C22.8829 34.9516 24.616 35.2779 26.361 35.2413C30.6428 35.2413 34 33.5665 34 31.428V27.2658H33.9996V27.2657V23.1738C33.9998 23.1619 33.9999 23.1499 33.9999 23.138V18.998V18.9973V14.8118H33.9998C33.9993 12.6743 30.6423 11 26.3591 11C22.0755 11 18.7184 12.6745 18.7184 14.8123ZM21.7467 33.6932C23.2169 34.2685 24.7841 34.547 26.361 34.5116C30.1146 34.5123 33.2857 33.0999 33.2857 31.428V28.9029C32.0791 30.2003 29.4625 31.0787 26.3606 31.0787C24.8876 31.0986 23.4223 30.8732 22.0225 30.4124V32.7314C22.0225 33.0675 21.9263 33.3902 21.7467 33.6932ZM21.3082 29.2345V29.2341V27.2138C20.238 28.2687 18.0687 28.9753 15.511 28.9753C12.9536 28.9753 10.7844 28.2689 9.71424 27.214V29.2341V29.2345C9.71424 30.5897 12.3689 31.7342 15.511 31.7342C18.6532 31.7342 21.3082 30.5897 21.3082 29.2345ZM9.71424 30.7529C10.7744 31.7871 12.9205 32.4632 15.511 32.4632C18.1018 32.4632 20.248 31.7871 21.3082 30.7528V32.7314C21.3082 33.9586 18.9785 35.2708 15.511 35.2708C12.0435 35.2708 9.71424 33.9579 9.71424 32.7314V30.7529ZM22.0225 29.2341V29.2345V29.6444C23.4175 30.1316 24.885 30.37 26.3606 30.3486C30.1142 30.3497 33.2853 28.9373 33.2853 27.2657V24.7701C32.0784 26.0628 29.4622 26.9386 26.361 26.9386C24.8884 26.957 23.4236 26.7334 22.0225 26.2773V29.2341ZM21.3061 25.7605H21.3017L21.3022 25.8058C21.1707 27.0044 18.8769 28.2463 15.511 28.2463C12.0435 28.2463 9.71424 26.9283 9.71424 25.6974C9.71424 24.4665 12.0435 23.1488 15.511 23.1488C18.9785 23.1488 21.3082 24.4665 21.3082 25.6974C21.3082 25.7184 21.3075 25.7394 21.3061 25.7605ZM22.0118 25.5035C23.4108 25.9904 24.8818 26.2289 26.361 26.2081C30.0928 26.2096 33.2489 24.8192 33.2853 23.1669V23.1375H33.2856V20.61C32.0788 21.8871 29.462 22.7523 26.3592 22.7523C23.2551 22.7523 20.6392 21.8873 19.4327 20.6103V23.0637C20.9205 23.6208 21.9001 24.4945 22.0118 25.5035ZM33.2856 18.9973V16.4491C32.0788 17.7461 29.462 18.6249 26.3591 18.6249C23.2551 18.6249 20.6393 17.7463 19.4327 16.4496V18.9973V18.998C19.4327 20.6383 22.6049 22.0233 26.3592 22.0233C30.1135 22.0233 33.2856 20.6379 33.2856 18.998V18.9973ZM19.4327 14.8118V14.8276C19.452 16.4921 22.6163 17.8959 26.3591 17.8959C30.1134 17.8959 33.2855 16.4835 33.2855 14.8123C33.2855 13.1411 30.1137 11.729 26.3591 11.729C22.6052 11.729 19.4333 13.1408 19.4327 14.8118H19.4327Z" fill="#F9BA0B"/>
<defs>
<linearGradient id="paint0_linear_582_1066" x1="23" y1="1" x2="23" y2="47" gradientUnits="userSpaceOnUse">
<stop stop-color="#F9BA0B"/>
<stop offset="1" stop-color="#040612"/>
</linearGradient>
</defs>
</svg>
