<svg width="46" height="46" viewBox="0 0 46 46" fill="none" xmlns="http://www.w3.org/2000/svg">
<path d="M26.3592 17.6249C22.0735 17.6249 18.7185 15.95 18.7185 13.8123C18.7185 11.6745 22.0756 10 26.3592 10C30.6428 10 33.9999 11.6745 33.9999 13.8123C33.9999 15.95 30.6428 17.6249 26.3592 17.6249ZM26.3592 10.729C22.6049 10.729 19.4328 12.141 19.4328 13.8123C19.4328 15.4835 22.6049 16.8959 26.3592 16.8959C30.1135 16.8959 33.2857 15.4835 33.2857 13.8123C33.2857 12.141 30.1139 10.729 26.3592 10.729Z" fill="#F9BA0B"/>
<path d="M26.3592 21.752C22.0735 21.752 18.7185 20.1031 18.7185 17.9977V13.8115H19.4328V17.9977C19.4328 19.638 22.6049 21.0231 26.3592 21.0231C30.1135 21.0231 33.2857 19.6376 33.2857 17.9977V13.8115H33.9999V17.9977C33.9999 20.1031 30.6428 21.752 26.3592 21.752Z" fill="#F9BA0B"/>
<path d="M18.7185 17.9971H19.4328V22.1377H18.7185V17.9971ZM26.361 25.9383C24.7386 25.9587 23.1255 25.6852 21.5967 25.1306H21.306L21.3017 24.7603H21.6589L21.6631 24.4002H21.7303L21.7931 24.4249C23.2571 24.9646 24.8046 25.2298 26.361 25.2079C30.1146 25.2093 33.2857 23.8027 33.2857 22.1377V17.9971H33.9999V22.1377C33.9999 24.2689 30.6428 25.9383 26.361 25.9383ZM18.7185 22.1377H19.4328V22.3214H18.7185V22.1377Z" fill="#F9BA0B"/>
<path d="M26.3607 30.0785C24.7146 30.1007 23.0784 29.8166 21.5321 29.2401L21.4028 29.1884L21.6468 28.5031L21.785 28.5585C23.2505 29.1033 24.8011 29.371 26.3607 29.3484C30.1143 29.3495 33.2853 27.9371 33.2853 26.2655V22.1372H33.9996V26.2655C33.9996 28.4047 30.6425 30.0785 26.3607 30.0785Z" fill="#F9BA0B"/>
<path d="M26.3611 34.2414C24.5319 34.2797 22.7158 33.9193 21.0339 33.1844L21.3382 32.5246C22.9248 33.2139 24.6371 33.5504 26.3611 33.5117C30.1146 33.5124 33.2857 32.1 33.2857 30.4281V26.2659H34V30.4281C34 32.5665 30.6429 34.2414 26.3611 34.2414ZM15.5111 27.9754C11.86 27.9754 9 26.5356 9 24.6975C9 22.8593 11.86 21.4199 15.5111 21.4199C19.1621 21.4199 22.0225 22.8597 22.0225 24.6975C22.0225 26.5352 19.1625 27.9754 15.5111 27.9754ZM15.5111 22.1489C12.0436 22.1489 9.71429 23.4666 9.71429 24.6975C9.71429 25.9284 12.0436 27.2464 15.5111 27.2464C18.9786 27.2464 21.3082 25.9284 21.3082 24.6975C21.3082 23.4666 18.9786 22.1489 15.5111 22.1489Z" fill="#F9BA0B"/>
<path d="M15.5111 31.463C11.7993 31.463 9 30.075 9 28.2343V24.6987H9.71429V28.2343C9.71429 29.5895 12.3689 30.734 15.5111 30.734C18.6532 30.734 21.3082 29.5895 21.3082 28.2343V24.6987H22.0225V28.2343C22.0225 30.075 19.2232 31.463 15.5111 31.463Z" fill="#F9BA0B"/>
<path d="M15.5111 34.9996C11.86 34.9996 9 33.5639 9 31.7312V28.2339H9.71429V31.7312C9.71429 32.9577 12.0436 34.2707 15.5111 34.2707C18.9786 34.2707 21.3082 32.9585 21.3082 31.7312V28.2339H22.0225V31.7312C22.0225 33.5639 19.1625 34.9996 15.5111 34.9996Z" fill="#F9BA0B"/>
</svg>
