<svg width="43" height="42" viewBox="0 0 43 42" fill="none" xmlns="http://www.w3.org/2000/svg">
<circle cx="21.5" cy="21" r="21" fill="#2C3447"/>
<mask id="path-2-inside-1_608_363" fill="white">
<path d="M22.2036 30.3246C22.3357 30.5808 22.5044 30.4951 22.5326 30.4844L24.381 29.7838C24.4069 29.8244 24.438 29.8611 24.4735 29.893C24.8463 30.226 25.5918 30.8014 26.363 30.9373C26.8404 31.0268 27.33 31.0205 27.8051 30.9186C28.2851 30.8041 28.5764 30.543 28.6303 30.21C28.6843 29.877 28.489 29.5414 28.0776 29.2616C27.6306 28.9833 27.1324 28.8045 26.6149 28.7368C26.7614 28.6543 26.9054 28.569 27.0494 28.4784C27.0982 28.5551 27.1667 28.616 27.2473 28.6543C27.821 28.9434 28.4455 29.1084 29.0828 29.1391C29.1702 29.1391 29.255 29.1338 29.3424 29.1258C30.5404 28.9873 31.3964 28.4118 31.3296 27.7831C31.2936 27.4448 31.0159 27.1784 30.5455 27.0239C30.0965 26.8956 29.6279 26.8576 29.165 26.912C29.3141 26.7842 29.4607 26.6483 29.6046 26.5098C29.685 26.6012 29.7966 26.6566 29.9157 26.6643C30.0339 26.6723 30.1779 26.6803 30.3373 26.6803C30.9205 26.6982 31.5002 26.5808 32.0339 26.3366C33.1111 25.7665 33.7126 24.9141 33.435 24.3493C33.2884 24.0483 32.9363 23.8991 32.4453 23.9284C32.1889 23.9488 31.936 24.0016 31.692 24.0856C31.7537 24.003 31.8103 23.9177 31.8643 23.8325C31.949 23.8746 32.0436 23.8903 32.1368 23.8778C32.6252 23.7979 33.5301 23.5901 34.1316 23.0679C35.0597 22.2688 35.4633 21.2964 35.0725 20.8116C34.7769 20.4439 34.1368 20.4892 33.4427 20.8782C33.4838 20.7743 33.5275 20.6704 33.5686 20.5612C33.6261 20.5563 33.6829 20.5456 33.7383 20.5292C34.201 20.3507 35.0468 19.9511 35.5327 19.3171C35.8419 18.9281 36.0727 18.4788 36.2113 17.9958C36.3347 17.5029 36.2653 17.1167 36.0082 16.9062C35.7512 16.6958 35.3733 16.7144 34.9388 16.9515C34.7628 17.0503 34.5973 17.1681 34.4453 17.3031C34.4504 17.2738 34.4941 16.9435 34.5018 16.805C34.5588 16.7868 34.614 16.7627 34.6663 16.7331C35.0751 16.4453 35.8077 15.8539 36.1393 15.1187C36.6483 13.9865 36.6149 12.9289 36.0622 12.6625C35.7666 12.5187 35.4016 12.6252 35.0314 12.9636C34.6778 13.308 34.3938 13.7218 34.1959 14.181C34.1067 14.3824 34.042 14.5944 34.0031 14.8123C33.98 14.7724 33.9568 14.7351 33.9337 14.7005C33.6535 14.2795 33.3219 14.0851 33.0031 14.1517C32.4041 14.2716 32.1265 15.2892 32.3579 16.5173C32.5095 17.3138 33.0854 18.0704 33.4144 18.4486C33.4427 18.4812 33.4757 18.509 33.5121 18.5312C33.5532 18.5608 33.5995 18.5816 33.6483 18.5925C33.5764 18.8882 33.4941 19.1759 33.399 19.4636C33.3935 19.3982 33.3841 19.3333 33.3707 19.2691L33.3244 19.0454C33.0802 18.0171 32.5532 17.3191 32.0288 17.3191C31.9891 17.3187 31.9495 17.3223 31.9105 17.3298C31.3116 17.4497 31.0365 18.4673 31.2679 19.6954C31.4195 20.4919 31.9954 21.2485 32.3244 21.6267C32.3538 21.661 32.3886 21.6898 32.4273 21.712C32.2501 21.9358 32.0967 22.1788 31.9697 22.4366C31.9697 21.4376 31.6303 20.6944 31.1059 20.6357C30.782 20.5985 30.471 20.8222 30.2242 21.2644C29.9968 21.7092 29.857 22.1964 29.8129 22.6977C29.7306 23.5048 30.0622 24.4026 30.2679 24.8661C30.2799 24.8933 30.2946 24.9192 30.3116 24.9434C30.255 25.002 29.89 25.4389 29.7872 25.5854C29.7173 25.6648 29.6435 25.7404 29.5661 25.8118C29.6539 25.5419 29.7033 25.2601 29.7126 24.9753C29.7383 23.7233 29.2962 22.7722 28.6869 22.7563C28.0725 22.7483 27.5944 23.678 27.5686 24.9274C27.5532 25.7319 27.9517 26.5897 28.1959 27.0346C27.8514 27.3063 27.4967 27.5611 27.1316 27.7991C27.2591 27.5626 27.3542 27.3089 27.4144 27.0452C27.674 25.8225 27.4221 24.7995 26.8257 24.661C26.2293 24.5225 25.5815 25.343 25.3219 26.5631C25.1573 27.3276 25.3707 28.2174 25.5249 28.7155C25.3887 28.7848 25.1008 28.9153 25.1008 28.9153C24.89 29.0112 24.3321 29.235 24.2704 29.259L22.3553 29.9836C22.3227 29.9941 22.2926 30.0117 22.267 30.035C22.2413 30.0584 22.2207 30.087 22.2064 30.1192C22.1921 30.1513 22.1845 30.1862 22.184 30.2216C22.1835 30.2569 22.1902 30.292 22.2036 30.3246ZM34.4401 16.0005C34.4427 15.9978 34.4427 15.9951 34.4401 15.9951C34.3968 15.4551 34.4733 14.912 34.6638 14.4074C34.8302 14.0142 35.0706 13.6592 35.3707 13.3631C35.4812 13.2411 35.6277 13.1605 35.7872 13.134C35.8066 13.1327 35.826 13.1363 35.8437 13.1447C36.0468 13.2406 36.0802 13.9892 35.674 14.8949C35.3846 15.4282 34.9755 15.8815 34.4812 16.2162C34.4723 16.2218 34.4637 16.2281 34.4555 16.2349C34.4504 16.163 34.4427 16.086 34.4401 16.0005ZM33.7923 19.9351C33.9788 19.3892 34.1342 18.8323 34.2576 18.2675C34.509 17.9262 34.8226 17.6393 35.1805 17.423C35.2999 17.3481 35.4346 17.3034 35.5738 17.2925C35.6147 17.2899 35.6553 17.3011 35.6895 17.3245C35.7512 17.3751 35.7949 17.5456 35.7126 17.8599C35.5918 18.271 35.3935 18.6531 35.1291 18.9841C34.7612 19.4049 34.3034 19.7306 33.7923 19.9351ZM33.7357 18.0197C33.3238 17.5665 33.0247 17.0161 32.8643 16.416C32.6766 15.4357 32.8848 14.7191 33.1008 14.6738C33.1805 14.6578 33.3321 14.7351 33.5095 15.0041C33.7116 15.3265 33.8537 15.6852 33.9285 16.0617C33.9388 16.1044 33.9491 16.1496 33.9568 16.1923C33.9772 16.3047 33.9884 16.4188 33.9902 16.5333C33.9959 16.7546 33.9796 16.976 33.9414 17.1939C33.9363 17.2339 33.9285 17.2712 33.9208 17.3111C33.8735 17.5511 33.8116 17.7878 33.7357 18.0197ZM32.6432 21.1978C32.2322 20.7439 31.9332 20.1937 31.7717 19.5941C31.5866 18.6138 31.7923 17.8972 32.0108 17.8519C32.2293 17.8066 32.6818 18.39 32.8668 19.3704C32.9362 19.9893 32.8594 20.6164 32.6432 21.1978ZM32.1496 23.337C32.3297 22.782 32.6234 22.274 33.0108 21.8478C33.0108 21.8478 33.0648 21.7946 33.0905 21.7733C33.4716 21.4011 33.9549 21.1609 34.4735 21.086C34.5104 21.0814 34.5478 21.0849 34.5833 21.0964C34.6187 21.1079 34.6514 21.127 34.6792 21.1526C34.8206 21.3284 34.5329 22.0087 33.8026 22.6604C33.2324 23.1689 32.1625 23.3343 32.1496 23.337ZM31.4324 22.8788C31.3527 23.7254 30.6946 24.5518 30.6946 24.5491C30.4324 23.9906 30.3054 23.3744 30.3244 22.7536C30.361 22.3254 30.4789 21.9089 30.6715 21.5282C30.8283 21.2458 30.9774 21.1579 31.0519 21.1632C31.273 21.1899 31.526 21.8841 31.4324 22.8788ZM30.0442 26.1395C30.0828 26.0782 30.1303 26.0143 30.1753 25.9397C30.3972 25.6154 30.6571 25.321 30.9491 25.0632C31.0571 24.9743 31.1734 24.8967 31.2962 24.8315C31.6613 24.6291 32.0614 24.5032 32.4735 24.4612C32.507 24.4585 32.9123 24.4585 32.9774 24.5917C33.0774 24.7968 32.6612 25.4069 31.8 25.8598C31.2451 26.0985 30.6427 26.1944 30.0442 26.1395ZM28.9851 25.9184C28.8788 26.1888 28.7515 26.4498 28.6046 26.6989C28.2964 26.1641 28.1173 25.56 28.0828 24.938C28.1033 23.9444 28.4504 23.289 28.6715 23.289H28.674C28.8977 23.2944 29.219 23.9657 29.1985 24.962C29.1821 25.2913 29.1098 25.615 28.9851 25.9184ZM27.5481 28.212C28.0196 27.8256 28.5744 27.5633 29.165 27.4475C29.3051 27.4316 29.4458 27.4236 29.5866 27.4235C29.8594 27.4193 30.1313 27.4561 30.3938 27.5327C30.6946 27.6313 30.8103 27.7592 30.818 27.8391C30.8437 28.0682 30.2447 28.4864 29.2859 28.5957C28.6853 28.6144 28.0892 28.4828 27.5481 28.212ZM26.5224 27.8231C26.3733 28.0602 26.0237 28.4864 26.0031 28.5104C25.8044 27.9237 25.7428 27.2965 25.8231 26.6803C26.0087 25.7391 26.4828 25.1274 26.7126 25.1831C26.9301 25.2364 27.1188 25.953 26.9105 26.928C26.8338 27.248 26.7024 27.5512 26.5224 27.8231ZM24.8797 29.552C24.9928 29.5067 25.1265 29.4588 25.2756 29.4161C25.2756 29.4135 25.2782 29.4135 25.2807 29.4135C25.6085 29.3101 25.9484 29.2536 26.291 29.2457C26.4064 29.2458 26.5216 29.2556 26.6355 29.275C27.0453 29.3396 27.439 29.4862 27.7949 29.7065C28.0571 29.885 28.1368 30.0422 28.1239 30.1221C28.1111 30.202 27.9851 30.3219 27.6818 30.4018C27.2759 30.4888 26.8576 30.4924 26.4504 30.4125C25.8788 30.2663 25.3497 29.9794 24.908 29.576C24.898 29.5687 24.8886 29.5606 24.8797 29.552ZM20.6447 29.9836L18.7296 29.259C18.6679 29.235 18.11 29.0112 17.8992 28.9153C17.8992 28.9153 17.6113 28.7848 17.4751 28.7155C17.6293 28.2174 17.8427 27.3276 17.6781 26.5631C17.4185 25.343 16.7707 24.5251 16.1743 24.661C15.5779 24.7968 15.326 25.8225 15.5856 27.0452C15.6458 27.3089 15.7409 27.5626 15.8684 27.7991C15.5033 27.562 15.1486 27.3072 14.8041 27.0346C15.0483 26.5897 15.4468 25.7319 15.4314 24.9274C15.4057 23.678 14.9275 22.7483 14.3131 22.7563C13.7038 22.7722 13.2617 23.7233 13.2874 24.9753C13.2967 25.2601 13.3461 25.5419 13.4339 25.8118C13.3565 25.7404 13.2827 25.6648 13.2128 25.5854C13.11 25.4389 12.745 25.002 12.6884 24.9434C12.7054 24.9192 12.7201 24.8933 12.7321 24.8661C12.9378 24.4026 13.2694 23.5048 13.1871 22.6977C13.143 22.1964 13.0032 21.7092 12.7758 21.2644C12.529 20.8222 12.218 20.5985 11.8941 20.6357C11.3697 20.6944 11.0303 21.4376 11.0303 22.4366C10.9033 22.1788 10.7499 21.9358 10.5727 21.712C10.6114 21.6898 10.6462 21.661 10.6756 21.6267C11.0046 21.2485 11.5805 20.4919 11.7321 19.6954C11.9635 18.4673 11.6884 17.4497 11.0894 17.3298C11.0505 17.3223 11.0109 17.3187 10.9712 17.3191C10.4468 17.3191 9.91978 18.0171 9.67557 19.0454L9.62929 19.2691C9.61592 19.3333 9.60647 19.3982 9.60102 19.4636C9.5059 19.1759 9.42364 18.8882 9.35166 18.5925C9.40053 18.5816 9.44683 18.5608 9.48791 18.5312C9.52434 18.509 9.55728 18.4812 9.58559 18.4486C9.91464 18.0704 10.4905 17.3138 10.6421 16.5173C10.8735 15.2892 10.5959 14.2716 9.9969 14.1517C9.67814 14.0851 9.34652 14.2795 9.06631 14.7005C9.04318 14.736 9.02004 14.7733 8.9969 14.8123C8.95804 14.5944 8.89328 14.3824 8.8041 14.181C8.60624 13.7218 8.32224 13.308 7.96862 12.9636C7.59844 12.6252 7.23341 12.5187 6.93778 12.6625C6.38508 12.9289 6.35166 13.9865 6.86065 15.1187C7.19227 15.8539 7.92492 16.4453 8.33366 16.7331C8.38603 16.7627 8.44115 16.7868 8.49819 16.805C8.5059 16.9435 8.5496 17.2738 8.55474 17.3031C8.4027 17.1681 8.23724 17.0503 8.06117 16.9515C7.62672 16.7144 7.24626 16.6984 6.99176 16.9062C6.73726 17.114 6.66528 17.5029 6.78868 17.9958C6.92732 18.4788 7.15809 18.9281 7.46734 19.3171C7.9532 19.9511 8.79896 20.3507 9.26168 20.5292C9.3171 20.5456 9.37392 20.5563 9.43135 20.5612C9.47248 20.6704 9.51618 20.7743 9.55732 20.8782C8.86323 20.4892 8.22312 20.4439 7.92749 20.8116C7.53675 21.2964 7.94035 22.2688 8.86837 23.0679C9.46991 23.5901 10.3748 23.7979 10.8632 23.8778C10.9564 23.8903 11.051 23.8746 11.1357 23.8325C11.1897 23.9177 11.2463 24.003 11.308 24.0856C11.064 24.0016 10.8111 23.9488 10.5547 23.9284C10.0637 23.8991 9.71156 24.0483 9.56503 24.3493C9.28739 24.9141 9.88894 25.7665 10.9661 26.3366C11.4998 26.5808 12.0795 26.6982 12.6627 26.6803C12.8221 26.6803 12.9661 26.6723 13.0843 26.6643C13.2034 26.6566 13.315 26.6012 13.3954 26.5098C13.5393 26.6483 13.6859 26.7842 13.835 26.912C13.3721 26.8576 12.9035 26.8956 12.4545 27.0239C11.9841 27.1784 11.7064 27.4448 11.6704 27.7831C11.6036 28.4118 12.4596 28.9873 13.6576 29.1258C13.745 29.1338 13.8298 29.1391 13.9172 29.1391C14.5545 29.1084 15.179 28.9434 15.7527 28.6543C15.8333 28.616 15.9018 28.5551 15.9506 28.4784C16.0946 28.569 16.2386 28.6543 16.3851 28.7368C15.8676 28.8045 15.3694 28.9833 14.9224 29.2616C14.511 29.5414 14.3157 29.877 14.3697 30.21C14.4236 30.543 14.7149 30.8041 15.1949 30.9186C15.67 31.0205 16.1596 31.0268 16.637 30.9373C17.4082 30.8014 18.1537 30.226 18.5265 29.893C18.562 29.8611 18.5931 29.8244 18.619 29.7838L20.4674 30.4844C20.4956 30.4951 20.6643 30.5808 20.7964 30.3246C20.8098 30.292 20.8165 30.2569 20.816 30.2216C20.8155 30.1862 20.8079 30.1513 20.7936 30.1192C20.7793 30.087 20.7587 30.0584 20.733 30.035C20.7074 30.0117 20.6773 29.9941 20.6447 29.9836ZM8.54446 16.2349C8.53633 16.2281 8.52774 16.2218 8.51875 16.2162C8.02452 15.8815 7.61538 15.4282 7.32595 14.8949C6.91978 13.9892 6.9532 13.2406 7.15628 13.1447C7.17399 13.1363 7.19343 13.1327 7.21284 13.134C7.3723 13.1605 7.51877 13.2411 7.62929 13.3631C7.92944 13.6592 8.16976 14.0142 8.33623 14.4074C8.52672 14.912 8.60322 15.4551 8.55989 15.9951C8.55731 15.9951 8.55731 15.9978 8.55989 16.0005C8.55731 16.0857 8.5496 16.163 8.54446 16.2349ZM7.87094 18.9838C7.60654 18.6528 7.40819 18.2707 7.28739 17.8596C7.20513 17.5453 7.24883 17.3748 7.31053 17.3242C7.34472 17.3008 7.38532 17.2896 7.42621 17.2922C7.56538 17.3032 7.70011 17.3479 7.81952 17.4227C8.17743 17.6391 8.49096 17.926 8.7424 18.2672C8.86581 18.8321 9.02118 19.3889 9.2077 19.9349C8.69659 19.7303 8.23879 19.4046 7.87094 18.9838ZM9.07917 17.3109C9.07145 17.2709 9.06374 17.2336 9.0586 17.1936C9.02044 16.9758 9.00407 16.7544 9.00976 16.533C9.01158 16.4186 9.02276 16.3045 9.04318 16.192C9.05089 16.1494 9.06117 16.1041 9.07145 16.0615C9.1463 15.685 9.28841 15.3263 9.49048 15.0039C9.66786 14.7348 9.81953 14.6576 9.89922 14.6735C10.1152 14.7188 10.3234 15.4354 10.1357 16.4158C9.97532 17.0158 9.6762 17.5662 9.26426 18.0195C9.18836 17.7876 9.12654 17.5507 9.07917 17.3109ZM10.1332 19.3701C10.3182 18.3898 10.7707 17.809 10.9892 17.8516C11.2077 17.8943 11.4134 18.6135 11.2283 19.5939C11.0668 20.1934 10.7678 20.7437 10.3568 21.1976C10.1406 20.6163 10.0639 19.9892 10.1332 19.3704V19.3701ZM9.19742 22.6601C8.46708 22.0085 8.17942 21.3281 8.32081 21.1523C8.3486 21.1268 8.3813 21.1076 8.41675 21.0961C8.4522 21.0847 8.48959 21.0811 8.52647 21.0857C9.04508 21.1607 9.52839 21.4009 9.9095 21.773C9.93521 21.7943 9.98919 21.8476 9.98919 21.8476C10.3766 22.2738 10.6703 22.7818 10.8504 23.3367C10.8375 23.3343 9.7676 23.1689 9.19742 22.6601ZM11.9481 21.1629C12.0226 21.1576 12.1717 21.2455 12.3285 21.5279C12.5211 21.9087 12.639 22.3251 12.6756 22.7533C12.6946 23.3741 12.5676 23.9903 12.3054 24.5488C12.3054 24.5515 11.6473 23.7251 11.5676 22.8785C11.4743 21.8841 11.727 21.1896 11.9481 21.1629ZM11.2 25.8595C10.3388 25.4066 9.92261 24.7966 10.0226 24.5915C10.0877 24.4583 10.493 24.4583 10.5265 24.4609C10.9386 24.503 11.3387 24.6288 11.7038 24.8312C11.8266 24.8964 11.9429 24.9741 12.0509 25.063C12.3429 25.3207 12.6028 25.6151 12.8247 25.9394C12.8697 26.014 12.9172 26.0779 12.9558 26.1392C12.3573 26.1943 11.7549 26.0981 11.2 25.8595ZM13.8015 24.9617C13.781 23.9654 14.1023 23.2941 14.326 23.2888H14.3285C14.5496 23.2888 14.8967 23.9441 14.9172 24.9378C14.8827 25.5597 14.7036 26.1638 14.3954 26.6986C14.2485 26.4495 14.1212 26.1885 14.0149 25.9181C13.8902 25.6149 13.818 25.2912 13.8015 24.962V24.9617ZM13.7141 28.5954C12.7553 28.4862 12.1563 28.0679 12.182 27.8388C12.1897 27.7589 12.3054 27.631 12.6062 27.5325C12.8687 27.4558 13.1406 27.419 13.4134 27.4232C13.5542 27.4233 13.6949 27.4313 13.835 27.4472C14.4256 27.563 14.9804 27.8253 15.4519 28.2118C14.9106 28.4827 14.3142 28.6144 13.7134 28.5957L13.7141 28.5954ZM16.0895 26.9277C15.8812 25.9527 16.0699 25.2353 16.2874 25.1829C16.5172 25.1272 16.9913 25.7388 17.1769 26.68C17.2572 27.2962 17.1956 27.9234 16.9969 28.5101C16.9763 28.4862 16.6267 28.0599 16.4776 27.8228C16.2977 27.551 16.1662 27.2477 16.0895 26.9277ZM18.092 29.5757C17.6503 29.9791 17.1212 30.2661 16.5496 30.4122C16.1424 30.4921 15.7241 30.4885 15.3182 30.4015C15.0149 30.3216 14.8889 30.2017 14.8761 30.1218C14.8632 30.0419 14.9429 29.8847 15.2051 29.7063C15.561 29.4859 15.9547 29.3394 16.3645 29.2747C16.4784 29.2554 16.5936 29.2456 16.709 29.2454C17.0516 29.2534 17.3915 29.3098 17.7193 29.4132C17.7218 29.4132 17.7244 29.4132 17.7244 29.4159C17.8735 29.4585 18.0072 29.5065 18.1203 29.5517C18.1114 29.5605 18.102 29.5683 18.092 29.5757Z"/>
</mask>
<path d="M22.2036 30.3246C22.3357 30.5808 22.5044 30.4951 22.5326 30.4844L24.381 29.7838C24.4069 29.8244 24.438 29.8611 24.4735 29.893C24.8463 30.226 25.5918 30.8014 26.363 30.9373C26.8404 31.0268 27.33 31.0205 27.8051 30.9186C28.2851 30.8041 28.5764 30.543 28.6303 30.21C28.6843 29.877 28.489 29.5414 28.0776 29.2616C27.6306 28.9833 27.1324 28.8045 26.6149 28.7368C26.7614 28.6543 26.9054 28.569 27.0494 28.4784C27.0982 28.5551 27.1667 28.616 27.2473 28.6543C27.821 28.9434 28.4455 29.1084 29.0828 29.1391C29.1702 29.1391 29.255 29.1338 29.3424 29.1258C30.5404 28.9873 31.3964 28.4118 31.3296 27.7831C31.2936 27.4448 31.0159 27.1784 30.5455 27.0239C30.0965 26.8956 29.6279 26.8576 29.165 26.912C29.3141 26.7842 29.4607 26.6483 29.6046 26.5098C29.685 26.6012 29.7966 26.6566 29.9157 26.6643C30.0339 26.6723 30.1779 26.6803 30.3373 26.6803C30.9205 26.6982 31.5002 26.5808 32.0339 26.3366C33.1111 25.7665 33.7126 24.9141 33.435 24.3493C33.2884 24.0483 32.9363 23.8991 32.4453 23.9284C32.1889 23.9488 31.936 24.0016 31.692 24.0856C31.7537 24.003 31.8103 23.9177 31.8643 23.8325C31.949 23.8746 32.0436 23.8903 32.1368 23.8778C32.6252 23.7979 33.5301 23.5901 34.1316 23.0679C35.0597 22.2688 35.4633 21.2964 35.0725 20.8116C34.7769 20.4439 34.1368 20.4892 33.4427 20.8782C33.4838 20.7743 33.5275 20.6704 33.5686 20.5612C33.6261 20.5563 33.6829 20.5456 33.7383 20.5292C34.201 20.3507 35.0468 19.9511 35.5327 19.3171C35.8419 18.9281 36.0727 18.4788 36.2113 17.9958C36.3347 17.5029 36.2653 17.1167 36.0082 16.9062C35.7512 16.6958 35.3733 16.7144 34.9388 16.9515C34.7628 17.0503 34.5973 17.1681 34.4453 17.3031C34.4504 17.2738 34.4941 16.9435 34.5018 16.805C34.5588 16.7868 34.614 16.7627 34.6663 16.7331C35.0751 16.4453 35.8077 15.8539 36.1393 15.1187C36.6483 13.9865 36.6149 12.9289 36.0622 12.6625C35.7666 12.5187 35.4016 12.6252 35.0314 12.9636C34.6778 13.308 34.3938 13.7218 34.1959 14.181C34.1067 14.3824 34.042 14.5944 34.0031 14.8123C33.98 14.7724 33.9568 14.7351 33.9337 14.7005C33.6535 14.2795 33.3219 14.0851 33.0031 14.1517C32.4041 14.2716 32.1265 15.2892 32.3579 16.5173C32.5095 17.3138 33.0854 18.0704 33.4144 18.4486C33.4427 18.4812 33.4757 18.509 33.5121 18.5312C33.5532 18.5608 33.5995 18.5816 33.6483 18.5925C33.5764 18.8882 33.4941 19.1759 33.399 19.4636C33.3935 19.3982 33.3841 19.3333 33.3707 19.2691L33.3244 19.0454C33.0802 18.0171 32.5532 17.3191 32.0288 17.3191C31.9891 17.3187 31.9495 17.3223 31.9105 17.3298C31.3116 17.4497 31.0365 18.4673 31.2679 19.6954C31.4195 20.4919 31.9954 21.2485 32.3244 21.6267C32.3538 21.661 32.3886 21.6898 32.4273 21.712C32.2501 21.9358 32.0967 22.1788 31.9697 22.4366C31.9697 21.4376 31.6303 20.6944 31.1059 20.6357C30.782 20.5985 30.471 20.8222 30.2242 21.2644C29.9968 21.7092 29.857 22.1964 29.8129 22.6977C29.7306 23.5048 30.0622 24.4026 30.2679 24.8661C30.2799 24.8933 30.2946 24.9192 30.3116 24.9434C30.255 25.002 29.89 25.4389 29.7872 25.5854C29.7173 25.6648 29.6435 25.7404 29.5661 25.8118C29.6539 25.5419 29.7033 25.2601 29.7126 24.9753C29.7383 23.7233 29.2962 22.7722 28.6869 22.7563C28.0725 22.7483 27.5944 23.678 27.5686 24.9274C27.5532 25.7319 27.9517 26.5897 28.1959 27.0346C27.8514 27.3063 27.4967 27.5611 27.1316 27.7991C27.2591 27.5626 27.3542 27.3089 27.4144 27.0452C27.674 25.8225 27.4221 24.7995 26.8257 24.661C26.2293 24.5225 25.5815 25.343 25.3219 26.5631C25.1573 27.3276 25.3707 28.2174 25.5249 28.7155C25.3887 28.7848 25.1008 28.9153 25.1008 28.9153C24.89 29.0112 24.3321 29.235 24.2704 29.259L22.3553 29.9836C22.3227 29.9941 22.2926 30.0117 22.267 30.035C22.2413 30.0584 22.2207 30.087 22.2064 30.1192C22.1921 30.1513 22.1845 30.1862 22.184 30.2216C22.1835 30.2569 22.1902 30.292 22.2036 30.3246ZM34.4401 16.0005C34.4427 15.9978 34.4427 15.9951 34.4401 15.9951C34.3968 15.4551 34.4733 14.912 34.6638 14.4074C34.8302 14.0142 35.0706 13.6592 35.3707 13.3631C35.4812 13.2411 35.6277 13.1605 35.7872 13.134C35.8066 13.1327 35.826 13.1363 35.8437 13.1447C36.0468 13.2406 36.0802 13.9892 35.674 14.8949C35.3846 15.4282 34.9755 15.8815 34.4812 16.2162C34.4723 16.2218 34.4637 16.2281 34.4555 16.2349C34.4504 16.163 34.4427 16.086 34.4401 16.0005ZM33.7923 19.9351C33.9788 19.3892 34.1342 18.8323 34.2576 18.2675C34.509 17.9262 34.8226 17.6393 35.1805 17.423C35.2999 17.3481 35.4346 17.3034 35.5738 17.2925C35.6147 17.2899 35.6553 17.3011 35.6895 17.3245C35.7512 17.3751 35.7949 17.5456 35.7126 17.8599C35.5918 18.271 35.3935 18.6531 35.1291 18.9841C34.7612 19.4049 34.3034 19.7306 33.7923 19.9351ZM33.7357 18.0197C33.3238 17.5665 33.0247 17.0161 32.8643 16.416C32.6766 15.4357 32.8848 14.7191 33.1008 14.6738C33.1805 14.6578 33.3321 14.7351 33.5095 15.0041C33.7116 15.3265 33.8537 15.6852 33.9285 16.0617C33.9388 16.1044 33.9491 16.1496 33.9568 16.1923C33.9772 16.3047 33.9884 16.4188 33.9902 16.5333C33.9959 16.7546 33.9796 16.976 33.9414 17.1939C33.9363 17.2339 33.9285 17.2712 33.9208 17.3111C33.8735 17.5511 33.8116 17.7878 33.7357 18.0197ZM32.6432 21.1978C32.2322 20.7439 31.9332 20.1937 31.7717 19.5941C31.5866 18.6138 31.7923 17.8972 32.0108 17.8519C32.2293 17.8066 32.6818 18.39 32.8668 19.3704C32.9362 19.9893 32.8594 20.6164 32.6432 21.1978ZM32.1496 23.337C32.3297 22.782 32.6234 22.274 33.0108 21.8478C33.0108 21.8478 33.0648 21.7946 33.0905 21.7733C33.4716 21.4011 33.9549 21.1609 34.4735 21.086C34.5104 21.0814 34.5478 21.0849 34.5833 21.0964C34.6187 21.1079 34.6514 21.127 34.6792 21.1526C34.8206 21.3284 34.5329 22.0087 33.8026 22.6604C33.2324 23.1689 32.1625 23.3343 32.1496 23.337ZM31.4324 22.8788C31.3527 23.7254 30.6946 24.5518 30.6946 24.5491C30.4324 23.9906 30.3054 23.3744 30.3244 22.7536C30.361 22.3254 30.4789 21.9089 30.6715 21.5282C30.8283 21.2458 30.9774 21.1579 31.0519 21.1632C31.273 21.1899 31.526 21.8841 31.4324 22.8788ZM30.0442 26.1395C30.0828 26.0782 30.1303 26.0143 30.1753 25.9397C30.3972 25.6154 30.6571 25.321 30.9491 25.0632C31.0571 24.9743 31.1734 24.8967 31.2962 24.8315C31.6613 24.6291 32.0614 24.5032 32.4735 24.4612C32.507 24.4585 32.9123 24.4585 32.9774 24.5917C33.0774 24.7968 32.6612 25.4069 31.8 25.8598C31.2451 26.0985 30.6427 26.1944 30.0442 26.1395ZM28.9851 25.9184C28.8788 26.1888 28.7515 26.4498 28.6046 26.6989C28.2964 26.1641 28.1173 25.56 28.0828 24.938C28.1033 23.9444 28.4504 23.289 28.6715 23.289H28.674C28.8977 23.2944 29.219 23.9657 29.1985 24.962C29.1821 25.2913 29.1098 25.615 28.9851 25.9184ZM27.5481 28.212C28.0196 27.8256 28.5744 27.5633 29.165 27.4475C29.3051 27.4316 29.4458 27.4236 29.5866 27.4235C29.8594 27.4193 30.1313 27.4561 30.3938 27.5327C30.6946 27.6313 30.8103 27.7592 30.818 27.8391C30.8437 28.0682 30.2447 28.4864 29.2859 28.5957C28.6853 28.6144 28.0892 28.4828 27.5481 28.212ZM26.5224 27.8231C26.3733 28.0602 26.0237 28.4864 26.0031 28.5104C25.8044 27.9237 25.7428 27.2965 25.8231 26.6803C26.0087 25.7391 26.4828 25.1274 26.7126 25.1831C26.9301 25.2364 27.1188 25.953 26.9105 26.928C26.8338 27.248 26.7024 27.5512 26.5224 27.8231ZM24.8797 29.552C24.9928 29.5067 25.1265 29.4588 25.2756 29.4161C25.2756 29.4135 25.2782 29.4135 25.2807 29.4135C25.6085 29.3101 25.9484 29.2536 26.291 29.2457C26.4064 29.2458 26.5216 29.2556 26.6355 29.275C27.0453 29.3396 27.439 29.4862 27.7949 29.7065C28.0571 29.885 28.1368 30.0422 28.1239 30.1221C28.1111 30.202 27.9851 30.3219 27.6818 30.4018C27.2759 30.4888 26.8576 30.4924 26.4504 30.4125C25.8788 30.2663 25.3497 29.9794 24.908 29.576C24.898 29.5687 24.8886 29.5606 24.8797 29.552ZM20.6447 29.9836L18.7296 29.259C18.6679 29.235 18.11 29.0112 17.8992 28.9153C17.8992 28.9153 17.6113 28.7848 17.4751 28.7155C17.6293 28.2174 17.8427 27.3276 17.6781 26.5631C17.4185 25.343 16.7707 24.5251 16.1743 24.661C15.5779 24.7968 15.326 25.8225 15.5856 27.0452C15.6458 27.3089 15.7409 27.5626 15.8684 27.7991C15.5033 27.562 15.1486 27.3072 14.8041 27.0346C15.0483 26.5897 15.4468 25.7319 15.4314 24.9274C15.4057 23.678 14.9275 22.7483 14.3131 22.7563C13.7038 22.7722 13.2617 23.7233 13.2874 24.9753C13.2967 25.2601 13.3461 25.5419 13.4339 25.8118C13.3565 25.7404 13.2827 25.6648 13.2128 25.5854C13.11 25.4389 12.745 25.002 12.6884 24.9434C12.7054 24.9192 12.7201 24.8933 12.7321 24.8661C12.9378 24.4026 13.2694 23.5048 13.1871 22.6977C13.143 22.1964 13.0032 21.7092 12.7758 21.2644C12.529 20.8222 12.218 20.5985 11.8941 20.6357C11.3697 20.6944 11.0303 21.4376 11.0303 22.4366C10.9033 22.1788 10.7499 21.9358 10.5727 21.712C10.6114 21.6898 10.6462 21.661 10.6756 21.6267C11.0046 21.2485 11.5805 20.4919 11.7321 19.6954C11.9635 18.4673 11.6884 17.4497 11.0894 17.3298C11.0505 17.3223 11.0109 17.3187 10.9712 17.3191C10.4468 17.3191 9.91978 18.0171 9.67557 19.0454L9.62929 19.2691C9.61592 19.3333 9.60647 19.3982 9.60102 19.4636C9.5059 19.1759 9.42364 18.8882 9.35166 18.5925C9.40053 18.5816 9.44683 18.5608 9.48791 18.5312C9.52434 18.509 9.55728 18.4812 9.58559 18.4486C9.91464 18.0704 10.4905 17.3138 10.6421 16.5173C10.8735 15.2892 10.5959 14.2716 9.9969 14.1517C9.67814 14.0851 9.34652 14.2795 9.06631 14.7005C9.04318 14.736 9.02004 14.7733 8.9969 14.8123C8.95804 14.5944 8.89328 14.3824 8.8041 14.181C8.60624 13.7218 8.32224 13.308 7.96862 12.9636C7.59844 12.6252 7.23341 12.5187 6.93778 12.6625C6.38508 12.9289 6.35166 13.9865 6.86065 15.1187C7.19227 15.8539 7.92492 16.4453 8.33366 16.7331C8.38603 16.7627 8.44115 16.7868 8.49819 16.805C8.5059 16.9435 8.5496 17.2738 8.55474 17.3031C8.4027 17.1681 8.23724 17.0503 8.06117 16.9515C7.62672 16.7144 7.24626 16.6984 6.99176 16.9062C6.73726 17.114 6.66528 17.5029 6.78868 17.9958C6.92732 18.4788 7.15809 18.9281 7.46734 19.3171C7.9532 19.9511 8.79896 20.3507 9.26168 20.5292C9.3171 20.5456 9.37392 20.5563 9.43135 20.5612C9.47248 20.6704 9.51618 20.7743 9.55732 20.8782C8.86323 20.4892 8.22312 20.4439 7.92749 20.8116C7.53675 21.2964 7.94035 22.2688 8.86837 23.0679C9.46991 23.5901 10.3748 23.7979 10.8632 23.8778C10.9564 23.8903 11.051 23.8746 11.1357 23.8325C11.1897 23.9177 11.2463 24.003 11.308 24.0856C11.064 24.0016 10.8111 23.9488 10.5547 23.9284C10.0637 23.8991 9.71156 24.0483 9.56503 24.3493C9.28739 24.9141 9.88894 25.7665 10.9661 26.3366C11.4998 26.5808 12.0795 26.6982 12.6627 26.6803C12.8221 26.6803 12.9661 26.6723 13.0843 26.6643C13.2034 26.6566 13.315 26.6012 13.3954 26.5098C13.5393 26.6483 13.6859 26.7842 13.835 26.912C13.3721 26.8576 12.9035 26.8956 12.4545 27.0239C11.9841 27.1784 11.7064 27.4448 11.6704 27.7831C11.6036 28.4118 12.4596 28.9873 13.6576 29.1258C13.745 29.1338 13.8298 29.1391 13.9172 29.1391C14.5545 29.1084 15.179 28.9434 15.7527 28.6543C15.8333 28.616 15.9018 28.5551 15.9506 28.4784C16.0946 28.569 16.2386 28.6543 16.3851 28.7368C15.8676 28.8045 15.3694 28.9833 14.9224 29.2616C14.511 29.5414 14.3157 29.877 14.3697 30.21C14.4236 30.543 14.7149 30.8041 15.1949 30.9186C15.67 31.0205 16.1596 31.0268 16.637 30.9373C17.4082 30.8014 18.1537 30.226 18.5265 29.893C18.562 29.8611 18.5931 29.8244 18.619 29.7838L20.4674 30.4844C20.4956 30.4951 20.6643 30.5808 20.7964 30.3246C20.8098 30.292 20.8165 30.2569 20.816 30.2216C20.8155 30.1862 20.8079 30.1513 20.7936 30.1192C20.7793 30.087 20.7587 30.0584 20.733 30.035C20.7074 30.0117 20.6773 29.9941 20.6447 29.9836ZM8.54446 16.2349C8.53633 16.2281 8.52774 16.2218 8.51875 16.2162C8.02452 15.8815 7.61538 15.4282 7.32595 14.8949C6.91978 13.9892 6.9532 13.2406 7.15628 13.1447C7.17399 13.1363 7.19343 13.1327 7.21284 13.134C7.3723 13.1605 7.51877 13.2411 7.62929 13.3631C7.92944 13.6592 8.16976 14.0142 8.33623 14.4074C8.52672 14.912 8.60322 15.4551 8.55989 15.9951C8.55731 15.9951 8.55731 15.9978 8.55989 16.0005C8.55731 16.0857 8.5496 16.163 8.54446 16.2349ZM7.87094 18.9838C7.60654 18.6528 7.40819 18.2707 7.28739 17.8596C7.20513 17.5453 7.24883 17.3748 7.31053 17.3242C7.34472 17.3008 7.38532 17.2896 7.42621 17.2922C7.56538 17.3032 7.70011 17.3479 7.81952 17.4227C8.17743 17.6391 8.49096 17.926 8.7424 18.2672C8.86581 18.8321 9.02118 19.3889 9.2077 19.9349C8.69659 19.7303 8.23879 19.4046 7.87094 18.9838ZM9.07917 17.3109C9.07145 17.2709 9.06374 17.2336 9.0586 17.1936C9.02044 16.9758 9.00407 16.7544 9.00976 16.533C9.01158 16.4186 9.02276 16.3045 9.04318 16.192C9.05089 16.1494 9.06117 16.1041 9.07145 16.0615C9.1463 15.685 9.28841 15.3263 9.49048 15.0039C9.66786 14.7348 9.81953 14.6576 9.89922 14.6735C10.1152 14.7188 10.3234 15.4354 10.1357 16.4158C9.97532 17.0158 9.6762 17.5662 9.26426 18.0195C9.18836 17.7876 9.12654 17.5507 9.07917 17.3109ZM10.1332 19.3701C10.3182 18.3898 10.7707 17.809 10.9892 17.8516C11.2077 17.8943 11.4134 18.6135 11.2283 19.5939C11.0668 20.1934 10.7678 20.7437 10.3568 21.1976C10.1406 20.6163 10.0639 19.9892 10.1332 19.3704V19.3701ZM9.19742 22.6601C8.46708 22.0085 8.17942 21.3281 8.32081 21.1523C8.3486 21.1268 8.3813 21.1076 8.41675 21.0961C8.4522 21.0847 8.48959 21.0811 8.52647 21.0857C9.04508 21.1607 9.52839 21.4009 9.9095 21.773C9.93521 21.7943 9.98919 21.8476 9.98919 21.8476C10.3766 22.2738 10.6703 22.7818 10.8504 23.3367C10.8375 23.3343 9.7676 23.1689 9.19742 22.6601ZM11.9481 21.1629C12.0226 21.1576 12.1717 21.2455 12.3285 21.5279C12.5211 21.9087 12.639 22.3251 12.6756 22.7533C12.6946 23.3741 12.5676 23.9903 12.3054 24.5488C12.3054 24.5515 11.6473 23.7251 11.5676 22.8785C11.4743 21.8841 11.727 21.1896 11.9481 21.1629ZM11.2 25.8595C10.3388 25.4066 9.92261 24.7966 10.0226 24.5915C10.0877 24.4583 10.493 24.4583 10.5265 24.4609C10.9386 24.503 11.3387 24.6288 11.7038 24.8312C11.8266 24.8964 11.9429 24.9741 12.0509 25.063C12.3429 25.3207 12.6028 25.6151 12.8247 25.9394C12.8697 26.014 12.9172 26.0779 12.9558 26.1392C12.3573 26.1943 11.7549 26.0981 11.2 25.8595ZM13.8015 24.9617C13.781 23.9654 14.1023 23.2941 14.326 23.2888H14.3285C14.5496 23.2888 14.8967 23.9441 14.9172 24.9378C14.8827 25.5597 14.7036 26.1638 14.3954 26.6986C14.2485 26.4495 14.1212 26.1885 14.0149 25.9181C13.8902 25.6149 13.818 25.2912 13.8015 24.962V24.9617ZM13.7141 28.5954C12.7553 28.4862 12.1563 28.0679 12.182 27.8388C12.1897 27.7589 12.3054 27.631 12.6062 27.5325C12.8687 27.4558 13.1406 27.419 13.4134 27.4232C13.5542 27.4233 13.6949 27.4313 13.835 27.4472C14.4256 27.563 14.9804 27.8253 15.4519 28.2118C14.9106 28.4827 14.3142 28.6144 13.7134 28.5957L13.7141 28.5954ZM16.0895 26.9277C15.8812 25.9527 16.0699 25.2353 16.2874 25.1829C16.5172 25.1272 16.9913 25.7388 17.1769 26.68C17.2572 27.2962 17.1956 27.9234 16.9969 28.5101C16.9763 28.4862 16.6267 28.0599 16.4776 27.8228C16.2977 27.551 16.1662 27.2477 16.0895 26.9277ZM18.092 29.5757C17.6503 29.9791 17.1212 30.2661 16.5496 30.4122C16.1424 30.4921 15.7241 30.4885 15.3182 30.4015C15.0149 30.3216 14.8889 30.2017 14.8761 30.1218C14.8632 30.0419 14.9429 29.8847 15.2051 29.7063C15.561 29.4859 15.9547 29.3394 16.3645 29.2747C16.4784 29.2554 16.5936 29.2456 16.709 29.2454C17.0516 29.2534 17.3915 29.3098 17.7193 29.4132C17.7218 29.4132 17.7244 29.4132 17.7244 29.4159C17.8735 29.4585 18.0072 29.5065 18.1203 29.5517C18.1114 29.5605 18.102 29.5683 18.092 29.5757Z" fill="black" stroke="url(#paint0_linear_608_363)" stroke-width="4.04361" mask="url(#path-2-inside-1_608_363)"/>
<path d="M23.4563 11.2073C23.4563 10.8137 23.1372 10.4945 22.7436 10.4945C22.6573 10.4945 22.5718 10.5102 22.4911 10.5408L22.6699 11.0128L22.4911 10.5408L18.2508 12.1471C17.7318 12.3436 17.3886 12.8407 17.3886 13.3957C17.3886 14.316 18.2979 14.9604 19.1663 14.6554L19.749 14.4507C20.0707 14.3378 20.4075 14.5764 20.4075 14.9173V22.8028C20.4075 23.6342 21.0815 24.3082 21.9129 24.3082H21.9509C22.7823 24.3082 23.4563 23.6342 23.4563 22.8028V11.2073Z" stroke="url(#paint1_linear_608_363)" stroke-width="1.0109"/>
<defs>
<linearGradient id="paint0_linear_608_363" x1="21.5" y1="12.6001" x2="21.5" y2="31" gradientUnits="userSpaceOnUse">
<stop stop-color="#FBE363"/>
<stop offset="1" stop-color="#8C7705"/>
</linearGradient>
<linearGradient id="paint1_linear_608_363" x1="20.4225" y1="11" x2="20.4225" y2="23.8028" gradientUnits="userSpaceOnUse">
<stop stop-color="#FBE363"/>
<stop offset="1" stop-color="#8C7705"/>
</linearGradient>
</defs>
</svg>
