<svg width="171" height="31" viewBox="0 0 171 31" fill="none" xmlns="http://www.w3.org/2000/svg">
<rect y="28" width="122" height="3" rx="1.5" fill="#0E0B1E"/>
<g filter="url(#filter0_i_766_1863)">
<path d="M5 6C5 2.68629 7.68629 0 11 0H165C168.314 0 171 2.68629 171 6V31H5V6Z" fill="#EACAA4"/>
</g>
<path d="M32.9751 15.1818C32.9751 16.4356 32.7403 17.5095 32.2706 18.4034C31.8047 19.2936 31.1683 19.9754 30.3615 20.4489C29.5585 20.9223 28.6475 21.1591 27.6286 21.1591C26.6096 21.1591 25.6967 20.9223 24.8899 20.4489C24.0869 19.9716 23.4505 19.2879 22.9808 18.3977C22.5149 17.5038 22.282 16.4318 22.282 15.1818C22.282 13.928 22.5149 12.8561 22.9808 11.9659C23.4505 11.072 24.0869 10.3883 24.8899 9.91477C25.6967 9.44129 26.6096 9.20455 27.6286 9.20455C28.6475 9.20455 29.5585 9.44129 30.3615 9.91477C31.1683 10.3883 31.8047 11.072 32.2706 11.9659C32.7403 12.8561 32.9751 13.928 32.9751 15.1818ZM30.8558 15.1818C30.8558 14.2992 30.7176 13.5549 30.4411 12.9489C30.1683 12.339 29.7895 11.8788 29.3047 11.5682C28.8198 11.2538 28.2611 11.0966 27.6286 11.0966C26.996 11.0966 26.4373 11.2538 25.9524 11.5682C25.4676 11.8788 25.0869 12.339 24.8104 12.9489C24.5376 13.5549 24.4013 14.2992 24.4013 15.1818C24.4013 16.0644 24.5376 16.8106 24.8104 17.4205C25.0869 18.0265 25.4676 18.4867 25.9524 18.8011C26.4373 19.1117 26.996 19.267 27.6286 19.267C28.2611 19.267 28.8198 19.1117 29.3047 18.8011C29.7895 18.4867 30.1683 18.0265 30.4411 17.4205C30.7176 16.8106 30.8558 16.0644 30.8558 15.1818ZM42.3033 9.36364H44.4112V16.9659C44.4112 17.7992 44.2143 18.5322 43.8203 19.1648C43.4302 19.7973 42.8809 20.2917 42.1726 20.6477C41.4643 21 40.6366 21.1761 39.6896 21.1761C38.7389 21.1761 37.9093 21 37.201 20.6477C36.4927 20.2917 35.9434 19.7973 35.5533 19.1648C35.1631 18.5322 34.968 17.7992 34.968 16.9659V9.36364H37.076V16.7898C37.076 17.2746 37.1821 17.7064 37.3942 18.0852C37.6101 18.464 37.9131 18.7614 38.3033 18.9773C38.6934 19.1894 39.1555 19.2955 39.6896 19.2955C40.2237 19.2955 40.6858 19.1894 41.076 18.9773C41.4699 18.7614 41.773 18.464 41.9851 18.0852C42.1972 17.7064 42.3033 17.2746 42.3033 16.7898V9.36364ZM46.1911 11.1307V9.36364H55.4751V11.1307H51.8786V21H49.7876V11.1307H46.1911ZM57.2649 21V9.36364H61.6286C62.5225 9.36364 63.2725 9.5303 63.8786 9.86364C64.4884 10.197 64.9486 10.6553 65.2592 11.2386C65.5736 11.8182 65.7308 12.4773 65.7308 13.2159C65.7308 13.9621 65.5736 14.625 65.2592 15.2045C64.9448 15.7841 64.4808 16.2405 63.8672 16.5739C63.2536 16.9034 62.4979 17.0682 61.6001 17.0682H58.7081V15.3352H61.3161C61.8388 15.3352 62.2668 15.2443 62.6001 15.0625C62.9335 14.8807 63.1797 14.6307 63.3388 14.3125C63.5017 13.9943 63.5831 13.6288 63.5831 13.2159C63.5831 12.803 63.5017 12.4394 63.3388 12.125C63.1797 11.8106 62.9316 11.5663 62.5945 11.392C62.2611 11.214 61.8312 11.125 61.3047 11.125H59.3729V21H57.2649ZM74.897 9.36364H77.005V16.9659C77.005 17.7992 76.808 18.5322 76.4141 19.1648C76.0239 19.7973 75.4747 20.2917 74.7663 20.6477C74.058 21 73.2304 21.1761 72.2834 21.1761C71.3326 21.1761 70.5031 21 69.7947 20.6477C69.0864 20.2917 68.5372 19.7973 68.147 19.1648C67.7569 18.5322 67.5618 17.7992 67.5618 16.9659V9.36364H69.6697V16.7898C69.6697 17.2746 69.7758 17.7064 69.9879 18.0852C70.2038 18.464 70.5069 18.7614 70.897 18.9773C71.2872 19.1894 71.7493 19.2955 72.2834 19.2955C72.8175 19.2955 73.2796 19.1894 73.6697 18.9773C74.0637 18.7614 74.3667 18.464 74.5788 18.0852C74.791 17.7064 74.897 17.2746 74.897 16.7898V9.36364ZM78.7848 11.1307V9.36364H88.0689V11.1307H84.4723V21H82.3814V11.1307H78.7848ZM104.225 15.1818C104.225 16.4356 103.99 17.5095 103.521 18.4034C103.055 19.2936 102.418 19.9754 101.612 20.4489C100.808 20.9223 99.8975 21.1591 98.8786 21.1591C97.8596 21.1591 96.9467 20.9223 96.1399 20.4489C95.3369 19.9716 94.7005 19.2879 94.2308 18.3977C93.7649 17.5038 93.532 16.4318 93.532 15.1818C93.532 13.928 93.7649 12.8561 94.2308 11.9659C94.7005 11.072 95.3369 10.3883 96.1399 9.91477C96.9467 9.44129 97.8596 9.20455 98.8786 9.20455C99.8975 9.20455 100.808 9.44129 101.612 9.91477C102.418 10.3883 103.055 11.072 103.521 11.9659C103.99 12.8561 104.225 13.928 104.225 15.1818ZM102.106 15.1818C102.106 14.2992 101.968 13.5549 101.691 12.9489C101.418 12.339 101.04 11.8788 100.555 11.5682C100.07 11.2538 99.5111 11.0966 98.8786 11.0966C98.246 11.0966 97.6873 11.2538 97.2024 11.5682C96.7176 11.8788 96.3369 12.339 96.0604 12.9489C95.7876 13.5549 95.6513 14.2992 95.6513 15.1818C95.6513 16.0644 95.7876 16.8106 96.0604 17.4205C96.3369 18.0265 96.7176 18.4867 97.2024 18.8011C97.6873 19.1117 98.246 19.267 98.8786 19.267C99.5111 19.267 100.07 19.1117 100.555 18.8011C101.04 18.4867 101.418 18.0265 101.691 17.4205C101.968 16.8106 102.106 16.0644 102.106 15.1818ZM106.218 21V9.36364H110.582C111.476 9.36364 112.226 9.5303 112.832 9.86364C113.442 10.197 113.902 10.6553 114.212 11.2386C114.527 11.8182 114.684 12.4773 114.684 13.2159C114.684 13.9621 114.527 14.625 114.212 15.2045C113.898 15.7841 113.434 16.2405 112.82 16.5739C112.207 16.9034 111.451 17.0682 110.553 17.0682H107.661V15.3352H110.269C110.792 15.3352 111.22 15.2443 111.553 15.0625C111.887 14.8807 112.133 14.6307 112.292 14.3125C112.455 13.9943 112.536 13.6288 112.536 13.2159C112.536 12.803 112.455 12.4394 112.292 12.125C112.133 11.8106 111.885 11.5663 111.548 11.392C111.214 11.214 110.784 11.125 110.258 11.125H108.326V21H106.218ZM116.004 11.1307V9.36364H125.288V11.1307H121.691V21H119.6V11.1307H116.004ZM129.185 9.36364V21H127.077V9.36364H129.185ZM141.866 15.1818C141.866 16.4356 141.631 17.5095 141.161 18.4034C140.695 19.2936 140.059 19.9754 139.252 20.4489C138.449 20.9223 137.538 21.1591 136.519 21.1591C135.5 21.1591 134.587 20.9223 133.781 20.4489C132.978 19.9716 132.341 19.2879 131.871 18.3977C131.406 17.5038 131.173 16.4318 131.173 15.1818C131.173 13.928 131.406 12.8561 131.871 11.9659C132.341 11.072 132.978 10.3883 133.781 9.91477C134.587 9.44129 135.5 9.20455 136.519 9.20455C137.538 9.20455 138.449 9.44129 139.252 9.91477C140.059 10.3883 140.695 11.072 141.161 11.9659C141.631 12.8561 141.866 13.928 141.866 15.1818ZM139.746 15.1818C139.746 14.2992 139.608 13.5549 139.332 12.9489C139.059 12.339 138.68 11.8788 138.195 11.5682C137.71 11.2538 137.152 11.0966 136.519 11.0966C135.887 11.0966 135.328 11.2538 134.843 11.5682C134.358 11.8788 133.978 12.339 133.701 12.9489C133.428 13.5549 133.292 14.2992 133.292 15.1818C133.292 16.0644 133.428 16.8106 133.701 17.4205C133.978 18.0265 134.358 18.4867 134.843 18.8011C135.328 19.1117 135.887 19.267 136.519 19.267C137.152 19.267 137.71 19.1117 138.195 18.8011C138.68 18.4867 139.059 18.0265 139.332 17.4205C139.608 16.8106 139.746 16.0644 139.746 15.1818ZM153.421 9.36364V21H151.546L146.063 13.0739H145.967V21H143.859V9.36364H145.745L151.222 17.2955H151.325V9.36364H153.421Z" fill="#380000"/>
<defs>
<filter id="filter0_i_766_1863" x="5" y="-2" width="166" height="33" filterUnits="userSpaceOnUse" color-interpolation-filters="sRGB">
<feFlood flood-opacity="0" result="BackgroundImageFix"/>
<feBlend mode="normal" in="SourceGraphic" in2="BackgroundImageFix" result="shape"/>
<feColorMatrix in="SourceAlpha" type="matrix" values="0 0 0 0 0 0 0 0 0 0 0 0 0 0 0 0 0 0 127 0" result="hardAlpha"/>
<feOffset dy="-2"/>
<feGaussianBlur stdDeviation="2"/>
<feComposite in2="hardAlpha" operator="arithmetic" k2="-1" k3="1"/>
<feColorMatrix type="matrix" values="0 0 0 0 0.054902 0 0 0 0 0.0431373 0 0 0 0 0.117647 0 0 0 0.6 0"/>
<feBlend mode="normal" in2="shape" result="effect1_innerShadow_766_1863"/>
</filter>
</defs>
</svg>
