<svg width="14" height="15" viewBox="0 0 14 15" fill="none" xmlns="http://www.w3.org/2000/svg">
<path fill-rule="evenodd" clip-rule="evenodd" d="M2 0.00153542H12C12 0.00153542 11.2244 4.07355 10.3977 7.7497C9.89683 9.97669 9.37726 12.0584 9 13.0015C8 15.5015 6 15.0015 5 13.0015C4.62456 12.2507 4.10817 10.2312 3.60958 8.00154C3.59087 7.91787 3.57219 7.8339 3.55354 7.7497C2.74536 4.10099 2 0.00153542 2 0.00153542Z" fill="white" fill-opacity="0.05"/>
<path d="M3.55354 7.7497C2.74536 4.10099 2 0.00153542 2 0.00153542H0C0 0.00153542 2.69873 4.09223 3.55354 7.7497Z" fill="white" fill-opacity="0.05"/>
<path d="M12 0.00153542C12 0.00153542 11.2244 4.07355 10.3977 7.7497C11.3886 4.52388 12.1356 2.80343 14 0L12 0.00153542Z" fill="white" fill-opacity="0.05"/>
</svg>
