<svg width="154" height="241" viewBox="0 0 154 241" fill="none" xmlns="http://www.w3.org/2000/svg">
<path d="M67.5019 6.63696C73.3795 3.24436 80.6205 3.24436 86.4982 6.63697L143.498 39.5374C149.378 42.9311 153 49.2041 153 55.9929V184.007C153 190.796 149.378 197.069 143.498 200.463L86.4981 233.363C80.6205 236.756 73.3795 236.756 67.5018 233.363L10.5018 200.463C4.62218 197.069 1 190.796 1 184.007V55.9929C1 49.2041 4.62218 42.9311 10.5018 39.5374L67.5019 6.63696Z" fill="black" fill-opacity="0.3" stroke="url(#paint0_linear_754_815)" stroke-width="2"/>
<path d="M77 97C89.9787 97 100.5 86.4787 100.5 73.5C100.5 60.5213 89.9787 50 77 50C64.0213 50 53.5 60.5213 53.5 73.5C53.5 86.4787 64.0213 97 77 97Z" fill="#59AF99"/>
<path d="M79.4393 70.6075V67.8322H85.7538V63.4541H68.2298V67.8322H74.5607V70.6075C69.2568 70.8637 65.2759 71.9282 65.2759 73.1925C65.2759 74.4568 69.2521 75.5261 74.5607 75.7775V84.9425H79.4393V75.7775C84.7433 75.5237 88.7242 74.4592 88.7242 73.1925C88.7242 71.9259 84.755 70.8637 79.4393 70.6075ZM77 74.9691C71.2566 74.9691 66.6013 74.0808 66.6013 73.0115C66.6013 72.0927 69.9923 71.3195 74.556 71.1127V74.2477C75.3409 74.2829 76.1564 74.304 76.9953 74.304C77.8343 74.304 78.6544 74.2829 79.4346 74.2477V71.1127C83.9983 71.3195 87.3894 72.0927 87.3894 73.0115C87.3988 74.0925 82.7434 74.9691 77 74.9691Z" fill="white"/>
<path d="M50.2892 108.315V106.909H60.1074V108.315H55.9909V120H54.4057V108.315H50.2892ZM65.0421 120.205C64.0961 120.205 63.28 119.996 62.5939 119.578C61.9121 119.156 61.3858 118.568 61.0151 117.814C60.6486 117.055 60.4654 116.173 60.4654 115.168C60.4654 114.162 60.6486 113.276 61.0151 112.509C61.3858 111.737 61.9015 111.136 62.562 110.706C63.2267 110.271 64.0023 110.054 64.8887 110.054C65.4 110.054 65.905 110.139 66.4036 110.31C66.9022 110.48 67.356 110.757 67.7651 111.141C68.1742 111.52 68.5002 112.023 68.7431 112.649C68.986 113.276 69.1074 114.047 69.1074 114.963V115.602H61.5392V114.298H67.5733C67.5733 113.744 67.4625 113.25 67.2409 112.815C67.0236 112.381 66.7125 112.038 66.3077 111.786C65.9071 111.535 65.4341 111.409 64.8887 111.409C64.2878 111.409 63.7679 111.558 63.329 111.857C62.8944 112.151 62.5598 112.534 62.3255 113.007C62.0911 113.48 61.9739 113.987 61.9739 114.528V115.398C61.9739 116.139 62.1017 116.768 62.3574 117.283C62.6174 117.795 62.9775 118.185 63.4377 118.453C63.8979 118.717 64.4327 118.849 65.0421 118.849C65.4384 118.849 65.7963 118.794 66.1159 118.683C66.4398 118.568 66.7189 118.398 66.9533 118.172C67.1877 117.942 67.3688 117.656 67.4966 117.315L68.954 117.724C68.8006 118.219 68.5428 118.653 68.1806 119.028C67.8184 119.399 67.3709 119.689 66.8382 119.898C66.3056 120.102 65.7069 120.205 65.0421 120.205ZM75.6721 110.182V111.46H70.584V110.182H75.6721ZM72.0669 107.83H73.5755V117.188C73.5755 117.614 73.6373 117.933 73.7608 118.146C73.8887 118.355 74.0506 118.496 74.2466 118.568C74.4469 118.636 74.6578 118.67 74.8794 118.67C75.0456 118.67 75.182 118.662 75.2885 118.645C75.3951 118.624 75.4803 118.607 75.5442 118.594L75.851 119.949C75.7488 119.987 75.606 120.026 75.4228 120.064C75.2395 120.107 75.0073 120.128 74.726 120.128C74.2999 120.128 73.8823 120.036 73.4732 119.853C73.0684 119.67 72.7317 119.391 72.4632 119.016C72.199 118.641 72.0669 118.168 72.0669 117.597V107.83ZM79.6607 114.094V120H78.1522V106.909H79.6607V111.716H79.7885C80.0186 111.209 80.3638 110.806 80.824 110.508C81.2885 110.205 81.9064 110.054 82.6777 110.054C83.3468 110.054 83.9327 110.188 84.4355 110.457C84.9384 110.721 85.3283 111.128 85.6053 111.678C85.8865 112.223 86.0272 112.918 86.0272 113.761V120H84.5186V113.864C84.5186 113.084 84.3162 112.481 83.9114 112.055C83.5108 111.624 82.9547 111.409 82.2431 111.409C81.7488 111.409 81.3056 111.513 80.9135 111.722C80.5257 111.931 80.2189 112.236 79.9931 112.636C79.7715 113.037 79.6607 113.523 79.6607 114.094ZM92.9034 120.205C91.9574 120.205 91.1413 119.996 90.4553 119.578C89.7734 119.156 89.2472 118.568 88.8764 117.814C88.5099 117.055 88.3267 116.173 88.3267 115.168C88.3267 114.162 88.5099 113.276 88.8764 112.509C89.2472 111.737 89.7628 111.136 90.4233 110.706C91.0881 110.271 91.8636 110.054 92.75 110.054C93.2614 110.054 93.7663 110.139 94.2649 110.31C94.7635 110.48 95.2173 110.757 95.6264 111.141C96.0355 111.52 96.3615 112.023 96.6044 112.649C96.8473 113.276 96.9688 114.047 96.9688 114.963V115.602H89.4006V114.298H95.4347C95.4347 113.744 95.3239 113.25 95.1023 112.815C94.8849 112.381 94.5739 112.038 94.169 111.786C93.7685 111.535 93.2955 111.409 92.75 111.409C92.1491 111.409 91.6293 111.558 91.1903 111.857C90.7557 112.151 90.4212 112.534 90.1868 113.007C89.9524 113.48 89.8352 113.987 89.8352 114.528V115.398C89.8352 116.139 89.9631 116.768 90.2188 117.283C90.4787 117.795 90.8388 118.185 91.299 118.453C91.7592 118.717 92.294 118.849 92.9034 118.849C93.2997 118.849 93.6577 118.794 93.9773 118.683C94.3011 118.568 94.5803 118.398 94.8146 118.172C95.049 117.942 95.2301 117.656 95.358 117.315L96.8153 117.724C96.6619 118.219 96.4041 118.653 96.0419 119.028C95.6797 119.399 95.2322 119.689 94.6996 119.898C94.1669 120.102 93.5682 120.205 92.9034 120.205ZM99.2635 120V110.182H100.721V111.665H100.823C101.002 111.179 101.326 110.785 101.795 110.482C102.263 110.18 102.792 110.028 103.38 110.028C103.491 110.028 103.629 110.031 103.795 110.035C103.962 110.039 104.087 110.045 104.173 110.054V111.588C104.121 111.575 104.004 111.556 103.821 111.531C103.642 111.501 103.452 111.486 103.252 111.486C102.775 111.486 102.349 111.586 101.974 111.786C101.603 111.982 101.309 112.255 101.092 112.604C100.879 112.95 100.772 113.344 100.772 113.787V120H99.2635Z" fill="white"/>
<path d="M69.1085 126.727H69.9892V131.543C69.9892 132.04 69.872 132.484 69.6376 132.874C69.4056 133.263 69.0777 133.569 68.6539 133.794C68.2302 134.017 67.733 134.128 67.1625 134.128C66.5919 134.128 66.0948 134.017 65.671 133.794C65.2472 133.569 64.9181 133.263 64.6838 132.874C64.4518 132.484 64.3358 132.04 64.3358 131.543V126.727H65.2164V131.472C65.2164 131.827 65.2946 132.143 65.4508 132.42C65.6071 132.694 65.8296 132.911 66.1184 133.07C66.4096 133.226 66.7576 133.304 67.1625 133.304C67.5673 133.304 67.9153 133.226 68.2065 133.07C68.4977 132.911 68.7202 132.694 68.8741 132.42C69.0304 132.143 69.1085 131.827 69.1085 131.472V126.727ZM75.7251 128.545C75.6825 128.186 75.5097 127.906 75.2067 127.707C74.9036 127.509 74.532 127.409 74.0916 127.409C73.7696 127.409 73.4879 127.461 73.2464 127.565C73.0073 127.67 72.8203 127.813 72.6854 127.995C72.5528 128.177 72.4865 128.384 72.4865 128.616C72.4865 128.811 72.5327 128.978 72.625 129.117C72.7197 129.254 72.8404 129.369 72.9872 129.462C73.134 129.552 73.2879 129.626 73.4489 129.685C73.6098 129.742 73.7578 129.788 73.8928 129.824L74.6314 130.023C74.8208 130.072 75.0315 130.141 75.2635 130.229C75.4979 130.316 75.7216 130.436 75.9347 130.587C76.1501 130.737 76.3277 130.928 76.4673 131.163C76.607 131.397 76.6768 131.685 76.6768 132.026C76.6768 132.419 76.5739 132.774 76.3679 133.091C76.1643 133.408 75.866 133.66 75.473 133.847C75.0824 134.034 74.6077 134.128 74.049 134.128C73.5282 134.128 73.0772 134.044 72.696 133.876C72.3172 133.708 72.0189 133.473 71.8011 133.173C71.5857 132.872 71.4638 132.523 71.4354 132.125H72.3445C72.3681 132.4 72.4605 132.627 72.6214 132.807C72.7848 132.984 72.9908 133.117 73.2393 133.205C73.4903 133.29 73.7602 133.332 74.049 133.332C74.3852 133.332 74.687 133.278 74.9545 133.169C75.2221 133.058 75.4339 132.904 75.5902 132.707C75.7464 132.509 75.8246 132.277 75.8246 132.011C75.8246 131.77 75.7571 131.573 75.6222 131.422C75.4872 131.27 75.3097 131.147 75.0895 131.053C74.8693 130.958 74.6314 130.875 74.3757 130.804L73.4808 130.548C72.9126 130.385 72.4628 130.152 72.1314 129.849C71.8 129.546 71.6342 129.149 71.6342 128.659C71.6342 128.252 71.7443 127.897 71.9645 127.594C72.187 127.288 72.4853 127.052 72.8594 126.884C73.2358 126.713 73.656 126.628 74.12 126.628C74.5888 126.628 75.0054 126.712 75.37 126.88C75.7346 127.046 76.0234 127.273 76.2365 127.562C76.4519 127.851 76.5656 128.179 76.5774 128.545H75.7251ZM80.3691 134H78.1248V126.727H80.4686C81.1741 126.727 81.7778 126.873 82.2797 127.164C82.7815 127.453 83.1663 127.868 83.4338 128.411C83.7013 128.95 83.835 129.597 83.835 130.349C83.835 131.107 83.7001 131.759 83.4302 132.306C83.1603 132.851 82.7673 133.27 82.2512 133.563C81.7351 133.854 81.1078 134 80.3691 134ZM79.0055 133.219H80.3123C80.9136 133.219 81.412 133.103 81.8074 132.871C82.2027 132.639 82.4975 132.308 82.6916 131.88C82.8857 131.451 82.9828 130.941 82.9828 130.349C82.9828 129.762 82.8869 129.257 82.6951 128.833C82.5034 128.407 82.2169 128.08 81.8358 127.853C81.4546 127.623 80.9799 127.509 80.4118 127.509H79.0055V133.219ZM84.6119 127.509V126.727H90.0664V127.509H87.7795V134H86.8988V127.509H84.6119Z" fill="white"/>
<path d="M32.9663 187.182V165.364H34.364V187.182H32.9663ZM37.6708 171.909C37.5685 171.045 37.1538 170.375 36.4265 169.898C35.6992 169.42 34.8072 169.182 33.7504 169.182C32.9776 169.182 32.3015 169.307 31.7219 169.557C31.1481 169.807 30.6992 170.151 30.3754 170.588C30.0572 171.026 29.8981 171.523 29.8981 172.08C29.8981 172.545 30.0089 172.946 30.2305 173.281C30.4577 173.611 30.7475 173.886 31.0998 174.108C31.4521 174.324 31.8214 174.503 32.2077 174.645C32.5941 174.781 32.9492 174.892 33.2731 174.977L35.0458 175.455C35.5004 175.574 36.006 175.739 36.5629 175.949C37.1254 176.159 37.6623 176.446 38.1737 176.81C38.6907 177.168 39.1168 177.628 39.4521 178.19C39.7873 178.753 39.9549 179.443 39.9549 180.261C39.9549 181.205 39.7077 182.057 39.2134 182.818C38.7248 183.58 38.0089 184.185 37.0657 184.634C36.1282 185.082 34.989 185.307 33.6481 185.307C32.3981 185.307 31.3157 185.105 30.4009 184.702C29.4918 184.298 28.7759 183.736 28.2532 183.014C27.7362 182.293 27.4435 181.455 27.3754 180.5H29.5572C29.614 181.159 29.8356 181.705 30.2219 182.136C30.614 182.562 31.1083 182.881 31.7049 183.091C32.3072 183.295 32.9549 183.398 33.6481 183.398C34.4549 183.398 35.1793 183.267 35.8214 183.006C36.4634 182.739 36.9719 182.369 37.3469 181.898C37.7219 181.42 37.9094 180.864 37.9094 180.227C37.9094 179.648 37.7475 179.176 37.4237 178.812C37.0998 178.449 36.6737 178.153 36.1452 177.926C35.6168 177.699 35.0458 177.5 34.4322 177.33L32.2844 176.716C30.9208 176.324 29.8413 175.764 29.0458 175.037C28.2504 174.31 27.8526 173.358 27.8526 172.182C27.8526 171.205 28.1168 170.352 28.6452 169.625C29.1793 168.892 29.8952 168.324 30.793 167.92C31.6964 167.511 32.7049 167.307 33.8185 167.307C34.9435 167.307 35.9435 167.509 36.8185 167.912C37.6935 168.31 38.3867 168.855 38.8981 169.548C39.4151 170.241 39.6879 171.028 39.7163 171.909H37.6708ZM55.5664 185.239C54.2823 185.239 53.1886 184.889 52.2852 184.19C51.3817 183.486 50.6914 182.466 50.2141 181.131C49.7369 179.79 49.4982 178.17 49.4982 176.273C49.4982 174.386 49.7369 172.776 50.2141 171.44C50.6971 170.099 51.3903 169.077 52.2937 168.372C53.2028 167.662 54.2937 167.307 55.5664 167.307C56.8391 167.307 57.9272 167.662 58.8306 168.372C59.7397 169.077 60.4329 170.099 60.9102 171.44C61.3931 172.776 61.6346 174.386 61.6346 176.273C61.6346 178.17 61.396 179.79 60.9187 181.131C60.4414 182.466 59.7511 183.486 58.8477 184.19C57.9442 184.889 56.8505 185.239 55.5664 185.239ZM55.5664 183.364C56.8391 183.364 57.8278 182.75 58.5323 181.523C59.2369 180.295 59.5891 178.545 59.5891 176.273C59.5891 174.761 59.4272 173.474 59.1033 172.412C58.7852 171.349 58.3249 170.54 57.7227 169.983C57.1261 169.426 56.4073 169.148 55.5664 169.148C54.305 169.148 53.3192 169.77 52.609 171.014C51.8988 172.253 51.5437 174.006 51.5437 176.273C51.5437 177.784 51.7028 179.068 52.021 180.125C52.3391 181.182 52.7965 181.986 53.3931 182.537C53.9954 183.088 54.7198 183.364 55.5664 183.364ZM65.7638 185.136C65.3434 185.136 64.9826 184.986 64.6815 184.685C64.3803 184.384 64.2298 184.023 64.2298 183.602C64.2298 183.182 64.3803 182.821 64.6815 182.52C64.9826 182.219 65.3434 182.068 65.7638 182.068C66.1843 182.068 66.5451 182.219 66.8462 182.52C67.1474 182.821 67.2979 183.182 67.2979 183.602C67.2979 183.881 67.2269 184.136 67.0849 184.369C66.9485 184.602 66.7638 184.79 66.5309 184.932C66.3036 185.068 66.0479 185.136 65.7638 185.136ZM75.957 185.239C74.6729 185.239 73.5792 184.889 72.6758 184.19C71.7724 183.486 71.082 182.466 70.6048 181.131C70.1275 179.79 69.8888 178.17 69.8888 176.273C69.8888 174.386 70.1275 172.776 70.6048 171.44C71.0877 170.099 71.7809 169.077 72.6843 168.372C73.5934 167.662 74.6843 167.307 75.957 167.307C77.2298 167.307 78.3178 167.662 79.2212 168.372C80.1303 169.077 80.8235 170.099 81.3008 171.44C81.7837 172.776 82.0252 174.386 82.0252 176.273C82.0252 178.17 81.7866 179.79 81.3093 181.131C80.832 182.466 80.1417 183.486 79.2383 184.19C78.3349 184.889 77.2411 185.239 75.957 185.239ZM75.957 183.364C77.2298 183.364 78.2184 182.75 78.9229 181.523C79.6275 180.295 79.9798 178.545 79.9798 176.273C79.9798 174.761 79.8178 173.474 79.494 172.412C79.1758 171.349 78.7156 170.54 78.1133 169.983C77.5167 169.426 76.7979 169.148 75.957 169.148C74.6957 169.148 73.7099 169.77 72.9996 171.014C72.2894 172.253 71.9343 174.006 71.9343 176.273C71.9343 177.784 72.0934 179.068 72.4116 180.125C72.7298 181.182 73.1871 181.986 73.7837 182.537C74.386 183.088 75.1104 183.364 75.957 183.364ZM90.957 185.239C89.6729 185.239 88.5792 184.889 87.6758 184.19C86.7724 183.486 86.082 182.466 85.6048 181.131C85.1275 179.79 84.8888 178.17 84.8888 176.273C84.8888 174.386 85.1275 172.776 85.6048 171.44C86.0877 170.099 86.7809 169.077 87.6843 168.372C88.5934 167.662 89.6843 167.307 90.957 167.307C92.2298 167.307 93.3178 167.662 94.2212 168.372C95.1303 169.077 95.8235 170.099 96.3008 171.44C96.7837 172.776 97.0252 174.386 97.0252 176.273C97.0252 178.17 96.7866 179.79 96.3093 181.131C95.832 182.466 95.1417 183.486 94.2383 184.19C93.3349 184.889 92.2411 185.239 90.957 185.239ZM90.957 183.364C92.2298 183.364 93.2184 182.75 93.9229 181.523C94.6275 180.295 94.9798 178.545 94.9798 176.273C94.9798 174.761 94.8178 173.474 94.494 172.412C94.1758 171.349 93.7156 170.54 93.1133 169.983C92.5167 169.426 91.7979 169.148 90.957 169.148C89.6957 169.148 88.7099 169.77 87.9996 171.014C87.2894 172.253 86.9343 174.006 86.9343 176.273C86.9343 177.784 87.0934 179.068 87.4116 180.125C87.7298 181.182 88.1871 181.986 88.7837 182.537C89.386 183.088 90.1104 183.364 90.957 183.364ZM105.957 185.239C104.673 185.239 103.579 184.889 102.676 184.19C101.772 183.486 101.082 182.466 100.605 181.131C100.127 179.79 99.8888 178.17 99.8888 176.273C99.8888 174.386 100.127 172.776 100.605 171.44C101.088 170.099 101.781 169.077 102.684 168.372C103.593 167.662 104.684 167.307 105.957 167.307C107.23 167.307 108.318 167.662 109.221 168.372C110.13 169.077 110.824 170.099 111.301 171.44C111.784 172.776 112.025 174.386 112.025 176.273C112.025 178.17 111.787 179.79 111.309 181.131C110.832 182.466 110.142 183.486 109.238 184.19C108.335 184.889 107.241 185.239 105.957 185.239ZM105.957 183.364C107.23 183.364 108.218 182.75 108.923 181.523C109.627 180.295 109.98 178.545 109.98 176.273C109.98 174.761 109.818 173.474 109.494 172.412C109.176 171.349 108.716 170.54 108.113 169.983C107.517 169.426 106.798 169.148 105.957 169.148C104.696 169.148 103.71 169.77 103 171.014C102.289 172.253 101.934 174.006 101.934 176.273C101.934 177.784 102.093 179.068 102.412 180.125C102.73 181.182 103.187 181.986 103.784 182.537C104.386 183.088 105.11 183.364 105.957 183.364ZM115.264 185V183.466L121.025 177.159C121.701 176.42 122.258 175.778 122.696 175.233C123.133 174.682 123.457 174.165 123.667 173.682C123.883 173.193 123.991 172.682 123.991 172.148C123.991 171.534 123.843 171.003 123.548 170.554C123.258 170.105 122.86 169.759 122.355 169.514C121.849 169.27 121.281 169.148 120.65 169.148C119.98 169.148 119.395 169.287 118.895 169.565C118.4 169.838 118.017 170.222 117.744 170.716C117.477 171.21 117.343 171.79 117.343 172.455H115.332C115.332 171.432 115.568 170.534 116.039 169.761C116.511 168.989 117.153 168.386 117.966 167.955C118.784 167.523 119.701 167.307 120.718 167.307C121.741 167.307 122.647 167.523 123.437 167.955C124.227 168.386 124.846 168.969 125.295 169.702C125.744 170.435 125.968 171.25 125.968 172.148C125.968 172.79 125.852 173.418 125.619 174.031C125.392 174.639 124.994 175.318 124.426 176.068C123.863 176.812 123.082 177.722 122.082 178.795L118.162 182.989V183.125H126.275V185H115.264Z" fill="#81D7C1"/>
<defs>
<linearGradient id="paint0_linear_754_815" x1="77" y1="0" x2="77.5" y2="240" gradientUnits="userSpaceOnUse">
<stop stop-color="#59AF99"/>
<stop offset="1" stop-opacity="0"/>
</linearGradient>
</defs>
</svg>
