<svg width="46" height="46" viewBox="0 0 46 46" fill="none" xmlns="http://www.w3.org/2000/svg">
<path d="M30.2221 27.75H20.4272C19.8613 27.7495 19.311 27.5631 18.8597 27.219C18.4084 26.8749 18.0806 26.3919 17.9261 25.8432L14.6146 14.1924C14.5219 13.8634 14.3253 13.5739 14.0546 13.3677C13.7839 13.1616 13.4539 13.05 13.1146 13.05H10.5208C10.3827 13.05 10.2502 12.9947 10.1526 12.8962C10.0549 12.7978 10 12.6642 10 12.525C10 12.3858 10.0549 12.2522 10.1526 12.1538C10.2502 12.0553 10.3827 12 10.5208 12H13.1146C14.2761 12 15.3053 12.7843 15.6157 13.9068L16.2688 16.2H33.4367C33.9357 16.2 34.393 16.431 34.6899 16.8342C34.9878 17.2374 35.0763 17.7456 34.9326 18.2265L32.6919 25.944C32.5216 26.469 32.191 26.9263 31.7475 27.2506C31.3039 27.5749 30.7701 27.7497 30.2221 27.75ZM16.5667 17.25L18.9282 25.5576C19.1147 26.2317 19.7303 26.7 20.4272 26.7H30.2221C30.5475 26.6975 30.864 26.5933 31.1282 26.4019C31.3924 26.2105 31.5911 25.9412 31.6971 25.6311L33.9357 17.9262C33.9593 17.8478 33.9643 17.765 33.9501 17.6844C33.936 17.6037 33.9032 17.5276 33.8544 17.4621C33.8065 17.3959 33.7436 17.3421 33.671 17.3052C33.5984 17.2683 33.5181 17.2494 33.4367 17.25H16.5667ZM21.4585 33C20.3095 33 19.3751 32.0581 19.3751 30.9C19.3751 29.7418 20.3095 28.8 21.4585 28.8C22.6074 28.8 23.5418 29.7418 23.5418 30.9C23.5418 32.0581 22.6074 33 21.4585 33ZM21.4585 29.85C21.1903 29.8621 20.937 29.978 20.7515 30.1736C20.5659 30.3692 20.4623 30.6294 20.4623 30.9C20.4623 31.1706 20.5659 31.4308 20.7515 31.6264C20.937 31.822 21.1903 31.9379 21.4585 31.95C21.7267 31.9379 21.9799 31.822 22.1655 31.6264C22.351 31.4308 22.4546 31.1706 22.4546 30.9C22.4546 30.6294 22.351 30.3692 22.1655 30.1736C21.9799 29.978 21.7267 29.8621 21.4585 29.85ZM28.7502 33C27.6012 33 26.6669 32.0581 26.6669 30.9C26.6669 29.7418 27.6012 28.8 28.7502 28.8C29.8992 28.8 30.8336 29.7418 30.8336 30.9C30.8336 32.0581 29.8992 33 28.7502 33ZM28.7502 29.85C28.482 29.8621 28.2288 29.978 28.0432 30.1736C27.8577 30.3692 27.7541 30.6294 27.7541 30.9C27.7541 31.1706 27.8577 31.4308 28.0432 31.6264C28.2288 31.822 28.482 31.9379 28.7502 31.95C29.0184 31.9379 29.2717 31.822 29.4572 31.6264C29.6428 31.4308 29.7463 31.1706 29.7463 30.9C29.7463 30.6294 29.6428 30.3692 29.4572 30.1736C29.2717 29.978 29.0184 29.8621 28.7502 29.85Z" fill="#F9BA0B"/>
</svg>
