<svg width="46" height="48" viewBox="0 0 46 48" fill="none" xmlns="http://www.w3.org/2000/svg">
<path d="M24.25 1.14434C23.4765 0.697756 22.5235 0.697756 21.75 1.14434L3.83142 11.4896C3.05791 11.9362 2.58142 12.7615 2.58142 13.6547V34.3453C2.58142 35.2385 3.05791 36.0638 3.83142 36.5104L21.75 46.8557C22.5235 47.3022 23.4765 47.3022 24.25 46.8557L42.1686 36.5104C42.9421 36.0638 43.4186 35.2385 43.4186 34.3453V13.6547C43.4186 12.7615 42.9421 11.9362 42.1686 11.4896L24.25 1.14434Z" stroke="url(#paint0_linear_594_2292)" stroke-linejoin="round"/>
<path fill-rule="evenodd" clip-rule="evenodd" d="M24 4.57752C23.3811 4.22025 22.6188 4.22025 22 4.57752L6.67944 13.4228C6.06064 13.7801 5.67944 14.4403 5.67944 15.1549V32.8455C5.67944 33.56 6.06064 34.2203 6.67944 34.5775L22 43.4228C22.6188 43.7801 23.3812 43.7801 24 43.4228L39.3205 34.5775C39.9393 34.2203 40.3205 33.56 40.3205 32.8455V15.1549C40.3205 14.4403 39.9393 13.7801 39.3205 13.4228L24 4.57752ZM20.4272 28.75H30.2221C30.77 28.7498 31.3039 28.575 31.7474 28.2506C32.191 27.9263 32.5215 27.469 32.6919 26.944L34.9325 19.2265C35.0763 18.7456 34.9877 18.2374 34.6898 17.8342C34.393 17.431 33.9357 17.2 33.4367 17.2H16.2688L15.6156 14.9068C15.3052 13.7844 14.276 13 13.1146 13H10.5208C10.3827 13 10.2502 13.0554 10.1525 13.1538C10.0548 13.2523 9.99995 13.3858 9.99995 13.525C9.99995 13.6643 10.0548 13.7978 10.1525 13.8963C10.2502 13.9947 10.3827 14.05 10.5208 14.05H13.1146C13.4539 14.0501 13.7839 14.1616 14.0546 14.3678C14.3253 14.5739 14.5219 14.8635 14.6146 15.1924L17.9261 26.8432C18.0806 27.392 18.4083 27.875 18.8597 28.2191C19.311 28.5632 19.8613 28.7496 20.4272 28.75ZM18.9282 26.5576L16.5667 18.25H33.4367C33.518 18.2495 33.5983 18.2684 33.6709 18.3053C33.7436 18.3421 33.8065 18.3959 33.8544 18.4621C33.9032 18.5276 33.936 18.6038 33.9501 18.6844C33.9642 18.765 33.9593 18.8479 33.9357 18.9262L31.6971 26.6311C31.5911 26.9412 31.3923 27.2105 31.1281 27.4019C30.864 27.5934 30.5474 27.6975 30.2221 27.7H20.4272C19.7303 27.7 19.1146 27.2317 18.9282 26.5576ZM19.3751 31.9C19.3751 33.0582 20.3094 34 21.4584 34C22.6074 34 23.5418 33.0582 23.5418 31.9C23.5418 30.7419 22.6074 29.8 21.4584 29.8C20.3094 29.8 19.3751 30.7419 19.3751 31.9ZM20.7514 31.1736C20.937 30.978 21.1902 30.8621 21.4584 30.85C21.7266 30.8621 21.9799 30.978 22.1654 31.1736C22.351 31.3692 22.4545 31.6294 22.4545 31.9C22.4545 32.1707 22.351 32.4309 22.1654 32.6265C21.9799 32.822 21.7266 32.938 21.4584 32.95C21.1902 32.938 20.937 32.822 20.7514 32.6265C20.5659 32.4309 20.4623 32.1707 20.4623 31.9C20.4623 31.6294 20.5659 31.3692 20.7514 31.1736ZM26.6668 31.9C26.6668 33.0582 27.6012 34 28.7502 34C29.8991 34 30.8335 33.0582 30.8335 31.9C30.8335 30.7419 29.8991 29.8 28.7502 29.8C27.6012 29.8 26.6668 30.7419 26.6668 31.9ZM28.0432 31.1736C28.2287 30.978 28.482 30.8621 28.7502 30.85C29.0184 30.8621 29.2716 30.978 29.4572 31.1736C29.6427 31.3692 29.7463 31.6294 29.7463 31.9C29.7463 32.1707 29.6427 32.4309 29.4572 32.6265C29.2716 32.822 29.0184 32.938 28.7502 32.95C28.482 32.938 28.2287 32.822 28.0432 32.6265C27.8576 32.4309 27.754 32.1707 27.754 31.9C27.754 31.6294 27.8576 31.3692 28.0432 31.1736Z" fill="#F9BA0B"/>
<defs>
<linearGradient id="paint0_linear_594_2292" x1="23" y1="1" x2="23" y2="47" gradientUnits="userSpaceOnUse">
<stop stop-color="#F9BA0B"/>
<stop offset="1" stop-color="#040612"/>
</linearGradient>
</defs>
</svg>
