<svg width="48" height="47" viewBox="0 0 48 47" fill="none" xmlns="http://www.w3.org/2000/svg">
<path d="M24 47C36.9787 47 47.5 36.4787 47.5 23.5C47.5 10.5213 36.9787 0 24 0C11.0213 0 0.5 10.5213 0.5 23.5C0.5 36.4787 11.0213 47 24 47Z" fill="#59AF99"/>
<path d="M26.4393 20.6075V17.8322H32.7538V13.4541H15.2298V17.8322H21.5607V20.6075C16.2568 20.8637 12.2759 21.9282 12.2759 23.1925C12.2759 24.4568 16.2521 25.5261 21.5607 25.7775V34.9425H26.4393V25.7775C31.7433 25.5237 35.7242 24.4592 35.7242 23.1925C35.7242 21.9259 31.755 20.8637 26.4393 20.6075ZM24 24.9691C18.2566 24.9691 13.6013 24.0808 13.6013 23.0115C13.6013 22.0927 16.9923 21.3195 21.556 21.1127V24.2477C22.3409 24.2829 23.1564 24.304 23.9953 24.304C24.8343 24.304 25.6544 24.2829 26.4346 24.2477V21.1127C30.9983 21.3195 34.3894 22.0927 34.3894 23.0115C34.3988 24.0925 29.7434 24.9691 24 24.9691Z" fill="white"/>
</svg>
