<svg width="42" height="42" viewBox="0 0 42 42" fill="none" xmlns="http://www.w3.org/2000/svg">
<circle cx="21" cy="21" r="21" fill="#2C3447"/>
<path d="M21.7036 30.2794C21.8357 30.5528 22.0044 30.4613 22.0326 30.4499L23.881 29.7024C23.9069 29.7457 23.938 29.7849 23.9735 29.8189C24.3463 30.1742 25.0918 30.7881 25.863 30.9331C26.3404 31.0286 26.83 31.0219 27.3051 30.9132C27.7851 30.7909 28.0764 30.5124 28.1303 30.1571C28.1843 29.8019 27.989 29.4438 27.5776 29.1453C27.1306 28.8483 26.6324 28.6577 26.1149 28.5854C26.2614 28.4973 26.4054 28.4064 26.5494 28.3097C26.5982 28.3915 26.6667 28.4565 26.7473 28.4973C27.321 28.8058 27.9455 28.9819 28.5828 29.0146C28.6702 29.0146 28.755 29.0089 28.8424 29.0004C30.0404 28.8526 30.8964 28.2387 30.8296 27.5679C30.7936 27.207 30.5159 26.9227 30.0455 26.7579C29.5965 26.621 29.1279 26.5805 28.665 26.6385C28.8141 26.5021 28.9607 26.3572 29.1046 26.2094C29.185 26.3069 29.2966 26.366 29.4157 26.3742C29.5339 26.3827 29.6779 26.3913 29.8373 26.3913C30.4205 26.4104 31.0002 26.2851 31.5339 26.0246C32.6111 25.4164 33.2126 24.5069 32.935 23.9044C32.7884 23.5832 32.4363 23.424 31.9453 23.4553C31.6889 23.4771 31.436 23.5334 31.192 23.623C31.2537 23.5349 31.3103 23.4439 31.3643 23.353C31.449 23.3979 31.5436 23.4147 31.6368 23.4013C32.1252 23.316 33.0301 23.0943 33.6316 22.5373C34.5597 21.6846 34.9633 20.6472 34.5725 20.13C34.2769 19.7377 33.6368 19.7861 32.9427 20.201C32.9838 20.0902 33.0275 19.9793 33.0686 19.8628C33.1261 19.8576 33.1829 19.8461 33.2383 19.8287C33.701 19.6383 34.5468 19.2119 35.0327 18.5355C35.3419 18.1205 35.5727 17.6411 35.7113 17.1258C35.8347 16.6 35.7653 16.1879 35.5082 15.9633C35.2512 15.7388 34.8733 15.7587 34.4388 16.0116C34.2628 16.117 34.0973 16.2428 33.9453 16.3868C33.9504 16.3555 33.9941 16.0031 34.0018 15.8553C34.0588 15.8359 34.114 15.8102 34.1663 15.7786C34.5751 15.4716 35.3077 14.8407 35.6393 14.0562C36.1483 12.8483 36.1149 11.72 35.5622 11.4357C35.2666 11.2823 34.9016 11.396 34.5314 11.7569C34.1778 12.1244 33.8938 12.5659 33.6959 13.0558C33.6067 13.2707 33.542 13.4969 33.5031 13.7294C33.48 13.6867 33.4568 13.647 33.4337 13.61C33.1535 13.1609 32.8219 12.9535 32.5031 13.0245C31.9041 13.1524 31.6265 14.2381 31.8579 15.5484C32.0095 16.3982 32.5854 17.2054 32.9144 17.6089C32.9427 17.6436 32.9757 17.6734 33.0121 17.6971C33.0532 17.7286 33.0995 17.7508 33.1483 17.7624C33.0764 18.0779 32.9941 18.3849 32.899 18.6918C32.8935 18.6221 32.8841 18.5528 32.8707 18.4843L32.8244 18.2456C32.5802 17.1485 32.0532 16.4039 31.5288 16.4039C31.4891 16.4034 31.4495 16.4072 31.4105 16.4152C30.8116 16.5431 30.5365 17.6288 30.7679 18.9391C30.9195 19.7889 31.4954 20.5961 31.8244 20.9997C31.8538 21.0362 31.8886 21.0669 31.9273 21.0906C31.7501 21.3294 31.5967 21.5886 31.4697 21.8637C31.4697 20.7979 31.1303 20.0049 30.6059 19.9424C30.282 19.9026 29.971 20.1413 29.7242 20.6131C29.4968 21.0876 29.357 21.6074 29.3129 22.1422C29.2306 23.0034 29.5622 23.9612 29.7679 24.4557C29.7799 24.4848 29.7946 24.5124 29.8116 24.5382C29.755 24.6007 29.39 25.0668 29.2872 25.2231C29.2173 25.3079 29.1435 25.3885 29.0661 25.4647C29.1539 25.1767 29.2033 24.876 29.2126 24.5723C29.2383 23.2364 28.7962 22.2218 28.1869 22.2047C27.5725 22.1962 27.0944 23.1881 27.0686 24.5211C27.0532 25.3794 27.4517 26.2946 27.6959 26.7693C27.3514 27.0592 26.9967 27.3311 26.6316 27.585C26.7591 27.3326 26.8542 27.0619 26.9144 26.7806C27.174 25.4761 26.9221 24.3847 26.3257 24.2369C25.7293 24.0891 25.0815 24.9645 24.8219 26.2662C24.6573 27.0819 24.8707 28.0312 25.0249 28.5627C24.8887 28.6366 24.6008 28.7758 24.6008 28.7758C24.39 28.8782 23.8321 29.1169 23.7704 29.1425L21.8553 29.9156C21.8227 29.9268 21.7926 29.9455 21.767 29.9704C21.7413 29.9954 21.7207 30.0259 21.7064 30.0602C21.6921 30.0945 21.6845 30.1317 21.684 30.1695C21.6835 30.2072 21.6902 30.2446 21.7036 30.2794ZM33.9401 14.997C33.9427 14.9941 33.9427 14.9913 33.9401 14.9913C33.8968 14.4152 33.9733 13.8357 34.1638 13.2974C34.3302 12.8778 34.5706 12.4991 34.8707 12.1832C34.9812 12.053 35.1277 11.9671 35.2872 11.9388C35.3066 11.9374 35.326 11.9413 35.3437 11.9502C35.5468 12.0525 35.5802 12.8511 35.174 13.8175C34.8846 14.3865 34.4755 14.87 33.9812 15.2272C33.9723 15.2332 33.9637 15.2398 33.9555 15.2471C33.9504 15.1704 33.9427 15.0882 33.9401 14.997ZM33.2923 19.1949C33.4788 18.6124 33.6342 18.0183 33.7576 17.4157C34.009 17.0516 34.3226 16.7455 34.6805 16.5147C34.7999 16.4348 34.9346 16.3871 35.0738 16.3754C35.1147 16.3726 35.1553 16.3846 35.1895 16.4095C35.2512 16.4636 35.2949 16.6454 35.2126 16.9808C35.0918 17.4194 34.8935 17.8271 34.6291 18.1802C34.2612 18.6292 33.8034 18.9766 33.2923 19.1949ZM33.2357 17.1514C32.8238 16.6678 32.5247 16.0805 32.3643 15.4404C32.1766 14.3944 32.3848 13.6299 32.6008 13.5816C32.6805 13.5645 32.8321 13.647 33.0095 13.934C33.2116 14.278 33.3537 14.6607 33.4285 15.0624C33.4388 15.1078 33.4491 15.1562 33.4568 15.2016C33.4772 15.3216 33.4884 15.4433 33.4902 15.5654C33.4959 15.8016 33.4796 16.0378 33.4414 16.2703C33.4363 16.3129 33.4285 16.3527 33.4208 16.3953C33.3735 16.6514 33.3116 16.9039 33.2357 17.1514ZM32.1432 20.5421C31.7322 20.0578 31.4332 19.4708 31.2717 18.8311C31.0866 17.7852 31.2923 17.0206 31.5108 16.9723C31.7293 16.924 32.1818 17.5464 32.3668 18.5923C32.4362 19.2527 32.3594 19.9218 32.1432 20.5421ZM31.6496 22.8243C31.8297 22.2323 32.1234 21.6903 32.5108 21.2356C32.5108 21.2356 32.5648 21.1787 32.5905 21.156C32.9716 20.759 33.4549 20.5027 33.9735 20.4227C34.0104 20.4178 34.0478 20.4216 34.0833 20.4338C34.1187 20.4461 34.1514 20.4665 34.1792 20.4938C34.3206 20.6813 34.0329 21.4072 33.3026 22.1024C32.7324 22.645 31.6625 22.8215 31.6496 22.8243ZM30.9324 22.3355C30.8527 23.2387 30.1946 24.1204 30.1946 24.1175C29.9324 23.5217 29.8054 22.8642 29.8244 22.2019C29.861 21.7451 29.9789 21.3007 30.1715 20.8945C30.3283 20.5932 30.4774 20.4994 30.5519 20.5051C30.773 20.5335 31.026 21.2742 30.9324 22.3355ZM29.5442 25.8143C29.5828 25.7489 29.6303 25.6807 29.6753 25.6011C29.8972 25.2551 30.1571 24.941 30.4491 24.6661C30.5571 24.5712 30.6734 24.4884 30.7962 24.4188C31.1613 24.2028 31.5614 24.0686 31.9735 24.0237C32.007 24.0209 32.4123 24.0209 32.4774 24.163C32.5774 24.3818 32.1612 25.0327 31.3 25.5159C30.7451 25.7705 30.1427 25.8729 29.5442 25.8143ZM28.4851 25.5784C28.3788 25.8669 28.2515 26.1454 28.1046 26.4112C27.7964 25.8405 27.6173 25.196 27.5828 24.5325C27.6033 23.4723 27.9504 22.7732 28.1715 22.7732H28.174C28.3977 22.7789 28.719 23.4951 28.6985 24.5581C28.6821 24.9094 28.6098 25.2548 28.4851 25.5784ZM27.0481 28.0255C27.5196 27.6132 28.0744 27.3333 28.665 27.2098C28.8051 27.1929 28.9458 27.1843 29.0866 27.1842C29.3594 27.1797 29.6313 27.2189 29.8938 27.3008C30.1946 27.4059 30.3103 27.5423 30.318 27.6276C30.3437 27.872 29.7447 28.3183 28.7859 28.4348C28.1853 28.4547 27.5892 28.3144 27.0481 28.0255ZM26.0224 27.6106C25.8733 27.8635 25.5237 28.3183 25.5031 28.3438C25.3044 27.7178 25.2428 27.0487 25.3231 26.3913C25.5087 25.3871 25.9828 24.7346 26.2126 24.794C26.4301 24.8508 26.6188 25.6153 26.4105 26.6556C26.3338 26.997 26.2024 27.3205 26.0224 27.6106ZM24.3797 29.4551C24.4928 29.4068 24.6265 29.3556 24.7756 29.3102C24.7756 29.3073 24.7782 29.3073 24.7807 29.3073C25.1085 29.197 25.4484 29.1368 25.791 29.1283C25.9064 29.1284 26.0216 29.1389 26.1355 29.1595C26.5453 29.2286 26.939 29.3849 27.2949 29.62C27.5571 29.8104 27.6368 29.9781 27.6239 30.0633C27.6111 30.1486 27.4851 30.2765 27.1818 30.3618C26.7759 30.4546 26.3576 30.4584 25.9504 30.3731C25.3788 30.2172 24.8497 29.9111 24.408 29.4807C24.398 29.4729 24.3886 29.4643 24.3797 29.4551ZM20.1447 29.9156L18.2296 29.1425C18.1679 29.1169 17.61 28.8782 17.3992 28.7758C17.3992 28.7758 17.1113 28.6366 16.9751 28.5627C17.1293 28.0312 17.3427 27.0819 17.1781 26.2662C16.9185 24.9645 16.2707 24.0919 15.6743 24.2369C15.0779 24.3818 14.826 25.4761 15.0856 26.7806C15.1458 27.0619 15.2409 27.3326 15.3684 27.585C15.0033 27.332 14.6486 27.0601 14.3041 26.7693C14.5483 26.2946 14.9468 25.3794 14.9314 24.5211C14.9057 23.1881 14.4275 22.1962 13.8131 22.2047C13.2038 22.2218 12.7617 23.2364 12.7874 24.5723C12.7967 24.876 12.8461 25.1767 12.9339 25.4647C12.8565 25.3885 12.7827 25.3079 12.7128 25.2231C12.61 25.0668 12.245 24.6007 12.1884 24.5382C12.2054 24.5124 12.2201 24.4848 12.2321 24.4557C12.4378 23.9612 12.7694 23.0034 12.6871 22.1422C12.643 21.6074 12.5032 21.0876 12.2758 20.6131C12.029 20.1413 11.718 19.9026 11.3941 19.9424C10.8697 20.0049 10.5303 20.7979 10.5303 21.8637C10.4033 21.5886 10.2499 21.3294 10.0727 21.0906C10.1114 21.0669 10.1462 21.0362 10.1756 20.9997C10.5046 20.5961 11.0805 19.7889 11.2321 18.9391C11.4635 17.6288 11.1884 16.5431 10.5894 16.4152C10.5505 16.4072 10.5109 16.4034 10.4712 16.4039C9.94678 16.4039 9.41978 17.1485 9.17557 18.2456L9.12929 18.4843C9.11592 18.5528 9.10647 18.6221 9.10102 18.6918C9.0059 18.3849 8.92364 18.0779 8.85166 17.7624C8.90053 17.7508 8.94683 17.7286 8.98791 17.6971C9.02434 17.6734 9.05728 17.6436 9.08559 17.6089C9.41464 17.2054 9.99048 16.3982 10.1421 15.5484C10.3735 14.2381 10.0959 13.1524 9.4969 13.0245C9.17814 12.9535 8.84652 13.1609 8.56631 13.61C8.54318 13.6479 8.52004 13.6877 8.4969 13.7294C8.45804 13.4969 8.39328 13.2707 8.3041 13.0558C8.10624 12.5659 7.82224 12.1244 7.46862 11.7569C7.09844 11.396 6.73341 11.2823 6.43778 11.4357C5.88508 11.72 5.85166 12.8483 6.36065 14.0562C6.69227 14.8407 7.42492 15.4716 7.83366 15.7786C7.88603 15.8102 7.94115 15.8359 7.99819 15.8553C8.0059 16.0031 8.0496 16.3555 8.05474 16.3868C7.9027 16.2428 7.73724 16.117 7.56117 16.0116C7.12672 15.7587 6.74626 15.7416 6.49176 15.9633C6.23726 16.185 6.16528 16.6 6.28868 17.1258C6.42732 17.6411 6.65809 18.1205 6.96734 18.5355C7.4532 19.2119 8.29896 19.6383 8.76168 19.8287C8.8171 19.8461 8.87392 19.8576 8.93135 19.8628C8.97248 19.9793 9.01618 20.0902 9.05732 20.201C8.36323 19.7861 7.72312 19.7377 7.42749 20.13C7.03675 20.6472 7.44035 21.6846 8.36837 22.5373C8.96991 23.0943 9.8748 23.316 10.3632 23.4013C10.4564 23.4147 10.551 23.3979 10.6357 23.353C10.6897 23.4439 10.7463 23.5349 10.808 23.623C10.564 23.5334 10.3111 23.4771 10.0547 23.4553C9.56374 23.424 9.21156 23.5832 9.06503 23.9044C8.78739 24.5069 9.38894 25.4164 10.4661 26.0246C10.9998 26.2851 11.5795 26.4104 12.1627 26.3913C12.3221 26.3913 12.4661 26.3827 12.5843 26.3742C12.7034 26.366 12.815 26.3069 12.8954 26.2094C13.0393 26.3572 13.1859 26.5021 13.335 26.6385C12.8721 26.5805 12.4035 26.621 11.9545 26.7579C11.4841 26.9227 11.2064 27.207 11.1704 27.5679C11.1036 28.2387 11.9596 28.8526 13.1576 29.0004C13.245 29.0089 13.3298 29.0146 13.4172 29.0146C14.0545 28.9819 14.679 28.8058 15.2527 28.4973C15.3333 28.4565 15.4018 28.3915 15.4506 28.3097C15.5946 28.4064 15.7386 28.4973 15.8851 28.5854C15.3676 28.6577 14.8694 28.8483 14.4224 29.1453C14.011 29.4438 13.8157 29.8019 13.8697 30.1571C13.9236 30.5124 14.2149 30.7909 14.6949 30.9132C15.17 31.0219 15.6596 31.0286 16.137 30.9331C16.9082 30.7881 17.6537 30.1742 18.0265 29.8189C18.062 29.7849 18.0931 29.7457 18.119 29.7024L19.9674 30.4499C19.9956 30.4613 20.1643 30.5528 20.2964 30.2794C20.3098 30.2446 20.3165 30.2072 20.316 30.1695C20.3155 30.1317 20.3079 30.0945 20.2936 30.0602C20.2793 30.0259 20.2587 29.9954 20.233 29.9704C20.2074 29.9455 20.1773 29.9268 20.1447 29.9156ZM8.04446 15.2471C8.03633 15.2398 8.02774 15.2332 8.01875 15.2272C7.52452 14.87 7.11538 14.3865 6.82595 13.8175C6.41978 12.8511 6.4532 12.0525 6.65628 11.9502C6.67399 11.9413 6.69343 11.9374 6.71284 11.9388C6.8723 11.9671 7.01877 12.053 7.12929 12.1832C7.42944 12.4991 7.66976 12.8778 7.83623 13.2974C8.02672 13.8357 8.10322 14.4152 8.05989 14.9913C8.05731 14.9913 8.05731 14.9941 8.05989 14.997C8.05731 15.0879 8.0496 15.1704 8.04446 15.2471ZM7.37094 18.1799C7.10654 17.8268 6.90819 17.4191 6.78739 16.9805C6.70513 16.6452 6.74883 16.4633 6.81053 16.4093C6.84472 16.3843 6.88532 16.3724 6.92621 16.3752C7.06538 16.3868 7.20011 16.4345 7.31952 16.5144C7.67743 16.7452 7.99096 17.0513 8.2424 17.4154C8.36581 18.018 8.52118 18.6121 8.7077 19.1946C8.19659 18.9764 7.73879 18.6289 7.37094 18.1799ZM8.57917 16.3951C8.57145 16.3524 8.56374 16.3126 8.5586 16.27C8.52044 16.0375 8.50407 15.8013 8.50976 15.5651C8.51158 15.443 8.52276 15.3213 8.54318 15.2013C8.55089 15.1559 8.56117 15.1075 8.57145 15.0621C8.6463 14.6604 8.78841 14.2777 8.99048 13.9337C9.16786 13.6467 9.31953 13.5642 9.39922 13.5813C9.61516 13.6296 9.82338 14.3942 9.63572 15.4401C9.47532 16.0802 9.1762 16.6675 8.76426 17.1511C8.68836 16.9037 8.62654 16.651 8.57917 16.3951ZM9.63315 18.5921C9.81824 17.5461 10.2707 16.9265 10.4892 16.972C10.7077 17.0175 10.9134 17.7849 10.7283 18.8308C10.5668 19.4705 10.2678 20.0575 9.8568 20.5418C9.64061 19.9216 9.56386 19.2526 9.63315 18.5923V18.5921ZM8.69742 22.1021C7.96708 21.4069 7.67942 20.6811 7.82081 20.4935C7.8486 20.4662 7.8813 20.4458 7.91675 20.4336C7.9522 20.4213 7.98959 20.4175 8.02647 20.4224C8.54508 20.5024 9.02839 20.7587 9.4095 21.1557C9.43521 21.1784 9.48919 21.2353 9.48919 21.2353C9.87656 21.69 10.1703 22.232 10.3504 22.824C10.3375 22.8215 9.2676 22.645 8.69742 22.1021ZM11.4481 20.5048C11.5226 20.4992 11.6717 20.5929 11.8285 20.8942C12.0211 21.3004 12.139 21.7448 12.1756 22.2016C12.1946 22.8639 12.0676 23.5214 11.8054 24.1172C11.8054 24.1201 11.1473 23.2384 11.0676 22.3352C10.9743 21.2742 11.227 20.5333 11.4481 20.5048ZM10.7 25.5156C9.83881 25.0324 9.42261 24.3816 9.52261 24.1627C9.58765 24.0206 9.99305 24.0206 10.0265 24.0234C10.4386 24.0683 10.8387 24.2026 11.2038 24.4185C11.3266 24.4881 11.4429 24.5709 11.5509 24.6658C11.8429 24.9408 12.1028 25.2549 12.3247 25.6009C12.3697 25.6804 12.4172 25.7486 12.4558 25.814C11.8573 25.8727 11.2549 25.7702 10.7 25.5156ZM13.3015 24.5578C13.281 23.4948 13.6023 22.7786 13.826 22.7729H13.8285C14.0496 22.7729 14.3967 23.4721 14.4172 24.5322C14.3827 25.1957 14.2036 25.8402 13.8954 26.4109C13.7485 26.1451 13.6212 25.8666 13.5149 25.5781C13.3902 25.2546 13.318 24.9093 13.3015 24.5581V24.5578ZM13.2141 28.4345C12.2553 28.318 11.6563 27.8717 11.682 27.6273C11.6897 27.5421 11.8054 27.4056 12.1062 27.3005C12.3687 27.2187 12.6406 27.1794 12.9134 27.1839C13.0542 27.184 13.1949 27.1926 13.335 27.2095C13.9256 27.333 14.4804 27.6129 14.9519 28.0252C14.4106 28.3143 13.8142 28.4548 13.2134 28.4348L13.2141 28.4345ZM15.5895 26.6553C15.3812 25.6151 15.5699 24.8497 15.7874 24.7937C16.0172 24.7343 16.4913 25.3868 16.6769 26.391C16.7572 27.0484 16.6956 27.7175 16.4969 28.3435C16.4763 28.318 16.1267 27.8632 15.9776 27.6103C15.7977 27.3203 15.6662 26.9966 15.5895 26.6553ZM17.592 29.4804C17.1503 29.9108 16.6212 30.2169 16.0496 30.3729C15.6424 30.4581 15.2241 30.4543 14.8182 30.3615C14.5149 30.2762 14.3889 30.1483 14.3761 30.0631C14.3632 29.9778 14.4429 29.8101 14.7051 29.6197C15.061 29.3846 15.4547 29.2283 15.8645 29.1593C15.9784 29.1386 16.0936 29.1282 16.209 29.128C16.5516 29.1365 16.8915 29.1967 17.2193 29.307C17.2218 29.307 17.2244 29.307 17.2244 29.3099C17.3735 29.3554 17.5072 29.4065 17.6203 29.4548C17.6114 29.4641 17.602 29.4725 17.592 29.4804Z" fill="url(#paint0_linear_608_357)"/>
<path d="M20.711 16.3104H20.2745C19.8431 16.3104 19.4933 16.6601 19.4933 17.0916C19.4933 17.523 19.8431 17.8727 20.2745 17.8727H20.711C21.1789 17.8727 21.5848 17.9448 21.9287 18.0888C22.2726 18.2273 22.5376 18.4434 22.7236 18.737C22.9096 19.0307 23.0026 19.4129 23.0026 19.8839C23.0026 20.2994 22.9181 20.654 22.749 20.9476C22.5855 21.2412 22.3487 21.4629 22.0386 21.6124C21.7286 21.762 21.3593 21.8368 20.9309 21.8368C20.525 21.8368 20.1642 21.7593 19.8485 21.6041C19.5384 21.449 19.296 21.2357 19.1212 20.9642C18.8334 20.4929 18.4198 20.0085 17.8675 20.0085H17.8296C17.2773 20.0085 16.8077 20.4659 16.9603 20.9967C17.0115 21.175 17.0779 21.3443 17.1594 21.5044C17.3849 21.931 17.6893 22.2884 18.0727 22.5765C18.456 22.859 18.8901 23.0723 19.3749 23.2164C19.8597 23.3604 20.3671 23.4324 20.897 23.4324C21.489 23.4324 22.0358 23.3549 22.5376 23.1997C23.0449 23.0446 23.4875 22.8147 23.8652 22.51C24.2429 22.2053 24.5332 21.8341 24.7362 21.3964C24.9448 20.9531 25.0491 20.449 25.0491 19.8839C25.0491 19.4683 24.9729 19.075 24.8207 18.7038C24.6742 18.3326 24.4402 18.0029 24.1189 17.7148C24.0621 17.663 24.0024 17.6131 23.9397 17.5653C23.6197 17.321 23.5908 16.7204 23.8906 16.4517C24.2119 16.158 24.4543 15.8339 24.6178 15.4793C24.7813 15.1248 24.863 14.7757 24.863 14.4322C24.863 13.6787 24.6967 13.0471 24.3641 12.5374C24.0315 12.0277 23.5664 11.6454 22.9688 11.3906C22.3769 11.1302 21.6835 11 20.8886 11C20.1444 11 19.4736 11.144 18.876 11.4321C18.2841 11.7147 17.8162 12.1053 17.4723 12.6039C17.3153 12.8316 17.1941 13.0742 17.1088 13.3319C16.9352 13.8561 17.4041 14.3159 17.9564 14.3159H18.0401C18.5718 14.3159 18.9625 13.8448 19.2565 13.4017C19.4257 13.1413 19.654 12.9419 19.9415 12.8034C20.2346 12.6593 20.5616 12.5873 20.9224 12.5873C21.3509 12.5873 21.7032 12.6621 21.9794 12.8117C22.2613 12.9613 22.4699 13.1746 22.6052 13.4516C22.7461 13.7231 22.8166 14.0499 22.8166 14.4322C22.8166 14.7979 22.7405 15.122 22.5883 15.4045C22.4361 15.6871 22.2021 15.9087 21.8864 16.0694C21.5764 16.23 21.1846 16.3104 20.711 16.3104Z" stroke="url(#paint1_linear_608_357)" stroke-width="0.414051"/>
<defs>
<linearGradient id="paint0_linear_608_357" x1="21" y1="11.3691" x2="21" y2="31" gradientUnits="userSpaceOnUse">
<stop stop-color="#F6C8B7"/>
<stop offset="1" stop-color="#D87D5E"/>
</linearGradient>
<linearGradient id="paint1_linear_608_357" x1="20.9393" y1="11" x2="20.9393" y2="23.4324" gradientUnits="userSpaceOnUse">
<stop stop-color="#F6C8B7"/>
<stop offset="1" stop-color="#D87D5E"/>
</linearGradient>
</defs>
</svg>
