<svg width="32" height="30" viewBox="0 0 32 30" fill="none" xmlns="http://www.w3.org/2000/svg">
<mask id="mask0_594_1339" style="mask-type:luminance" maskUnits="userSpaceOnUse" x="0" y="0" width="32" height="30">
<path d="M31.5 29.5V0.500019H0.5V29.5H31.5Z" fill="white" stroke="white"/>
</mask>
<g mask="url(#mask0_594_1339)">
<path d="M16.2519 4.24139L16.9269 5.27276L18.1848 5.55676C18.3407 5.59338 18.4381 5.74116 18.3992 5.88729C18.3887 5.92914 18.3674 5.96794 18.3372 6.00026L17.4992 6.92375L17.6001 8.13629C17.6108 8.2857 17.4903 8.41859 17.329 8.42856C17.2759 8.43348 17.2245 8.42193 17.1785 8.40201L16.0004 7.94516L14.8027 8.40863C14.6539 8.46676 14.4838 8.39867 14.4218 8.25904C14.4042 8.22035 14.3969 8.17822 14.4005 8.13629L14.4997 6.92375L13.6617 6.00026C13.6115 5.94516 13.5867 5.87364 13.5927 5.80139C13.5986 5.72915 13.6349 5.66207 13.6936 5.61489C13.7314 5.58422 13.7773 5.5636 13.8265 5.55518L15.072 5.27276L15.7505 4.23805C15.7706 4.2073 15.7969 4.18057 15.828 4.1594C15.8591 4.13823 15.8943 4.12304 15.9317 4.1147C15.9691 4.10636 16.0079 4.10504 16.0458 4.11081C16.0837 4.11659 16.1201 4.12934 16.1527 4.14834C16.1952 4.17161 16.2271 4.20477 16.2519 4.24139Z" stroke="#F9BA0B" stroke-miterlimit="10" stroke-linecap="round" stroke-linejoin="round"/>
<path d="M1.9375 25.9082V29.5605H11.3131V22.1345H1.9375V23.9184" stroke="#F9BA0B" stroke-miterlimit="10" stroke-linecap="round" stroke-linejoin="round"/>
<path d="M11.3132 19.9703V29.5605H20.6889V15.9376H11.3132V17.9789" stroke="#F9BA0B" stroke-miterlimit="10" stroke-linecap="round" stroke-linejoin="round"/>
<path d="M30.063 20.4371V18.7197H20.6892V29.5605H30.063V22.4269" stroke="#F9BA0B" stroke-miterlimit="10" stroke-linecap="round" stroke-linejoin="round"/>
<path d="M19.7342 8.1228C19.0167 9.62596 18.1415 10.7587 17.4611 11.2853C16.0722 12.3616 19.0698 14.2234 19.0698 15.9375H12.931C12.931 14.2234 15.9287 12.3616 14.5397 11.2853C13.1508 10.2073 10.9397 6.60645 10.9397 2.46909H21.0611C21.0611 3.80942 20.8291 5.09491 20.4676 6.25594" stroke="#F9BA0B" stroke-miterlimit="10" stroke-linecap="round" stroke-linejoin="round"/>
<path d="M13.6999 10.4348C12.5997 10.5743 11.1204 10.0378 10.0007 8.93998C8.44867 7.41859 8.05011 5.41557 9.1113 4.46547C9.64455 3.98711 10.3444 3.91744 11.0406 4.00873" stroke="#F9BA0B" stroke-miterlimit="10" stroke-linecap="round" stroke-linejoin="round"/>
<path d="M18.3008 10.4348C19.401 10.5743 20.8821 10.0378 22.0018 8.93998C23.552 7.41859 23.9506 5.41557 22.8893 4.46547C22.3579 3.98711 21.6581 3.91744 20.9618 4.00873" stroke="#F9BA0B" stroke-miterlimit="10" stroke-linecap="round" stroke-linejoin="round"/>
<path d="M10.9382 2.46924H21.0596C21.655 2.46924 22.1421 2.0125 22.1421 1.4544C22.1421 0.896349 21.655 0.439493 21.0596 0.439493H10.9382C10.343 0.439493 9.85571 0.896349 9.85571 1.4544C9.85571 2.0125 10.343 2.46924 10.9382 2.46924Z" stroke="#F9BA0B" stroke-miterlimit="10" stroke-linecap="round" stroke-linejoin="round"/>
<path d="M15.5569 17.5639H16.4444V21.4521" stroke="#F9BA0B" stroke-miterlimit="10" stroke-linecap="round" stroke-linejoin="round"/>
<path d="M26.6126 24.3019C26.6126 24.3019 24.5947 24.3252 24.499 24.2953C24.4034 24.2654 24.6514 24.1077 25.9748 22.3354C26.2229 22.0049 26.3575 21.7259 26.416 21.4917L26.4372 21.3406C26.4372 20.7908 25.9606 20.3456 25.376 20.3456C24.8587 20.3456 24.4299 20.6911 24.3342 21.1478" stroke="#F9BA0B" stroke-miterlimit="10" stroke-linecap="round" stroke-linejoin="round"/>
<path d="M5.5842 24.6589C5.67988 24.2021 6.11038 23.8567 6.62595 23.8567C7.21057 23.8567 7.68713 24.3035 7.68713 24.8515C7.68713 25.4013 7.21057 25.8481 6.62595 25.8481C7.21057 25.8481 7.68713 26.2933 7.68713 26.843C7.68713 27.3911 7.21057 27.8379 6.62595 27.8379C6.08913 27.8379 5.6462 27.4642 5.57357 26.9808C5.56791 26.9351 5.56495 26.8891 5.5647 26.843" stroke="#F9BA0B" stroke-miterlimit="10" stroke-linecap="round" stroke-linejoin="round"/>
</g>
</svg>
