<svg width="315" height="31" viewBox="0 0 315 31" fill="none" xmlns="http://www.w3.org/2000/svg">
<rect x="96.5" y="28" width="122" height="3" rx="1.5" fill="#0E0B1E"/>
<g filter="url(#filter0_i_608_384)">
<path d="M101.5 6C101.5 2.68629 104.186 0 107.5 0H207.5C210.814 0 213.5 2.68629 213.5 6V31H101.5V6Z" fill="#EACAA4"/>
</g>
<path d="M122.582 11.1307V9.36364H131.866V11.1307H128.269V21H126.178V11.1307H122.582ZM143.538 15.1818C143.538 16.4356 143.303 17.5095 142.833 18.4034C142.367 19.2936 141.731 19.9754 140.924 20.4489C140.121 20.9223 139.21 21.1591 138.191 21.1591C137.172 21.1591 136.259 20.9223 135.452 20.4489C134.649 19.9716 134.013 19.2879 133.543 18.3977C133.077 17.5038 132.844 16.4318 132.844 15.1818C132.844 13.928 133.077 12.8561 133.543 11.9659C134.013 11.072 134.649 10.3883 135.452 9.91477C136.259 9.44129 137.172 9.20455 138.191 9.20455C139.21 9.20455 140.121 9.44129 140.924 9.91477C141.731 10.3883 142.367 11.072 142.833 11.9659C143.303 12.8561 143.538 13.928 143.538 15.1818ZM141.418 15.1818C141.418 14.2992 141.28 13.5549 141.004 12.9489C140.731 12.339 140.352 11.8788 139.867 11.5682C139.382 11.2538 138.824 11.0966 138.191 11.0966C137.558 11.0966 137 11.2538 136.515 11.5682C136.03 11.8788 135.649 12.339 135.373 12.9489C135.1 13.5549 134.964 14.2992 134.964 15.1818C134.964 16.0644 135.1 16.8106 135.373 17.4205C135.649 18.0265 136.03 18.4867 136.515 18.8011C137 19.1117 137.558 19.267 138.191 19.267C138.824 19.267 139.382 19.1117 139.867 18.8011C140.352 18.4867 140.731 18.0265 141.004 17.4205C141.28 16.8106 141.418 16.0644 141.418 15.1818ZM145.531 21V9.36364H149.894C150.788 9.36364 151.538 9.5303 152.144 9.86364C152.754 10.197 153.214 10.6553 153.525 11.2386C153.839 11.8182 153.996 12.4773 153.996 13.2159C153.996 13.9621 153.839 14.625 153.525 15.2045C153.21 15.7841 152.746 16.2405 152.133 16.5739C151.519 16.9034 150.763 17.0682 149.866 17.0682H146.974V15.3352H149.582C150.104 15.3352 150.532 15.2443 150.866 15.0625C151.199 14.8807 151.445 14.6307 151.604 14.3125C151.767 13.9943 151.849 13.6288 151.849 13.2159C151.849 12.803 151.767 12.4394 151.604 12.125C151.445 11.8106 151.197 11.5663 150.86 11.392C150.527 11.214 150.097 11.125 149.57 11.125H147.638V21H145.531ZM159.796 21V9.36364H161.904V19.233H167.029V21H159.796ZM170.967 9.36364V21H168.859V9.36364H170.967ZM179.573 12.5625C179.52 12.0663 179.297 11.6799 178.903 11.4034C178.513 11.1269 178.005 10.9886 177.38 10.9886C176.941 10.9886 176.564 11.0549 176.249 11.1875C175.935 11.3201 175.694 11.5 175.528 11.7273C175.361 11.9545 175.276 12.214 175.272 12.5057C175.272 12.7481 175.327 12.9583 175.437 13.1364C175.55 13.3144 175.704 13.4659 175.897 13.5909C176.09 13.7121 176.304 13.8144 176.539 13.8977C176.774 13.9811 177.011 14.0511 177.249 14.108L178.34 14.3807C178.78 14.483 179.202 14.6212 179.607 14.7955C180.016 14.9697 180.382 15.1894 180.704 15.4545C181.03 15.7197 181.287 16.0398 181.477 16.4148C181.666 16.7898 181.761 17.2292 181.761 17.733C181.761 18.4148 181.586 19.0152 181.238 19.5341C180.889 20.0492 180.386 20.4527 179.727 20.7443C179.071 21.0322 178.278 21.1761 177.346 21.1761C176.441 21.1761 175.655 21.036 174.988 20.7557C174.325 20.4754 173.806 20.0663 173.431 19.5284C173.06 18.9905 172.859 18.3352 172.829 17.5625H174.903C174.933 17.9678 175.058 18.3049 175.278 18.5739C175.497 18.8428 175.783 19.0436 176.136 19.1761C176.492 19.3087 176.889 19.375 177.329 19.375C177.787 19.375 178.189 19.3068 178.533 19.1705C178.882 19.0303 179.155 18.8371 179.352 18.5909C179.549 18.3409 179.649 18.0492 179.653 17.7159C179.649 17.4129 179.56 17.1629 179.386 16.9659C179.211 16.7652 178.967 16.5985 178.653 16.4659C178.342 16.3295 177.978 16.2083 177.562 16.1023L176.238 15.7614C175.28 15.5152 174.522 15.142 173.965 14.642C173.412 14.1383 173.136 13.4697 173.136 12.6364C173.136 11.9508 173.321 11.3504 173.692 10.8352C174.067 10.3201 174.577 9.92045 175.221 9.63636C175.865 9.34848 176.594 9.20455 177.408 9.20455C178.234 9.20455 178.958 9.34848 179.579 9.63636C180.204 9.92045 180.694 10.3163 181.05 10.8239C181.406 11.3277 181.59 11.9072 181.602 12.5625H179.573ZM183.129 11.1307V9.36364H192.413V11.1307H188.816V21H186.725V11.1307H183.129Z" fill="#380000"/>
<defs>
<filter id="filter0_i_608_384" x="101.5" y="-2" width="112" height="33" filterUnits="userSpaceOnUse" color-interpolation-filters="sRGB">
<feFlood flood-opacity="0" result="BackgroundImageFix"/>
<feBlend mode="normal" in="SourceGraphic" in2="BackgroundImageFix" result="shape"/>
<feColorMatrix in="SourceAlpha" type="matrix" values="0 0 0 0 0 0 0 0 0 0 0 0 0 0 0 0 0 0 127 0" result="hardAlpha"/>
<feOffset dy="-2"/>
<feGaussianBlur stdDeviation="2"/>
<feComposite in2="hardAlpha" operator="arithmetic" k2="-1" k3="1"/>
<feColorMatrix type="matrix" values="0 0 0 0 0.054902 0 0 0 0 0.0431373 0 0 0 0 0.117647 0 0 0 0.6 0"/>
<feBlend mode="normal" in2="shape" result="effect1_innerShadow_608_384"/>
</filter>
</defs>
</svg>
