<svg width="42" height="42" viewBox="0 0 42 42" fill="none" xmlns="http://www.w3.org/2000/svg">
<circle cx="21" cy="21" r="21" fill="#2C3447"/>
<mask id="path-2-inside-1_608_373" fill="white">
<path d="M21.7036 30.3625C21.8357 30.6041 22.0044 30.5232 22.0326 30.5132L23.881 29.8525C23.9069 29.8908 23.938 29.9255 23.9735 29.9555C24.3463 30.2695 25.0918 30.8121 25.863 30.9403C26.3404 31.0247 26.83 31.0188 27.3051 30.9227C27.7851 30.8147 28.0764 30.5685 28.1303 30.2544C28.1843 29.9404 27.989 29.6239 27.5776 29.3601C27.1306 29.0976 26.6324 28.9291 26.1149 28.8652C26.2614 28.7873 26.4054 28.707 26.5494 28.6215C26.5982 28.6938 26.6667 28.7513 26.7473 28.7873C27.321 29.06 27.9455 29.2156 28.5828 29.2446C28.6702 29.2446 28.755 29.2395 28.8424 29.232C30.0404 29.1014 30.8964 28.5587 30.8296 27.9659C30.7936 27.6468 30.5159 27.3956 30.0455 27.2499C29.5965 27.1289 29.1279 27.0931 28.665 27.1444C28.8141 27.0238 28.9607 26.8957 29.1046 26.765C29.185 26.8513 29.2966 26.9035 29.4157 26.9108C29.5339 26.9183 29.6779 26.9258 29.8373 26.9258C30.4205 26.9427 31.0002 26.832 31.5339 26.6018C32.6111 26.0642 33.2126 25.2603 32.935 24.7277C32.7884 24.4438 32.4363 24.3031 31.9453 24.3308C31.6889 24.35 31.436 24.3998 31.192 24.479C31.2537 24.4011 31.3103 24.3207 31.3643 24.2403C31.449 24.28 31.5436 24.2949 31.6368 24.283C32.1252 24.2077 33.0301 24.0117 33.6316 23.5193C34.5597 22.7657 34.9633 21.8487 34.5725 21.3915C34.2769 21.0449 33.6368 21.0876 32.9427 21.4543C32.9838 21.3564 33.0275 21.2584 33.0686 21.1554C33.1261 21.1508 33.1829 21.1407 33.2383 21.1252C33.701 20.9569 34.5468 20.5801 35.0327 19.9822C35.3419 19.6154 35.5727 19.1917 35.7113 18.7362C35.8347 18.2714 35.7653 17.9072 35.5082 17.7087C35.2512 17.5102 34.8733 17.5278 34.4388 17.7514C34.2628 17.8446 34.0973 17.9557 33.9453 18.083C33.9504 18.0554 33.9941 17.7439 34.0018 17.6132C34.0588 17.5961 34.114 17.5734 34.1663 17.5454C34.5751 17.2741 35.3077 16.7164 35.6393 16.023C36.1483 14.9554 36.1149 13.958 35.5622 13.7068C35.2666 13.5712 34.9016 13.6716 34.5314 13.9907C34.1778 14.3155 33.8938 14.7057 33.6959 15.1388C33.6067 15.3287 33.542 15.5287 33.5031 15.7341C33.48 15.6965 33.4568 15.6613 33.4337 15.6286C33.1535 15.2317 32.8219 15.0483 32.5031 15.1111C31.9041 15.2242 31.6265 16.1838 31.8579 17.3419C32.0095 18.0931 32.5854 18.8065 32.9144 19.1632C32.9427 19.1939 32.9757 19.2202 33.0121 19.2411C33.0532 19.269 33.0995 19.2886 33.1483 19.2989C33.0764 19.5777 32.9941 19.8491 32.899 20.1204C32.8935 20.0587 32.8841 19.9975 32.8707 19.937L32.8244 19.726C32.5802 18.7563 32.0532 18.0981 31.5288 18.0981C31.4891 18.0977 31.4495 18.1011 31.4105 18.1081C30.8116 18.2212 30.5365 19.1808 30.7679 20.3389C30.9195 21.0901 31.4954 21.8035 31.8244 22.1603C31.8538 22.1925 31.8886 22.2197 31.9273 22.2406C31.7501 22.4517 31.5967 22.6808 31.4697 22.924C31.4697 21.9819 31.1303 21.281 30.6059 21.2257C30.282 21.1906 29.971 21.4016 29.7242 21.8186C29.4968 22.238 29.357 22.6974 29.3129 23.1701C29.2306 23.9313 29.5622 24.7779 29.7679 25.215C29.7799 25.2407 29.7946 25.2651 29.8116 25.2879C29.755 25.3432 29.39 25.7552 29.2872 25.8933C29.2173 25.9682 29.1435 26.0395 29.0661 26.1069C29.1539 25.8523 29.2033 25.5865 29.2126 25.318C29.2383 24.1373 28.7962 23.2405 28.1869 23.2254C27.5725 23.2179 27.0944 24.0946 27.0686 25.2728C27.0532 26.0315 27.4517 26.8404 27.6959 27.2599C27.3514 27.5162 26.9967 27.7565 26.6316 27.9809C26.7591 27.7579 26.8542 27.5186 26.9144 27.27C27.174 26.1169 26.9221 25.1522 26.3257 25.0216C25.7293 24.891 25.0815 25.6647 24.8219 26.8153C24.6573 27.5363 24.8707 28.3753 25.0249 28.8451C24.8887 28.9104 24.6008 29.0335 24.6008 29.0335C24.39 29.124 23.8321 29.335 23.7704 29.3576L21.8553 30.0409C21.8227 30.0509 21.7926 30.0674 21.767 30.0894C21.7413 30.1114 21.7207 30.1385 21.7064 30.1688C21.6921 30.1991 21.6845 30.232 21.684 30.2653C21.6835 30.2987 21.6902 30.3318 21.7036 30.3625ZM33.9401 16.8546C33.9427 16.8521 33.9427 16.8495 33.9401 16.8495C33.8968 16.3403 33.9733 15.8282 34.1638 15.3523C34.3302 14.9815 34.5706 14.6467 34.8707 14.3675C34.9812 14.2524 35.1277 14.1765 35.2872 14.1515C35.3066 14.1502 35.326 14.1536 35.3437 14.1615C35.5468 14.252 35.5802 14.9579 35.174 15.812C34.8846 16.3149 34.4755 16.7423 33.9812 17.058C33.9723 17.0633 33.9637 17.0692 33.9555 17.0756C33.9504 17.0078 33.9427 16.9352 33.9401 16.8546ZM33.2923 20.565C33.4788 20.0502 33.6342 19.5251 33.7576 18.9924C34.009 18.6706 34.3226 18.4001 34.6805 18.1961C34.7999 18.1255 34.9346 18.0833 35.0738 18.073C35.1147 18.0705 35.1553 18.0811 35.1895 18.1031C35.2512 18.1508 35.2949 18.3116 35.2126 18.6081C35.0918 18.9957 34.8935 19.356 34.6291 19.6682C34.2612 20.065 33.8034 20.3721 33.2923 20.565ZM33.2357 18.7588C32.8238 18.3314 32.5247 17.8123 32.3643 17.2465C32.1766 16.322 32.3848 15.6462 32.6008 15.6035C32.6805 15.5884 32.8321 15.6613 33.0095 15.915C33.2116 16.219 33.3537 16.5573 33.4285 16.9123C33.4388 16.9525 33.4491 16.9952 33.4568 17.0354C33.4772 17.1415 33.4884 17.2491 33.4902 17.357C33.4959 17.5658 33.4796 17.7745 33.4414 17.98C33.4363 18.0177 33.4285 18.0529 33.4208 18.0905C33.3735 18.3168 33.3116 18.54 33.2357 18.7588ZM32.1432 21.7558C31.7322 21.3277 31.4332 20.8089 31.2717 20.2435C31.0866 19.319 31.2923 18.6432 31.5108 18.6005C31.7293 18.5578 32.1818 19.108 32.3668 20.0325C32.4362 20.6161 32.3594 21.2075 32.1432 21.7558ZM31.6496 23.7731C31.8297 23.2497 32.1234 22.7707 32.5108 22.3688C32.5108 22.3688 32.5648 22.3185 32.5905 22.2984C32.9716 21.9475 33.4549 21.721 33.9735 21.6503C34.0104 21.646 34.0478 21.6493 34.0833 21.6601C34.1187 21.671 34.1514 21.689 34.1792 21.7131C34.3206 21.8789 34.0329 22.5205 33.3026 23.135C32.7324 23.6145 31.6625 23.7705 31.6496 23.7731ZM30.9324 23.341C30.8527 24.1393 30.1946 24.9186 30.1946 24.9161C29.9324 24.3894 29.8054 23.8083 29.8244 23.2229C29.861 22.8191 29.9789 22.4264 30.1715 22.0673C30.3283 21.801 30.4774 21.7181 30.5519 21.7231C30.773 21.7483 31.026 22.4029 30.9324 23.341ZM29.5442 26.4159C29.5828 26.3581 29.6303 26.2978 29.6753 26.2274C29.8972 25.9216 30.1571 25.644 30.4491 25.4009C30.5571 25.3171 30.6734 25.2439 30.7962 25.1824C31.1613 24.9915 31.5614 24.8729 31.9735 24.8332C32.007 24.8307 32.4123 24.8307 32.4774 24.9563C32.5774 25.1497 32.1612 25.725 31.3 26.1521C30.7451 26.3772 30.1427 26.4677 29.5442 26.4159ZM28.4851 26.2074C28.3788 26.4623 28.2515 26.7085 28.1046 26.9434C27.7964 26.439 27.6173 25.8694 27.5828 25.2829C27.6033 24.3458 27.9504 23.7278 28.1715 23.7278H28.174C28.3977 23.7329 28.719 24.3659 28.6985 25.3055C28.6821 25.616 28.6098 25.9213 28.4851 26.2074ZM27.0481 28.3703C27.5196 28.0059 28.0744 27.7585 28.665 27.6493C28.8051 27.6344 28.9458 27.6268 29.0866 27.6267C29.3594 27.6227 29.6313 27.6574 29.8938 27.7297C30.1946 27.8227 30.3103 27.9433 30.318 28.0186C30.3437 28.2347 29.7447 28.6291 28.7859 28.7321C28.1853 28.7497 27.5892 28.6256 27.0481 28.3703ZM26.0224 28.0035C25.8733 28.2271 25.5237 28.6291 25.5031 28.6517C25.3044 28.0984 25.2428 27.5069 25.3231 26.9258C25.5087 26.0383 25.9828 25.4615 26.2126 25.514C26.4301 25.5642 26.6188 26.24 26.4105 27.1595C26.3338 27.4612 26.2024 27.7471 26.0224 28.0035ZM24.3797 29.6339C24.4928 29.5912 24.6265 29.546 24.7756 29.5058C24.7756 29.5033 24.7782 29.5033 24.7807 29.5033C25.1085 29.4058 25.4484 29.3526 25.791 29.345C25.9064 29.3452 26.0216 29.3544 26.1355 29.3727C26.5453 29.4337 26.939 29.5719 27.2949 29.7796C27.5571 29.948 27.6368 30.0962 27.6239 30.1715C27.6111 30.2469 27.4851 30.36 27.1818 30.4353C26.7759 30.5173 26.3576 30.5208 25.9504 30.4454C25.3788 30.3076 24.8497 30.037 24.408 29.6566C24.398 29.6496 24.3886 29.6421 24.3797 29.6339ZM20.1447 30.0409L18.2296 29.3576C18.1679 29.335 17.61 29.124 17.3992 29.0335C17.3992 29.0335 17.1113 28.9104 16.9751 28.8451C17.1293 28.3753 17.3427 27.5363 17.1781 26.8153C16.9185 25.6647 16.2707 24.8935 15.6743 25.0216C15.0779 25.1497 14.826 26.1169 15.0856 27.27C15.1458 27.5186 15.2409 27.7579 15.3684 27.9809C15.0033 27.7574 14.6486 27.517 14.3041 27.2599C14.5483 26.8404 14.9468 26.0315 14.9314 25.2728C14.9057 24.0946 14.4275 23.2179 13.8131 23.2254C13.2038 23.2405 12.7617 24.1373 12.7874 25.318C12.7967 25.5865 12.8461 25.8523 12.9339 26.1069C12.8565 26.0395 12.7827 25.9682 12.7128 25.8933C12.61 25.7552 12.245 25.3432 12.1884 25.2879C12.2054 25.2651 12.2201 25.2407 12.2321 25.215C12.4378 24.7779 12.7694 23.9313 12.6871 23.1701C12.643 22.6974 12.5032 22.238 12.2758 21.8186C12.029 21.4016 11.718 21.1906 11.3941 21.2257C10.8697 21.281 10.5303 21.9819 10.5303 22.924C10.4033 22.6808 10.2499 22.4517 10.0727 22.2406C10.1114 22.2197 10.1462 22.1925 10.1756 22.1603C10.5046 21.8035 11.0805 21.0901 11.2321 20.3389C11.4635 19.1808 11.1884 18.2212 10.5894 18.1081C10.5505 18.1011 10.5109 18.0977 10.4712 18.0981C9.94678 18.0981 9.41978 18.7563 9.17557 19.726L9.12929 19.937C9.11592 19.9975 9.10647 20.0587 9.10102 20.1204C9.0059 19.8491 8.92364 19.5777 8.85166 19.2989C8.90053 19.2886 8.94683 19.269 8.98791 19.2411C9.02434 19.2202 9.05728 19.1939 9.08559 19.1632C9.41464 18.8065 9.99048 18.0931 10.1421 17.3419C10.3735 16.1838 10.0959 15.2242 9.4969 15.1111C9.17814 15.0483 8.84652 15.2317 8.56631 15.6286C8.54318 15.6621 8.52004 15.6973 8.4969 15.7341C8.45804 15.5287 8.39328 15.3287 8.3041 15.1388C8.10624 14.7057 7.82224 14.3155 7.46862 13.9907C7.09844 13.6716 6.73341 13.5712 6.43778 13.7068C5.88508 13.958 5.85166 14.9554 6.36065 16.023C6.69227 16.7164 7.42492 17.2741 7.83366 17.5454C7.88603 17.5734 7.94115 17.5961 7.99819 17.6132C8.0059 17.7439 8.0496 18.0554 8.05474 18.083C7.9027 17.9557 7.73724 17.8446 7.56117 17.7514C7.12672 17.5278 6.74626 17.5127 6.49176 17.7087C6.23726 17.9046 6.16528 18.2714 6.28868 18.7362C6.42732 19.1917 6.65809 19.6154 6.96734 19.9822C7.4532 20.5801 8.29896 20.9569 8.76168 21.1252C8.8171 21.1407 8.87392 21.1508 8.93135 21.1554C8.97248 21.2584 9.01618 21.3564 9.05732 21.4543C8.36323 21.0876 7.72312 21.0449 7.42749 21.3915C7.03675 21.8487 7.44035 22.7657 8.36837 23.5193C8.96991 24.0117 9.8748 24.2077 10.3632 24.283C10.4564 24.2949 10.551 24.28 10.6357 24.2403C10.6897 24.3207 10.7463 24.4011 10.808 24.479C10.564 24.3998 10.3111 24.35 10.0547 24.3308C9.56374 24.3031 9.21156 24.4438 9.06503 24.7277C8.78739 25.2603 9.38894 26.0642 10.4661 26.6018C10.9998 26.832 11.5795 26.9427 12.1627 26.9258C12.3221 26.9258 12.4661 26.9183 12.5843 26.9108C12.7034 26.9035 12.815 26.8513 12.8954 26.765C13.0393 26.8957 13.1859 27.0238 13.335 27.1444C12.8721 27.0931 12.4035 27.1289 11.9545 27.2499C11.4841 27.3956 11.2064 27.6468 11.1704 27.9659C11.1036 28.5587 11.9596 29.1014 13.1576 29.232C13.245 29.2395 13.3298 29.2446 13.4172 29.2446C14.0545 29.2156 14.679 29.06 15.2527 28.7873C15.3333 28.7513 15.4018 28.6938 15.4506 28.6215C15.5946 28.707 15.7386 28.7873 15.8851 28.8652C15.3676 28.9291 14.8694 29.0976 14.4224 29.3601C14.011 29.6239 13.8157 29.9404 13.8697 30.2544C13.9236 30.5685 14.2149 30.8147 14.6949 30.9227C15.17 31.0188 15.6596 31.0247 16.137 30.9403C16.9082 30.8121 17.6537 30.2695 18.0265 29.9555C18.062 29.9255 18.0931 29.8908 18.119 29.8525L19.9674 30.5132C19.9956 30.5232 20.1643 30.6041 20.2964 30.3625C20.3098 30.3318 20.3165 30.2987 20.316 30.2653C20.3155 30.232 20.3079 30.1991 20.2936 30.1688C20.2793 30.1385 20.2587 30.1114 20.233 30.0894C20.2074 30.0674 20.1773 30.0509 20.1447 30.0409ZM8.04446 17.0756C8.03633 17.0692 8.02774 17.0633 8.01875 17.058C7.52452 16.7423 7.11538 16.3149 6.82595 15.812C6.41978 14.9579 6.4532 14.252 6.65628 14.1615C6.67399 14.1536 6.69343 14.1502 6.71284 14.1515C6.8723 14.1765 7.01877 14.2524 7.12929 14.3675C7.42944 14.6467 7.66976 14.9815 7.83623 15.3523C8.02672 15.8282 8.10322 16.3403 8.05989 16.8495C8.05731 16.8495 8.05731 16.8521 8.05989 16.8546C8.05731 16.935 8.0496 17.0078 8.04446 17.0756ZM7.37094 19.6679C7.10654 19.3558 6.90819 18.9954 6.78739 18.6078C6.70513 18.3114 6.74883 18.1506 6.81053 18.1029C6.84472 18.0808 6.88532 18.0702 6.92621 18.0727C7.06538 18.083 7.20011 18.1252 7.31952 18.1958C7.67743 18.3998 7.99096 18.6704 8.2424 18.9922C8.36581 19.5248 8.52118 20.0499 8.7077 20.5648C8.19659 20.3719 7.73879 20.0647 7.37094 19.6679ZM8.57917 18.0903C8.57145 18.0526 8.56374 18.0174 8.5586 17.9798C8.52044 17.7743 8.50407 17.5655 8.50976 17.3567C8.51158 17.2488 8.52276 17.1413 8.54318 17.0352C8.55089 16.995 8.56117 16.9523 8.57145 16.9121C8.6463 16.557 8.78841 16.2188 8.99048 15.9148C9.16786 15.661 9.31953 15.5882 9.39922 15.6033C9.61516 15.646 9.82338 16.3217 9.63572 17.2462C9.47532 17.812 9.1762 18.3311 8.76426 18.7585C8.68836 18.5399 8.62654 18.3165 8.57917 18.0903ZM9.63315 20.0322C9.81824 19.1077 10.2707 18.5601 10.4892 18.6003C10.7077 18.6405 10.9134 19.3187 10.7283 20.2432C10.5668 20.8086 10.2678 21.3275 9.8568 21.7555C9.64061 21.2073 9.56386 20.616 9.63315 20.0325V20.0322ZM8.69742 23.1347C7.96708 22.5202 7.67942 21.8786 7.82081 21.7128C7.8486 21.6888 7.8813 21.6707 7.91675 21.6599C7.9522 21.6491 7.98959 21.6457 8.02647 21.65C8.54508 21.7208 9.02839 21.9472 9.4095 22.2982C9.43521 22.3183 9.48919 22.3685 9.48919 22.3685C9.87656 22.7704 10.1703 23.2495 10.3504 23.7728C10.3375 23.7705 9.2676 23.6145 8.69742 23.1347ZM11.4481 21.7229C11.5226 21.7179 11.6717 21.8008 11.8285 22.0671C12.0211 22.4261 12.139 22.8188 12.1756 23.2226C12.1946 23.808 12.0676 24.3892 11.8054 24.9158C11.8054 24.9184 11.1473 24.1391 11.0676 23.3407C10.9743 22.4029 11.227 21.748 11.4481 21.7229ZM10.7 26.1518C9.83881 25.7248 9.42261 25.1495 9.52261 24.956C9.58765 24.8304 9.99305 24.8304 10.0265 24.8329C10.4386 24.8726 10.8387 24.9913 11.2038 25.1821C11.3266 25.2436 11.4429 25.3169 11.5509 25.4007C11.8429 25.6437 12.1028 25.9214 12.3247 26.2272C12.3697 26.2975 12.4172 26.3578 12.4558 26.4156C11.8573 26.4675 11.2549 26.3768 10.7 26.1518ZM13.3015 25.3052C13.281 24.3657 13.6023 23.7326 13.826 23.7276H13.8285C14.0496 23.7276 14.3967 24.3456 14.4172 25.2826C14.3827 25.8691 14.2036 26.4388 13.8954 26.9432C13.7485 26.7082 13.6212 26.4621 13.5149 26.2071C13.3902 25.9211 13.318 25.6159 13.3015 25.3055V25.3052ZM13.2141 28.7318C12.2553 28.6288 11.6563 28.2344 11.682 28.0184C11.6897 27.943 11.8054 27.8224 12.1062 27.7295C12.3687 27.6572 12.6406 27.6225 12.9134 27.6265C13.0542 27.6266 13.1949 27.6341 13.335 27.6491C13.9256 27.7583 14.4804 28.0057 14.9519 28.3701C14.4106 28.6256 13.8142 28.7498 13.2134 28.7321L13.2141 28.7318ZM15.5895 27.1592C15.3812 26.2398 15.5699 25.5632 15.7874 25.5137C16.0172 25.4612 16.4913 26.038 16.6769 26.9256C16.7572 27.5067 16.6956 28.0981 16.4969 28.6514C16.4763 28.6288 16.1267 28.2269 15.9776 28.0033C15.7977 27.747 15.6662 27.4609 15.5895 27.1592ZM17.592 29.6563C17.1503 30.0367 16.6212 30.3073 16.0496 30.4451C15.6424 30.5205 15.2241 30.5171 14.8182 30.4351C14.5149 30.3597 14.3889 30.2467 14.3761 30.1713C14.3632 30.0959 14.4429 29.9477 14.7051 29.7794C15.061 29.5716 15.4547 29.4334 15.8645 29.3724C15.9784 29.3542 16.0936 29.3449 16.209 29.3448C16.5516 29.3523 16.8915 29.4056 17.2193 29.5031C17.2218 29.5031 17.2244 29.5031 17.2244 29.5056C17.3735 29.5458 17.5072 29.591 17.6203 29.6337C17.6114 29.6419 17.602 29.6493 17.592 29.6563Z"/>
</mask>
<path d="M21.7036 30.3625C21.8357 30.6041 22.0044 30.5232 22.0326 30.5132L23.881 29.8525C23.9069 29.8908 23.938 29.9255 23.9735 29.9555C24.3463 30.2695 25.0918 30.8121 25.863 30.9403C26.3404 31.0247 26.83 31.0188 27.3051 30.9227C27.7851 30.8147 28.0764 30.5685 28.1303 30.2544C28.1843 29.9404 27.989 29.6239 27.5776 29.3601C27.1306 29.0976 26.6324 28.9291 26.1149 28.8652C26.2614 28.7873 26.4054 28.707 26.5494 28.6215C26.5982 28.6938 26.6667 28.7513 26.7473 28.7873C27.321 29.06 27.9455 29.2156 28.5828 29.2446C28.6702 29.2446 28.755 29.2395 28.8424 29.232C30.0404 29.1014 30.8964 28.5587 30.8296 27.9659C30.7936 27.6468 30.5159 27.3956 30.0455 27.2499C29.5965 27.1289 29.1279 27.0931 28.665 27.1444C28.8141 27.0238 28.9607 26.8957 29.1046 26.765C29.185 26.8513 29.2966 26.9035 29.4157 26.9108C29.5339 26.9183 29.6779 26.9258 29.8373 26.9258C30.4205 26.9427 31.0002 26.832 31.5339 26.6018C32.6111 26.0642 33.2126 25.2603 32.935 24.7277C32.7884 24.4438 32.4363 24.3031 31.9453 24.3308C31.6889 24.35 31.436 24.3998 31.192 24.479C31.2537 24.4011 31.3103 24.3207 31.3643 24.2403C31.449 24.28 31.5436 24.2949 31.6368 24.283C32.1252 24.2077 33.0301 24.0117 33.6316 23.5193C34.5597 22.7657 34.9633 21.8487 34.5725 21.3915C34.2769 21.0449 33.6368 21.0876 32.9427 21.4543C32.9838 21.3564 33.0275 21.2584 33.0686 21.1554C33.1261 21.1508 33.1829 21.1407 33.2383 21.1252C33.701 20.9569 34.5468 20.5801 35.0327 19.9822C35.3419 19.6154 35.5727 19.1917 35.7113 18.7362C35.8347 18.2714 35.7653 17.9072 35.5082 17.7087C35.2512 17.5102 34.8733 17.5278 34.4388 17.7514C34.2628 17.8446 34.0973 17.9557 33.9453 18.083C33.9504 18.0554 33.9941 17.7439 34.0018 17.6132C34.0588 17.5961 34.114 17.5734 34.1663 17.5454C34.5751 17.2741 35.3077 16.7164 35.6393 16.023C36.1483 14.9554 36.1149 13.958 35.5622 13.7068C35.2666 13.5712 34.9016 13.6716 34.5314 13.9907C34.1778 14.3155 33.8938 14.7057 33.6959 15.1388C33.6067 15.3287 33.542 15.5287 33.5031 15.7341C33.48 15.6965 33.4568 15.6613 33.4337 15.6286C33.1535 15.2317 32.8219 15.0483 32.5031 15.1111C31.9041 15.2242 31.6265 16.1838 31.8579 17.3419C32.0095 18.0931 32.5854 18.8065 32.9144 19.1632C32.9427 19.1939 32.9757 19.2202 33.0121 19.2411C33.0532 19.269 33.0995 19.2886 33.1483 19.2989C33.0764 19.5777 32.9941 19.8491 32.899 20.1204C32.8935 20.0587 32.8841 19.9975 32.8707 19.937L32.8244 19.726C32.5802 18.7563 32.0532 18.0981 31.5288 18.0981C31.4891 18.0977 31.4495 18.1011 31.4105 18.1081C30.8116 18.2212 30.5365 19.1808 30.7679 20.3389C30.9195 21.0901 31.4954 21.8035 31.8244 22.1603C31.8538 22.1925 31.8886 22.2197 31.9273 22.2406C31.7501 22.4517 31.5967 22.6808 31.4697 22.924C31.4697 21.9819 31.1303 21.281 30.6059 21.2257C30.282 21.1906 29.971 21.4016 29.7242 21.8186C29.4968 22.238 29.357 22.6974 29.3129 23.1701C29.2306 23.9313 29.5622 24.7779 29.7679 25.215C29.7799 25.2407 29.7946 25.2651 29.8116 25.2879C29.755 25.3432 29.39 25.7552 29.2872 25.8933C29.2173 25.9682 29.1435 26.0395 29.0661 26.1069C29.1539 25.8523 29.2033 25.5865 29.2126 25.318C29.2383 24.1373 28.7962 23.2405 28.1869 23.2254C27.5725 23.2179 27.0944 24.0946 27.0686 25.2728C27.0532 26.0315 27.4517 26.8404 27.6959 27.2599C27.3514 27.5162 26.9967 27.7565 26.6316 27.9809C26.7591 27.7579 26.8542 27.5186 26.9144 27.27C27.174 26.1169 26.9221 25.1522 26.3257 25.0216C25.7293 24.891 25.0815 25.6647 24.8219 26.8153C24.6573 27.5363 24.8707 28.3753 25.0249 28.8451C24.8887 28.9104 24.6008 29.0335 24.6008 29.0335C24.39 29.124 23.8321 29.335 23.7704 29.3576L21.8553 30.0409C21.8227 30.0509 21.7926 30.0674 21.767 30.0894C21.7413 30.1114 21.7207 30.1385 21.7064 30.1688C21.6921 30.1991 21.6845 30.232 21.684 30.2653C21.6835 30.2987 21.6902 30.3318 21.7036 30.3625ZM33.9401 16.8546C33.9427 16.8521 33.9427 16.8495 33.9401 16.8495C33.8968 16.3403 33.9733 15.8282 34.1638 15.3523C34.3302 14.9815 34.5706 14.6467 34.8707 14.3675C34.9812 14.2524 35.1277 14.1765 35.2872 14.1515C35.3066 14.1502 35.326 14.1536 35.3437 14.1615C35.5468 14.252 35.5802 14.9579 35.174 15.812C34.8846 16.3149 34.4755 16.7423 33.9812 17.058C33.9723 17.0633 33.9637 17.0692 33.9555 17.0756C33.9504 17.0078 33.9427 16.9352 33.9401 16.8546ZM33.2923 20.565C33.4788 20.0502 33.6342 19.5251 33.7576 18.9924C34.009 18.6706 34.3226 18.4001 34.6805 18.1961C34.7999 18.1255 34.9346 18.0833 35.0738 18.073C35.1147 18.0705 35.1553 18.0811 35.1895 18.1031C35.2512 18.1508 35.2949 18.3116 35.2126 18.6081C35.0918 18.9957 34.8935 19.356 34.6291 19.6682C34.2612 20.065 33.8034 20.3721 33.2923 20.565ZM33.2357 18.7588C32.8238 18.3314 32.5247 17.8123 32.3643 17.2465C32.1766 16.322 32.3848 15.6462 32.6008 15.6035C32.6805 15.5884 32.8321 15.6613 33.0095 15.915C33.2116 16.219 33.3537 16.5573 33.4285 16.9123C33.4388 16.9525 33.4491 16.9952 33.4568 17.0354C33.4772 17.1415 33.4884 17.2491 33.4902 17.357C33.4959 17.5658 33.4796 17.7745 33.4414 17.98C33.4363 18.0177 33.4285 18.0529 33.4208 18.0905C33.3735 18.3168 33.3116 18.54 33.2357 18.7588ZM32.1432 21.7558C31.7322 21.3277 31.4332 20.8089 31.2717 20.2435C31.0866 19.319 31.2923 18.6432 31.5108 18.6005C31.7293 18.5578 32.1818 19.108 32.3668 20.0325C32.4362 20.6161 32.3594 21.2075 32.1432 21.7558ZM31.6496 23.7731C31.8297 23.2497 32.1234 22.7707 32.5108 22.3688C32.5108 22.3688 32.5648 22.3185 32.5905 22.2984C32.9716 21.9475 33.4549 21.721 33.9735 21.6503C34.0104 21.646 34.0478 21.6493 34.0833 21.6601C34.1187 21.671 34.1514 21.689 34.1792 21.7131C34.3206 21.8789 34.0329 22.5205 33.3026 23.135C32.7324 23.6145 31.6625 23.7705 31.6496 23.7731ZM30.9324 23.341C30.8527 24.1393 30.1946 24.9186 30.1946 24.9161C29.9324 24.3894 29.8054 23.8083 29.8244 23.2229C29.861 22.8191 29.9789 22.4264 30.1715 22.0673C30.3283 21.801 30.4774 21.7181 30.5519 21.7231C30.773 21.7483 31.026 22.4029 30.9324 23.341ZM29.5442 26.4159C29.5828 26.3581 29.6303 26.2978 29.6753 26.2274C29.8972 25.9216 30.1571 25.644 30.4491 25.4009C30.5571 25.3171 30.6734 25.2439 30.7962 25.1824C31.1613 24.9915 31.5614 24.8729 31.9735 24.8332C32.007 24.8307 32.4123 24.8307 32.4774 24.9563C32.5774 25.1497 32.1612 25.725 31.3 26.1521C30.7451 26.3772 30.1427 26.4677 29.5442 26.4159ZM28.4851 26.2074C28.3788 26.4623 28.2515 26.7085 28.1046 26.9434C27.7964 26.439 27.6173 25.8694 27.5828 25.2829C27.6033 24.3458 27.9504 23.7278 28.1715 23.7278H28.174C28.3977 23.7329 28.719 24.3659 28.6985 25.3055C28.6821 25.616 28.6098 25.9213 28.4851 26.2074ZM27.0481 28.3703C27.5196 28.0059 28.0744 27.7585 28.665 27.6493C28.8051 27.6344 28.9458 27.6268 29.0866 27.6267C29.3594 27.6227 29.6313 27.6574 29.8938 27.7297C30.1946 27.8227 30.3103 27.9433 30.318 28.0186C30.3437 28.2347 29.7447 28.6291 28.7859 28.7321C28.1853 28.7497 27.5892 28.6256 27.0481 28.3703ZM26.0224 28.0035C25.8733 28.2271 25.5237 28.6291 25.5031 28.6517C25.3044 28.0984 25.2428 27.5069 25.3231 26.9258C25.5087 26.0383 25.9828 25.4615 26.2126 25.514C26.4301 25.5642 26.6188 26.24 26.4105 27.1595C26.3338 27.4612 26.2024 27.7471 26.0224 28.0035ZM24.3797 29.6339C24.4928 29.5912 24.6265 29.546 24.7756 29.5058C24.7756 29.5033 24.7782 29.5033 24.7807 29.5033C25.1085 29.4058 25.4484 29.3526 25.791 29.345C25.9064 29.3452 26.0216 29.3544 26.1355 29.3727C26.5453 29.4337 26.939 29.5719 27.2949 29.7796C27.5571 29.948 27.6368 30.0962 27.6239 30.1715C27.6111 30.2469 27.4851 30.36 27.1818 30.4353C26.7759 30.5173 26.3576 30.5208 25.9504 30.4454C25.3788 30.3076 24.8497 30.037 24.408 29.6566C24.398 29.6496 24.3886 29.6421 24.3797 29.6339ZM20.1447 30.0409L18.2296 29.3576C18.1679 29.335 17.61 29.124 17.3992 29.0335C17.3992 29.0335 17.1113 28.9104 16.9751 28.8451C17.1293 28.3753 17.3427 27.5363 17.1781 26.8153C16.9185 25.6647 16.2707 24.8935 15.6743 25.0216C15.0779 25.1497 14.826 26.1169 15.0856 27.27C15.1458 27.5186 15.2409 27.7579 15.3684 27.9809C15.0033 27.7574 14.6486 27.517 14.3041 27.2599C14.5483 26.8404 14.9468 26.0315 14.9314 25.2728C14.9057 24.0946 14.4275 23.2179 13.8131 23.2254C13.2038 23.2405 12.7617 24.1373 12.7874 25.318C12.7967 25.5865 12.8461 25.8523 12.9339 26.1069C12.8565 26.0395 12.7827 25.9682 12.7128 25.8933C12.61 25.7552 12.245 25.3432 12.1884 25.2879C12.2054 25.2651 12.2201 25.2407 12.2321 25.215C12.4378 24.7779 12.7694 23.9313 12.6871 23.1701C12.643 22.6974 12.5032 22.238 12.2758 21.8186C12.029 21.4016 11.718 21.1906 11.3941 21.2257C10.8697 21.281 10.5303 21.9819 10.5303 22.924C10.4033 22.6808 10.2499 22.4517 10.0727 22.2406C10.1114 22.2197 10.1462 22.1925 10.1756 22.1603C10.5046 21.8035 11.0805 21.0901 11.2321 20.3389C11.4635 19.1808 11.1884 18.2212 10.5894 18.1081C10.5505 18.1011 10.5109 18.0977 10.4712 18.0981C9.94678 18.0981 9.41978 18.7563 9.17557 19.726L9.12929 19.937C9.11592 19.9975 9.10647 20.0587 9.10102 20.1204C9.0059 19.8491 8.92364 19.5777 8.85166 19.2989C8.90053 19.2886 8.94683 19.269 8.98791 19.2411C9.02434 19.2202 9.05728 19.1939 9.08559 19.1632C9.41464 18.8065 9.99048 18.0931 10.1421 17.3419C10.3735 16.1838 10.0959 15.2242 9.4969 15.1111C9.17814 15.0483 8.84652 15.2317 8.56631 15.6286C8.54318 15.6621 8.52004 15.6973 8.4969 15.7341C8.45804 15.5287 8.39328 15.3287 8.3041 15.1388C8.10624 14.7057 7.82224 14.3155 7.46862 13.9907C7.09844 13.6716 6.73341 13.5712 6.43778 13.7068C5.88508 13.958 5.85166 14.9554 6.36065 16.023C6.69227 16.7164 7.42492 17.2741 7.83366 17.5454C7.88603 17.5734 7.94115 17.5961 7.99819 17.6132C8.0059 17.7439 8.0496 18.0554 8.05474 18.083C7.9027 17.9557 7.73724 17.8446 7.56117 17.7514C7.12672 17.5278 6.74626 17.5127 6.49176 17.7087C6.23726 17.9046 6.16528 18.2714 6.28868 18.7362C6.42732 19.1917 6.65809 19.6154 6.96734 19.9822C7.4532 20.5801 8.29896 20.9569 8.76168 21.1252C8.8171 21.1407 8.87392 21.1508 8.93135 21.1554C8.97248 21.2584 9.01618 21.3564 9.05732 21.4543C8.36323 21.0876 7.72312 21.0449 7.42749 21.3915C7.03675 21.8487 7.44035 22.7657 8.36837 23.5193C8.96991 24.0117 9.8748 24.2077 10.3632 24.283C10.4564 24.2949 10.551 24.28 10.6357 24.2403C10.6897 24.3207 10.7463 24.4011 10.808 24.479C10.564 24.3998 10.3111 24.35 10.0547 24.3308C9.56374 24.3031 9.21156 24.4438 9.06503 24.7277C8.78739 25.2603 9.38894 26.0642 10.4661 26.6018C10.9998 26.832 11.5795 26.9427 12.1627 26.9258C12.3221 26.9258 12.4661 26.9183 12.5843 26.9108C12.7034 26.9035 12.815 26.8513 12.8954 26.765C13.0393 26.8957 13.1859 27.0238 13.335 27.1444C12.8721 27.0931 12.4035 27.1289 11.9545 27.2499C11.4841 27.3956 11.2064 27.6468 11.1704 27.9659C11.1036 28.5587 11.9596 29.1014 13.1576 29.232C13.245 29.2395 13.3298 29.2446 13.4172 29.2446C14.0545 29.2156 14.679 29.06 15.2527 28.7873C15.3333 28.7513 15.4018 28.6938 15.4506 28.6215C15.5946 28.707 15.7386 28.7873 15.8851 28.8652C15.3676 28.9291 14.8694 29.0976 14.4224 29.3601C14.011 29.6239 13.8157 29.9404 13.8697 30.2544C13.9236 30.5685 14.2149 30.8147 14.6949 30.9227C15.17 31.0188 15.6596 31.0247 16.137 30.9403C16.9082 30.8121 17.6537 30.2695 18.0265 29.9555C18.062 29.9255 18.0931 29.8908 18.119 29.8525L19.9674 30.5132C19.9956 30.5232 20.1643 30.6041 20.2964 30.3625C20.3098 30.3318 20.3165 30.2987 20.316 30.2653C20.3155 30.232 20.3079 30.1991 20.2936 30.1688C20.2793 30.1385 20.2587 30.1114 20.233 30.0894C20.2074 30.0674 20.1773 30.0509 20.1447 30.0409ZM8.04446 17.0756C8.03633 17.0692 8.02774 17.0633 8.01875 17.058C7.52452 16.7423 7.11538 16.3149 6.82595 15.812C6.41978 14.9579 6.4532 14.252 6.65628 14.1615C6.67399 14.1536 6.69343 14.1502 6.71284 14.1515C6.8723 14.1765 7.01877 14.2524 7.12929 14.3675C7.42944 14.6467 7.66976 14.9815 7.83623 15.3523C8.02672 15.8282 8.10322 16.3403 8.05989 16.8495C8.05731 16.8495 8.05731 16.8521 8.05989 16.8546C8.05731 16.935 8.0496 17.0078 8.04446 17.0756ZM7.37094 19.6679C7.10654 19.3558 6.90819 18.9954 6.78739 18.6078C6.70513 18.3114 6.74883 18.1506 6.81053 18.1029C6.84472 18.0808 6.88532 18.0702 6.92621 18.0727C7.06538 18.083 7.20011 18.1252 7.31952 18.1958C7.67743 18.3998 7.99096 18.6704 8.2424 18.9922C8.36581 19.5248 8.52118 20.0499 8.7077 20.5648C8.19659 20.3719 7.73879 20.0647 7.37094 19.6679ZM8.57917 18.0903C8.57145 18.0526 8.56374 18.0174 8.5586 17.9798C8.52044 17.7743 8.50407 17.5655 8.50976 17.3567C8.51158 17.2488 8.52276 17.1413 8.54318 17.0352C8.55089 16.995 8.56117 16.9523 8.57145 16.9121C8.6463 16.557 8.78841 16.2188 8.99048 15.9148C9.16786 15.661 9.31953 15.5882 9.39922 15.6033C9.61516 15.646 9.82338 16.3217 9.63572 17.2462C9.47532 17.812 9.1762 18.3311 8.76426 18.7585C8.68836 18.5399 8.62654 18.3165 8.57917 18.0903ZM9.63315 20.0322C9.81824 19.1077 10.2707 18.5601 10.4892 18.6003C10.7077 18.6405 10.9134 19.3187 10.7283 20.2432C10.5668 20.8086 10.2678 21.3275 9.8568 21.7555C9.64061 21.2073 9.56386 20.616 9.63315 20.0325V20.0322ZM8.69742 23.1347C7.96708 22.5202 7.67942 21.8786 7.82081 21.7128C7.8486 21.6888 7.8813 21.6707 7.91675 21.6599C7.9522 21.6491 7.98959 21.6457 8.02647 21.65C8.54508 21.7208 9.02839 21.9472 9.4095 22.2982C9.43521 22.3183 9.48919 22.3685 9.48919 22.3685C9.87656 22.7704 10.1703 23.2495 10.3504 23.7728C10.3375 23.7705 9.2676 23.6145 8.69742 23.1347ZM11.4481 21.7229C11.5226 21.7179 11.6717 21.8008 11.8285 22.0671C12.0211 22.4261 12.139 22.8188 12.1756 23.2226C12.1946 23.808 12.0676 24.3892 11.8054 24.9158C11.8054 24.9184 11.1473 24.1391 11.0676 23.3407C10.9743 22.4029 11.227 21.748 11.4481 21.7229ZM10.7 26.1518C9.83881 25.7248 9.42261 25.1495 9.52261 24.956C9.58765 24.8304 9.99305 24.8304 10.0265 24.8329C10.4386 24.8726 10.8387 24.9913 11.2038 25.1821C11.3266 25.2436 11.4429 25.3169 11.5509 25.4007C11.8429 25.6437 12.1028 25.9214 12.3247 26.2272C12.3697 26.2975 12.4172 26.3578 12.4558 26.4156C11.8573 26.4675 11.2549 26.3768 10.7 26.1518ZM13.3015 25.3052C13.281 24.3657 13.6023 23.7326 13.826 23.7276H13.8285C14.0496 23.7276 14.3967 24.3456 14.4172 25.2826C14.3827 25.8691 14.2036 26.4388 13.8954 26.9432C13.7485 26.7082 13.6212 26.4621 13.5149 26.2071C13.3902 25.9211 13.318 25.6159 13.3015 25.3055V25.3052ZM13.2141 28.7318C12.2553 28.6288 11.6563 28.2344 11.682 28.0184C11.6897 27.943 11.8054 27.8224 12.1062 27.7295C12.3687 27.6572 12.6406 27.6225 12.9134 27.6265C13.0542 27.6266 13.1949 27.6341 13.335 27.6491C13.9256 27.7583 14.4804 28.0057 14.9519 28.3701C14.4106 28.6256 13.8142 28.7498 13.2134 28.7321L13.2141 28.7318ZM15.5895 27.1592C15.3812 26.2398 15.5699 25.5632 15.7874 25.5137C16.0172 25.4612 16.4913 26.038 16.6769 26.9256C16.7572 27.5067 16.6956 28.0981 16.4969 28.6514C16.4763 28.6288 16.1267 28.2269 15.9776 28.0033C15.7977 27.747 15.6662 27.4609 15.5895 27.1592ZM17.592 29.6563C17.1503 30.0367 16.6212 30.3073 16.0496 30.4451C15.6424 30.5205 15.2241 30.5171 14.8182 30.4351C14.5149 30.3597 14.3889 30.2467 14.3761 30.1713C14.3632 30.0959 14.4429 29.9477 14.7051 29.7794C15.061 29.5716 15.4547 29.4334 15.8645 29.3724C15.9784 29.3542 16.0936 29.3449 16.209 29.3448C16.5516 29.3523 16.8915 29.4056 17.2193 29.5031C17.2218 29.5031 17.2244 29.5031 17.2244 29.5056C17.3735 29.5458 17.5072 29.591 17.6203 29.6337C17.6114 29.6419 17.602 29.6493 17.592 29.6563Z" fill="black"/>
<path d="M21.7036 30.3625C21.8357 30.6041 22.0044 30.5232 22.0326 30.5132L23.881 29.8525C23.9069 29.8908 23.938 29.9255 23.9735 29.9555C24.3463 30.2695 25.0918 30.8121 25.863 30.9403C26.3404 31.0247 26.83 31.0188 27.3051 30.9227C27.7851 30.8147 28.0764 30.5685 28.1303 30.2544C28.1843 29.9404 27.989 29.6239 27.5776 29.3601C27.1306 29.0976 26.6324 28.9291 26.1149 28.8652C26.2614 28.7873 26.4054 28.707 26.5494 28.6215C26.5982 28.6938 26.6667 28.7513 26.7473 28.7873C27.321 29.06 27.9455 29.2156 28.5828 29.2446C28.6702 29.2446 28.755 29.2395 28.8424 29.232C30.0404 29.1014 30.8964 28.5587 30.8296 27.9659C30.7936 27.6468 30.5159 27.3956 30.0455 27.2499C29.5965 27.1289 29.1279 27.0931 28.665 27.1444C28.8141 27.0238 28.9607 26.8957 29.1046 26.765C29.185 26.8513 29.2966 26.9035 29.4157 26.9108C29.5339 26.9183 29.6779 26.9258 29.8373 26.9258C30.4205 26.9427 31.0002 26.832 31.5339 26.6018C32.6111 26.0642 33.2126 25.2603 32.935 24.7277C32.7884 24.4438 32.4363 24.3031 31.9453 24.3308C31.6889 24.35 31.436 24.3998 31.192 24.479C31.2537 24.4011 31.3103 24.3207 31.3643 24.2403C31.449 24.28 31.5436 24.2949 31.6368 24.283C32.1252 24.2077 33.0301 24.0117 33.6316 23.5193C34.5597 22.7657 34.9633 21.8487 34.5725 21.3915C34.2769 21.0449 33.6368 21.0876 32.9427 21.4543C32.9838 21.3564 33.0275 21.2584 33.0686 21.1554C33.1261 21.1508 33.1829 21.1407 33.2383 21.1252C33.701 20.9569 34.5468 20.5801 35.0327 19.9822C35.3419 19.6154 35.5727 19.1917 35.7113 18.7362C35.8347 18.2714 35.7653 17.9072 35.5082 17.7087C35.2512 17.5102 34.8733 17.5278 34.4388 17.7514C34.2628 17.8446 34.0973 17.9557 33.9453 18.083C33.9504 18.0554 33.9941 17.7439 34.0018 17.6132C34.0588 17.5961 34.114 17.5734 34.1663 17.5454C34.5751 17.2741 35.3077 16.7164 35.6393 16.023C36.1483 14.9554 36.1149 13.958 35.5622 13.7068C35.2666 13.5712 34.9016 13.6716 34.5314 13.9907C34.1778 14.3155 33.8938 14.7057 33.6959 15.1388C33.6067 15.3287 33.542 15.5287 33.5031 15.7341C33.48 15.6965 33.4568 15.6613 33.4337 15.6286C33.1535 15.2317 32.8219 15.0483 32.5031 15.1111C31.9041 15.2242 31.6265 16.1838 31.8579 17.3419C32.0095 18.0931 32.5854 18.8065 32.9144 19.1632C32.9427 19.1939 32.9757 19.2202 33.0121 19.2411C33.0532 19.269 33.0995 19.2886 33.1483 19.2989C33.0764 19.5777 32.9941 19.8491 32.899 20.1204C32.8935 20.0587 32.8841 19.9975 32.8707 19.937L32.8244 19.726C32.5802 18.7563 32.0532 18.0981 31.5288 18.0981C31.4891 18.0977 31.4495 18.1011 31.4105 18.1081C30.8116 18.2212 30.5365 19.1808 30.7679 20.3389C30.9195 21.0901 31.4954 21.8035 31.8244 22.1603C31.8538 22.1925 31.8886 22.2197 31.9273 22.2406C31.7501 22.4517 31.5967 22.6808 31.4697 22.924C31.4697 21.9819 31.1303 21.281 30.6059 21.2257C30.282 21.1906 29.971 21.4016 29.7242 21.8186C29.4968 22.238 29.357 22.6974 29.3129 23.1701C29.2306 23.9313 29.5622 24.7779 29.7679 25.215C29.7799 25.2407 29.7946 25.2651 29.8116 25.2879C29.755 25.3432 29.39 25.7552 29.2872 25.8933C29.2173 25.9682 29.1435 26.0395 29.0661 26.1069C29.1539 25.8523 29.2033 25.5865 29.2126 25.318C29.2383 24.1373 28.7962 23.2405 28.1869 23.2254C27.5725 23.2179 27.0944 24.0946 27.0686 25.2728C27.0532 26.0315 27.4517 26.8404 27.6959 27.2599C27.3514 27.5162 26.9967 27.7565 26.6316 27.9809C26.7591 27.7579 26.8542 27.5186 26.9144 27.27C27.174 26.1169 26.9221 25.1522 26.3257 25.0216C25.7293 24.891 25.0815 25.6647 24.8219 26.8153C24.6573 27.5363 24.8707 28.3753 25.0249 28.8451C24.8887 28.9104 24.6008 29.0335 24.6008 29.0335C24.39 29.124 23.8321 29.335 23.7704 29.3576L21.8553 30.0409C21.8227 30.0509 21.7926 30.0674 21.767 30.0894C21.7413 30.1114 21.7207 30.1385 21.7064 30.1688C21.6921 30.1991 21.6845 30.232 21.684 30.2653C21.6835 30.2987 21.6902 30.3318 21.7036 30.3625ZM33.9401 16.8546C33.9427 16.8521 33.9427 16.8495 33.9401 16.8495C33.8968 16.3403 33.9733 15.8282 34.1638 15.3523C34.3302 14.9815 34.5706 14.6467 34.8707 14.3675C34.9812 14.2524 35.1277 14.1765 35.2872 14.1515C35.3066 14.1502 35.326 14.1536 35.3437 14.1615C35.5468 14.252 35.5802 14.9579 35.174 15.812C34.8846 16.3149 34.4755 16.7423 33.9812 17.058C33.9723 17.0633 33.9637 17.0692 33.9555 17.0756C33.9504 17.0078 33.9427 16.9352 33.9401 16.8546ZM33.2923 20.565C33.4788 20.0502 33.6342 19.5251 33.7576 18.9924C34.009 18.6706 34.3226 18.4001 34.6805 18.1961C34.7999 18.1255 34.9346 18.0833 35.0738 18.073C35.1147 18.0705 35.1553 18.0811 35.1895 18.1031C35.2512 18.1508 35.2949 18.3116 35.2126 18.6081C35.0918 18.9957 34.8935 19.356 34.6291 19.6682C34.2612 20.065 33.8034 20.3721 33.2923 20.565ZM33.2357 18.7588C32.8238 18.3314 32.5247 17.8123 32.3643 17.2465C32.1766 16.322 32.3848 15.6462 32.6008 15.6035C32.6805 15.5884 32.8321 15.6613 33.0095 15.915C33.2116 16.219 33.3537 16.5573 33.4285 16.9123C33.4388 16.9525 33.4491 16.9952 33.4568 17.0354C33.4772 17.1415 33.4884 17.2491 33.4902 17.357C33.4959 17.5658 33.4796 17.7745 33.4414 17.98C33.4363 18.0177 33.4285 18.0529 33.4208 18.0905C33.3735 18.3168 33.3116 18.54 33.2357 18.7588ZM32.1432 21.7558C31.7322 21.3277 31.4332 20.8089 31.2717 20.2435C31.0866 19.319 31.2923 18.6432 31.5108 18.6005C31.7293 18.5578 32.1818 19.108 32.3668 20.0325C32.4362 20.6161 32.3594 21.2075 32.1432 21.7558ZM31.6496 23.7731C31.8297 23.2497 32.1234 22.7707 32.5108 22.3688C32.5108 22.3688 32.5648 22.3185 32.5905 22.2984C32.9716 21.9475 33.4549 21.721 33.9735 21.6503C34.0104 21.646 34.0478 21.6493 34.0833 21.6601C34.1187 21.671 34.1514 21.689 34.1792 21.7131C34.3206 21.8789 34.0329 22.5205 33.3026 23.135C32.7324 23.6145 31.6625 23.7705 31.6496 23.7731ZM30.9324 23.341C30.8527 24.1393 30.1946 24.9186 30.1946 24.9161C29.9324 24.3894 29.8054 23.8083 29.8244 23.2229C29.861 22.8191 29.9789 22.4264 30.1715 22.0673C30.3283 21.801 30.4774 21.7181 30.5519 21.7231C30.773 21.7483 31.026 22.4029 30.9324 23.341ZM29.5442 26.4159C29.5828 26.3581 29.6303 26.2978 29.6753 26.2274C29.8972 25.9216 30.1571 25.644 30.4491 25.4009C30.5571 25.3171 30.6734 25.2439 30.7962 25.1824C31.1613 24.9915 31.5614 24.8729 31.9735 24.8332C32.007 24.8307 32.4123 24.8307 32.4774 24.9563C32.5774 25.1497 32.1612 25.725 31.3 26.1521C30.7451 26.3772 30.1427 26.4677 29.5442 26.4159ZM28.4851 26.2074C28.3788 26.4623 28.2515 26.7085 28.1046 26.9434C27.7964 26.439 27.6173 25.8694 27.5828 25.2829C27.6033 24.3458 27.9504 23.7278 28.1715 23.7278H28.174C28.3977 23.7329 28.719 24.3659 28.6985 25.3055C28.6821 25.616 28.6098 25.9213 28.4851 26.2074ZM27.0481 28.3703C27.5196 28.0059 28.0744 27.7585 28.665 27.6493C28.8051 27.6344 28.9458 27.6268 29.0866 27.6267C29.3594 27.6227 29.6313 27.6574 29.8938 27.7297C30.1946 27.8227 30.3103 27.9433 30.318 28.0186C30.3437 28.2347 29.7447 28.6291 28.7859 28.7321C28.1853 28.7497 27.5892 28.6256 27.0481 28.3703ZM26.0224 28.0035C25.8733 28.2271 25.5237 28.6291 25.5031 28.6517C25.3044 28.0984 25.2428 27.5069 25.3231 26.9258C25.5087 26.0383 25.9828 25.4615 26.2126 25.514C26.4301 25.5642 26.6188 26.24 26.4105 27.1595C26.3338 27.4612 26.2024 27.7471 26.0224 28.0035ZM24.3797 29.6339C24.4928 29.5912 24.6265 29.546 24.7756 29.5058C24.7756 29.5033 24.7782 29.5033 24.7807 29.5033C25.1085 29.4058 25.4484 29.3526 25.791 29.345C25.9064 29.3452 26.0216 29.3544 26.1355 29.3727C26.5453 29.4337 26.939 29.5719 27.2949 29.7796C27.5571 29.948 27.6368 30.0962 27.6239 30.1715C27.6111 30.2469 27.4851 30.36 27.1818 30.4353C26.7759 30.5173 26.3576 30.5208 25.9504 30.4454C25.3788 30.3076 24.8497 30.037 24.408 29.6566C24.398 29.6496 24.3886 29.6421 24.3797 29.6339ZM20.1447 30.0409L18.2296 29.3576C18.1679 29.335 17.61 29.124 17.3992 29.0335C17.3992 29.0335 17.1113 28.9104 16.9751 28.8451C17.1293 28.3753 17.3427 27.5363 17.1781 26.8153C16.9185 25.6647 16.2707 24.8935 15.6743 25.0216C15.0779 25.1497 14.826 26.1169 15.0856 27.27C15.1458 27.5186 15.2409 27.7579 15.3684 27.9809C15.0033 27.7574 14.6486 27.517 14.3041 27.2599C14.5483 26.8404 14.9468 26.0315 14.9314 25.2728C14.9057 24.0946 14.4275 23.2179 13.8131 23.2254C13.2038 23.2405 12.7617 24.1373 12.7874 25.318C12.7967 25.5865 12.8461 25.8523 12.9339 26.1069C12.8565 26.0395 12.7827 25.9682 12.7128 25.8933C12.61 25.7552 12.245 25.3432 12.1884 25.2879C12.2054 25.2651 12.2201 25.2407 12.2321 25.215C12.4378 24.7779 12.7694 23.9313 12.6871 23.1701C12.643 22.6974 12.5032 22.238 12.2758 21.8186C12.029 21.4016 11.718 21.1906 11.3941 21.2257C10.8697 21.281 10.5303 21.9819 10.5303 22.924C10.4033 22.6808 10.2499 22.4517 10.0727 22.2406C10.1114 22.2197 10.1462 22.1925 10.1756 22.1603C10.5046 21.8035 11.0805 21.0901 11.2321 20.3389C11.4635 19.1808 11.1884 18.2212 10.5894 18.1081C10.5505 18.1011 10.5109 18.0977 10.4712 18.0981C9.94678 18.0981 9.41978 18.7563 9.17557 19.726L9.12929 19.937C9.11592 19.9975 9.10647 20.0587 9.10102 20.1204C9.0059 19.8491 8.92364 19.5777 8.85166 19.2989C8.90053 19.2886 8.94683 19.269 8.98791 19.2411C9.02434 19.2202 9.05728 19.1939 9.08559 19.1632C9.41464 18.8065 9.99048 18.0931 10.1421 17.3419C10.3735 16.1838 10.0959 15.2242 9.4969 15.1111C9.17814 15.0483 8.84652 15.2317 8.56631 15.6286C8.54318 15.6621 8.52004 15.6973 8.4969 15.7341C8.45804 15.5287 8.39328 15.3287 8.3041 15.1388C8.10624 14.7057 7.82224 14.3155 7.46862 13.9907C7.09844 13.6716 6.73341 13.5712 6.43778 13.7068C5.88508 13.958 5.85166 14.9554 6.36065 16.023C6.69227 16.7164 7.42492 17.2741 7.83366 17.5454C7.88603 17.5734 7.94115 17.5961 7.99819 17.6132C8.0059 17.7439 8.0496 18.0554 8.05474 18.083C7.9027 17.9557 7.73724 17.8446 7.56117 17.7514C7.12672 17.5278 6.74626 17.5127 6.49176 17.7087C6.23726 17.9046 6.16528 18.2714 6.28868 18.7362C6.42732 19.1917 6.65809 19.6154 6.96734 19.9822C7.4532 20.5801 8.29896 20.9569 8.76168 21.1252C8.8171 21.1407 8.87392 21.1508 8.93135 21.1554C8.97248 21.2584 9.01618 21.3564 9.05732 21.4543C8.36323 21.0876 7.72312 21.0449 7.42749 21.3915C7.03675 21.8487 7.44035 22.7657 8.36837 23.5193C8.96991 24.0117 9.8748 24.2077 10.3632 24.283C10.4564 24.2949 10.551 24.28 10.6357 24.2403C10.6897 24.3207 10.7463 24.4011 10.808 24.479C10.564 24.3998 10.3111 24.35 10.0547 24.3308C9.56374 24.3031 9.21156 24.4438 9.06503 24.7277C8.78739 25.2603 9.38894 26.0642 10.4661 26.6018C10.9998 26.832 11.5795 26.9427 12.1627 26.9258C12.3221 26.9258 12.4661 26.9183 12.5843 26.9108C12.7034 26.9035 12.815 26.8513 12.8954 26.765C13.0393 26.8957 13.1859 27.0238 13.335 27.1444C12.8721 27.0931 12.4035 27.1289 11.9545 27.2499C11.4841 27.3956 11.2064 27.6468 11.1704 27.9659C11.1036 28.5587 11.9596 29.1014 13.1576 29.232C13.245 29.2395 13.3298 29.2446 13.4172 29.2446C14.0545 29.2156 14.679 29.06 15.2527 28.7873C15.3333 28.7513 15.4018 28.6938 15.4506 28.6215C15.5946 28.707 15.7386 28.7873 15.8851 28.8652C15.3676 28.9291 14.8694 29.0976 14.4224 29.3601C14.011 29.6239 13.8157 29.9404 13.8697 30.2544C13.9236 30.5685 14.2149 30.8147 14.6949 30.9227C15.17 31.0188 15.6596 31.0247 16.137 30.9403C16.9082 30.8121 17.6537 30.2695 18.0265 29.9555C18.062 29.9255 18.0931 29.8908 18.119 29.8525L19.9674 30.5132C19.9956 30.5232 20.1643 30.6041 20.2964 30.3625C20.3098 30.3318 20.3165 30.2987 20.316 30.2653C20.3155 30.232 20.3079 30.1991 20.2936 30.1688C20.2793 30.1385 20.2587 30.1114 20.233 30.0894C20.2074 30.0674 20.1773 30.0509 20.1447 30.0409ZM8.04446 17.0756C8.03633 17.0692 8.02774 17.0633 8.01875 17.058C7.52452 16.7423 7.11538 16.3149 6.82595 15.812C6.41978 14.9579 6.4532 14.252 6.65628 14.1615C6.67399 14.1536 6.69343 14.1502 6.71284 14.1515C6.8723 14.1765 7.01877 14.2524 7.12929 14.3675C7.42944 14.6467 7.66976 14.9815 7.83623 15.3523C8.02672 15.8282 8.10322 16.3403 8.05989 16.8495C8.05731 16.8495 8.05731 16.8521 8.05989 16.8546C8.05731 16.935 8.0496 17.0078 8.04446 17.0756ZM7.37094 19.6679C7.10654 19.3558 6.90819 18.9954 6.78739 18.6078C6.70513 18.3114 6.74883 18.1506 6.81053 18.1029C6.84472 18.0808 6.88532 18.0702 6.92621 18.0727C7.06538 18.083 7.20011 18.1252 7.31952 18.1958C7.67743 18.3998 7.99096 18.6704 8.2424 18.9922C8.36581 19.5248 8.52118 20.0499 8.7077 20.5648C8.19659 20.3719 7.73879 20.0647 7.37094 19.6679ZM8.57917 18.0903C8.57145 18.0526 8.56374 18.0174 8.5586 17.9798C8.52044 17.7743 8.50407 17.5655 8.50976 17.3567C8.51158 17.2488 8.52276 17.1413 8.54318 17.0352C8.55089 16.995 8.56117 16.9523 8.57145 16.9121C8.6463 16.557 8.78841 16.2188 8.99048 15.9148C9.16786 15.661 9.31953 15.5882 9.39922 15.6033C9.61516 15.646 9.82338 16.3217 9.63572 17.2462C9.47532 17.812 9.1762 18.3311 8.76426 18.7585C8.68836 18.5399 8.62654 18.3165 8.57917 18.0903ZM9.63315 20.0322C9.81824 19.1077 10.2707 18.5601 10.4892 18.6003C10.7077 18.6405 10.9134 19.3187 10.7283 20.2432C10.5668 20.8086 10.2678 21.3275 9.8568 21.7555C9.64061 21.2073 9.56386 20.616 9.63315 20.0325V20.0322ZM8.69742 23.1347C7.96708 22.5202 7.67942 21.8786 7.82081 21.7128C7.8486 21.6888 7.8813 21.6707 7.91675 21.6599C7.9522 21.6491 7.98959 21.6457 8.02647 21.65C8.54508 21.7208 9.02839 21.9472 9.4095 22.2982C9.43521 22.3183 9.48919 22.3685 9.48919 22.3685C9.87656 22.7704 10.1703 23.2495 10.3504 23.7728C10.3375 23.7705 9.2676 23.6145 8.69742 23.1347ZM11.4481 21.7229C11.5226 21.7179 11.6717 21.8008 11.8285 22.0671C12.0211 22.4261 12.139 22.8188 12.1756 23.2226C12.1946 23.808 12.0676 24.3892 11.8054 24.9158C11.8054 24.9184 11.1473 24.1391 11.0676 23.3407C10.9743 22.4029 11.227 21.748 11.4481 21.7229ZM10.7 26.1518C9.83881 25.7248 9.42261 25.1495 9.52261 24.956C9.58765 24.8304 9.99305 24.8304 10.0265 24.8329C10.4386 24.8726 10.8387 24.9913 11.2038 25.1821C11.3266 25.2436 11.4429 25.3169 11.5509 25.4007C11.8429 25.6437 12.1028 25.9214 12.3247 26.2272C12.3697 26.2975 12.4172 26.3578 12.4558 26.4156C11.8573 26.4675 11.2549 26.3768 10.7 26.1518ZM13.3015 25.3052C13.281 24.3657 13.6023 23.7326 13.826 23.7276H13.8285C14.0496 23.7276 14.3967 24.3456 14.4172 25.2826C14.3827 25.8691 14.2036 26.4388 13.8954 26.9432C13.7485 26.7082 13.6212 26.4621 13.5149 26.2071C13.3902 25.9211 13.318 25.6159 13.3015 25.3055V25.3052ZM13.2141 28.7318C12.2553 28.6288 11.6563 28.2344 11.682 28.0184C11.6897 27.943 11.8054 27.8224 12.1062 27.7295C12.3687 27.6572 12.6406 27.6225 12.9134 27.6265C13.0542 27.6266 13.1949 27.6341 13.335 27.6491C13.9256 27.7583 14.4804 28.0057 14.9519 28.3701C14.4106 28.6256 13.8142 28.7498 13.2134 28.7321L13.2141 28.7318ZM15.5895 27.1592C15.3812 26.2398 15.5699 25.5632 15.7874 25.5137C16.0172 25.4612 16.4913 26.038 16.6769 26.9256C16.7572 27.5067 16.6956 28.0981 16.4969 28.6514C16.4763 28.6288 16.1267 28.2269 15.9776 28.0033C15.7977 27.747 15.6662 27.4609 15.5895 27.1592ZM17.592 29.6563C17.1503 30.0367 16.6212 30.3073 16.0496 30.4451C15.6424 30.5205 15.2241 30.5171 14.8182 30.4351C14.5149 30.3597 14.3889 30.2467 14.3761 30.1713C14.3632 30.0959 14.4429 29.9477 14.7051 29.7794C15.061 29.5716 15.4547 29.4334 15.8645 29.3724C15.9784 29.3542 16.0936 29.3449 16.209 29.3448C16.5516 29.3523 16.8915 29.4056 17.2193 29.5031C17.2218 29.5031 17.2244 29.5031 17.2244 29.5056C17.3735 29.5458 17.5072 29.591 17.6203 29.6337C17.6114 29.6419 17.602 29.6493 17.592 29.6563Z" stroke="black" stroke-width="1.88125" mask="url(#path-2-inside-1_608_373)"/>
<path d="M21.7036 30.3625C21.8357 30.6041 22.0044 30.5232 22.0326 30.5132L23.881 29.8525C23.9069 29.8908 23.938 29.9255 23.9735 29.9555C24.3463 30.2695 25.0918 30.8121 25.863 30.9403C26.3404 31.0247 26.83 31.0188 27.3051 30.9227C27.7851 30.8147 28.0764 30.5685 28.1303 30.2544C28.1843 29.9404 27.989 29.6239 27.5776 29.3601C27.1306 29.0976 26.6324 28.9291 26.1149 28.8652C26.2614 28.7873 26.4054 28.707 26.5494 28.6215C26.5982 28.6938 26.6667 28.7513 26.7473 28.7873C27.321 29.06 27.9455 29.2156 28.5828 29.2446C28.6702 29.2446 28.755 29.2395 28.8424 29.232C30.0404 29.1014 30.8964 28.5587 30.8296 27.9659C30.7936 27.6468 30.5159 27.3956 30.0455 27.2499C29.5965 27.1289 29.1279 27.0931 28.665 27.1444C28.8141 27.0238 28.9607 26.8957 29.1046 26.765C29.185 26.8513 29.2966 26.9035 29.4157 26.9108C29.5339 26.9183 29.6779 26.9258 29.8373 26.9258C30.4205 26.9427 31.0002 26.832 31.5339 26.6018C32.6111 26.0642 33.2126 25.2603 32.935 24.7277C32.7884 24.4438 32.4363 24.3031 31.9453 24.3308C31.6889 24.35 31.436 24.3998 31.192 24.479C31.2537 24.4011 31.3103 24.3207 31.3643 24.2403C31.449 24.28 31.5436 24.2949 31.6368 24.283C32.1252 24.2077 33.0301 24.0117 33.6316 23.5193C34.5597 22.7657 34.9633 21.8487 34.5725 21.3915C34.2769 21.0449 33.6368 21.0876 32.9427 21.4543C32.9838 21.3564 33.0275 21.2584 33.0686 21.1554C33.1261 21.1508 33.1829 21.1407 33.2383 21.1252C33.701 20.9569 34.5468 20.5801 35.0327 19.9822C35.3419 19.6154 35.5727 19.1917 35.7113 18.7362C35.8347 18.2714 35.7653 17.9072 35.5082 17.7087C35.2512 17.5102 34.8733 17.5278 34.4388 17.7514C34.2628 17.8446 34.0973 17.9557 33.9453 18.083C33.9504 18.0554 33.9941 17.7439 34.0018 17.6132C34.0588 17.5961 34.114 17.5734 34.1663 17.5454C34.5751 17.2741 35.3077 16.7164 35.6393 16.023C36.1483 14.9554 36.1149 13.958 35.5622 13.7068C35.2666 13.5712 34.9016 13.6716 34.5314 13.9907C34.1778 14.3155 33.8938 14.7057 33.6959 15.1388C33.6067 15.3287 33.542 15.5287 33.5031 15.7341C33.48 15.6965 33.4568 15.6613 33.4337 15.6286C33.1535 15.2317 32.8219 15.0483 32.5031 15.1111C31.9041 15.2242 31.6265 16.1838 31.8579 17.3419C32.0095 18.0931 32.5854 18.8065 32.9144 19.1632C32.9427 19.1939 32.9757 19.2202 33.0121 19.2411C33.0532 19.269 33.0995 19.2886 33.1483 19.2989C33.0764 19.5777 32.9941 19.8491 32.899 20.1204C32.8935 20.0587 32.8841 19.9975 32.8707 19.937L32.8244 19.726C32.5802 18.7563 32.0532 18.0981 31.5288 18.0981C31.4891 18.0977 31.4495 18.1011 31.4105 18.1081C30.8116 18.2212 30.5365 19.1808 30.7679 20.3389C30.9195 21.0901 31.4954 21.8035 31.8244 22.1603C31.8538 22.1925 31.8886 22.2197 31.9273 22.2406C31.7501 22.4517 31.5967 22.6808 31.4697 22.924C31.4697 21.9819 31.1303 21.281 30.6059 21.2257C30.282 21.1906 29.971 21.4016 29.7242 21.8186C29.4968 22.238 29.357 22.6974 29.3129 23.1701C29.2306 23.9313 29.5622 24.7779 29.7679 25.215C29.7799 25.2407 29.7946 25.2651 29.8116 25.2879C29.755 25.3432 29.39 25.7552 29.2872 25.8933C29.2173 25.9682 29.1435 26.0395 29.0661 26.1069C29.1539 25.8523 29.2033 25.5865 29.2126 25.318C29.2383 24.1373 28.7962 23.2405 28.1869 23.2254C27.5725 23.2179 27.0944 24.0946 27.0686 25.2728C27.0532 26.0315 27.4517 26.8404 27.6959 27.2599C27.3514 27.5162 26.9967 27.7565 26.6316 27.9809C26.7591 27.7579 26.8542 27.5186 26.9144 27.27C27.174 26.1169 26.9221 25.1522 26.3257 25.0216C25.7293 24.891 25.0815 25.6647 24.8219 26.8153C24.6573 27.5363 24.8707 28.3753 25.0249 28.8451C24.8887 28.9104 24.6008 29.0335 24.6008 29.0335C24.39 29.124 23.8321 29.335 23.7704 29.3576L21.8553 30.0409C21.8227 30.0509 21.7926 30.0674 21.767 30.0894C21.7413 30.1114 21.7207 30.1385 21.7064 30.1688C21.6921 30.1991 21.6845 30.232 21.684 30.2653C21.6835 30.2987 21.6902 30.3318 21.7036 30.3625ZM33.9401 16.8546C33.9427 16.8521 33.9427 16.8495 33.9401 16.8495C33.8968 16.3403 33.9733 15.8282 34.1638 15.3523C34.3302 14.9815 34.5706 14.6467 34.8707 14.3675C34.9812 14.2524 35.1277 14.1765 35.2872 14.1515C35.3066 14.1502 35.326 14.1536 35.3437 14.1615C35.5468 14.252 35.5802 14.9579 35.174 15.812C34.8846 16.3149 34.4755 16.7423 33.9812 17.058C33.9723 17.0633 33.9637 17.0692 33.9555 17.0756C33.9504 17.0078 33.9427 16.9352 33.9401 16.8546ZM33.2923 20.565C33.4788 20.0502 33.6342 19.5251 33.7576 18.9924C34.009 18.6706 34.3226 18.4001 34.6805 18.1961C34.7999 18.1255 34.9346 18.0833 35.0738 18.073C35.1147 18.0705 35.1553 18.0811 35.1895 18.1031C35.2512 18.1508 35.2949 18.3116 35.2126 18.6081C35.0918 18.9957 34.8935 19.356 34.6291 19.6682C34.2612 20.065 33.8034 20.3721 33.2923 20.565ZM33.2357 18.7588C32.8238 18.3314 32.5247 17.8123 32.3643 17.2465C32.1766 16.322 32.3848 15.6462 32.6008 15.6035C32.6805 15.5884 32.8321 15.6613 33.0095 15.915C33.2116 16.219 33.3537 16.5573 33.4285 16.9123C33.4388 16.9525 33.4491 16.9952 33.4568 17.0354C33.4772 17.1415 33.4884 17.2491 33.4902 17.357C33.4959 17.5658 33.4796 17.7745 33.4414 17.98C33.4363 18.0177 33.4285 18.0529 33.4208 18.0905C33.3735 18.3168 33.3116 18.54 33.2357 18.7588ZM32.1432 21.7558C31.7322 21.3277 31.4332 20.8089 31.2717 20.2435C31.0866 19.319 31.2923 18.6432 31.5108 18.6005C31.7293 18.5578 32.1818 19.108 32.3668 20.0325C32.4362 20.6161 32.3594 21.2075 32.1432 21.7558ZM31.6496 23.7731C31.8297 23.2497 32.1234 22.7707 32.5108 22.3688C32.5108 22.3688 32.5648 22.3185 32.5905 22.2984C32.9716 21.9475 33.4549 21.721 33.9735 21.6503C34.0104 21.646 34.0478 21.6493 34.0833 21.6601C34.1187 21.671 34.1514 21.689 34.1792 21.7131C34.3206 21.8789 34.0329 22.5205 33.3026 23.135C32.7324 23.6145 31.6625 23.7705 31.6496 23.7731ZM30.9324 23.341C30.8527 24.1393 30.1946 24.9186 30.1946 24.9161C29.9324 24.3894 29.8054 23.8083 29.8244 23.2229C29.861 22.8191 29.9789 22.4264 30.1715 22.0673C30.3283 21.801 30.4774 21.7181 30.5519 21.7231C30.773 21.7483 31.026 22.4029 30.9324 23.341ZM29.5442 26.4159C29.5828 26.3581 29.6303 26.2978 29.6753 26.2274C29.8972 25.9216 30.1571 25.644 30.4491 25.4009C30.5571 25.3171 30.6734 25.2439 30.7962 25.1824C31.1613 24.9915 31.5614 24.8729 31.9735 24.8332C32.007 24.8307 32.4123 24.8307 32.4774 24.9563C32.5774 25.1497 32.1612 25.725 31.3 26.1521C30.7451 26.3772 30.1427 26.4677 29.5442 26.4159ZM28.4851 26.2074C28.3788 26.4623 28.2515 26.7085 28.1046 26.9434C27.7964 26.439 27.6173 25.8694 27.5828 25.2829C27.6033 24.3458 27.9504 23.7278 28.1715 23.7278H28.174C28.3977 23.7329 28.719 24.3659 28.6985 25.3055C28.6821 25.616 28.6098 25.9213 28.4851 26.2074ZM27.0481 28.3703C27.5196 28.0059 28.0744 27.7585 28.665 27.6493C28.8051 27.6344 28.9458 27.6268 29.0866 27.6267C29.3594 27.6227 29.6313 27.6574 29.8938 27.7297C30.1946 27.8227 30.3103 27.9433 30.318 28.0186C30.3437 28.2347 29.7447 28.6291 28.7859 28.7321C28.1853 28.7497 27.5892 28.6256 27.0481 28.3703ZM26.0224 28.0035C25.8733 28.2271 25.5237 28.6291 25.5031 28.6517C25.3044 28.0984 25.2428 27.5069 25.3231 26.9258C25.5087 26.0383 25.9828 25.4615 26.2126 25.514C26.4301 25.5642 26.6188 26.24 26.4105 27.1595C26.3338 27.4612 26.2024 27.7471 26.0224 28.0035ZM24.3797 29.6339C24.4928 29.5912 24.6265 29.546 24.7756 29.5058C24.7756 29.5033 24.7782 29.5033 24.7807 29.5033C25.1085 29.4058 25.4484 29.3526 25.791 29.345C25.9064 29.3452 26.0216 29.3544 26.1355 29.3727C26.5453 29.4337 26.939 29.5719 27.2949 29.7796C27.5571 29.948 27.6368 30.0962 27.6239 30.1715C27.6111 30.2469 27.4851 30.36 27.1818 30.4353C26.7759 30.5173 26.3576 30.5208 25.9504 30.4454C25.3788 30.3076 24.8497 30.037 24.408 29.6566C24.398 29.6496 24.3886 29.6421 24.3797 29.6339ZM20.1447 30.0409L18.2296 29.3576C18.1679 29.335 17.61 29.124 17.3992 29.0335C17.3992 29.0335 17.1113 28.9104 16.9751 28.8451C17.1293 28.3753 17.3427 27.5363 17.1781 26.8153C16.9185 25.6647 16.2707 24.8935 15.6743 25.0216C15.0779 25.1497 14.826 26.1169 15.0856 27.27C15.1458 27.5186 15.2409 27.7579 15.3684 27.9809C15.0033 27.7574 14.6486 27.517 14.3041 27.2599C14.5483 26.8404 14.9468 26.0315 14.9314 25.2728C14.9057 24.0946 14.4275 23.2179 13.8131 23.2254C13.2038 23.2405 12.7617 24.1373 12.7874 25.318C12.7967 25.5865 12.8461 25.8523 12.9339 26.1069C12.8565 26.0395 12.7827 25.9682 12.7128 25.8933C12.61 25.7552 12.245 25.3432 12.1884 25.2879C12.2054 25.2651 12.2201 25.2407 12.2321 25.215C12.4378 24.7779 12.7694 23.9313 12.6871 23.1701C12.643 22.6974 12.5032 22.238 12.2758 21.8186C12.029 21.4016 11.718 21.1906 11.3941 21.2257C10.8697 21.281 10.5303 21.9819 10.5303 22.924C10.4033 22.6808 10.2499 22.4517 10.0727 22.2406C10.1114 22.2197 10.1462 22.1925 10.1756 22.1603C10.5046 21.8035 11.0805 21.0901 11.2321 20.3389C11.4635 19.1808 11.1884 18.2212 10.5894 18.1081C10.5505 18.1011 10.5109 18.0977 10.4712 18.0981C9.94678 18.0981 9.41978 18.7563 9.17557 19.726L9.12929 19.937C9.11592 19.9975 9.10647 20.0587 9.10102 20.1204C9.0059 19.8491 8.92364 19.5777 8.85166 19.2989C8.90053 19.2886 8.94683 19.269 8.98791 19.2411C9.02434 19.2202 9.05728 19.1939 9.08559 19.1632C9.41464 18.8065 9.99048 18.0931 10.1421 17.3419C10.3735 16.1838 10.0959 15.2242 9.4969 15.1111C9.17814 15.0483 8.84652 15.2317 8.56631 15.6286C8.54318 15.6621 8.52004 15.6973 8.4969 15.7341C8.45804 15.5287 8.39328 15.3287 8.3041 15.1388C8.10624 14.7057 7.82224 14.3155 7.46862 13.9907C7.09844 13.6716 6.73341 13.5712 6.43778 13.7068C5.88508 13.958 5.85166 14.9554 6.36065 16.023C6.69227 16.7164 7.42492 17.2741 7.83366 17.5454C7.88603 17.5734 7.94115 17.5961 7.99819 17.6132C8.0059 17.7439 8.0496 18.0554 8.05474 18.083C7.9027 17.9557 7.73724 17.8446 7.56117 17.7514C7.12672 17.5278 6.74626 17.5127 6.49176 17.7087C6.23726 17.9046 6.16528 18.2714 6.28868 18.7362C6.42732 19.1917 6.65809 19.6154 6.96734 19.9822C7.4532 20.5801 8.29896 20.9569 8.76168 21.1252C8.8171 21.1407 8.87392 21.1508 8.93135 21.1554C8.97248 21.2584 9.01618 21.3564 9.05732 21.4543C8.36323 21.0876 7.72312 21.0449 7.42749 21.3915C7.03675 21.8487 7.44035 22.7657 8.36837 23.5193C8.96991 24.0117 9.8748 24.2077 10.3632 24.283C10.4564 24.2949 10.551 24.28 10.6357 24.2403C10.6897 24.3207 10.7463 24.4011 10.808 24.479C10.564 24.3998 10.3111 24.35 10.0547 24.3308C9.56374 24.3031 9.21156 24.4438 9.06503 24.7277C8.78739 25.2603 9.38894 26.0642 10.4661 26.6018C10.9998 26.832 11.5795 26.9427 12.1627 26.9258C12.3221 26.9258 12.4661 26.9183 12.5843 26.9108C12.7034 26.9035 12.815 26.8513 12.8954 26.765C13.0393 26.8957 13.1859 27.0238 13.335 27.1444C12.8721 27.0931 12.4035 27.1289 11.9545 27.2499C11.4841 27.3956 11.2064 27.6468 11.1704 27.9659C11.1036 28.5587 11.9596 29.1014 13.1576 29.232C13.245 29.2395 13.3298 29.2446 13.4172 29.2446C14.0545 29.2156 14.679 29.06 15.2527 28.7873C15.3333 28.7513 15.4018 28.6938 15.4506 28.6215C15.5946 28.707 15.7386 28.7873 15.8851 28.8652C15.3676 28.9291 14.8694 29.0976 14.4224 29.3601C14.011 29.6239 13.8157 29.9404 13.8697 30.2544C13.9236 30.5685 14.2149 30.8147 14.6949 30.9227C15.17 31.0188 15.6596 31.0247 16.137 30.9403C16.9082 30.8121 17.6537 30.2695 18.0265 29.9555C18.062 29.9255 18.0931 29.8908 18.119 29.8525L19.9674 30.5132C19.9956 30.5232 20.1643 30.6041 20.2964 30.3625C20.3098 30.3318 20.3165 30.2987 20.316 30.2653C20.3155 30.232 20.3079 30.1991 20.2936 30.1688C20.2793 30.1385 20.2587 30.1114 20.233 30.0894C20.2074 30.0674 20.1773 30.0509 20.1447 30.0409ZM8.04446 17.0756C8.03633 17.0692 8.02774 17.0633 8.01875 17.058C7.52452 16.7423 7.11538 16.3149 6.82595 15.812C6.41978 14.9579 6.4532 14.252 6.65628 14.1615C6.67399 14.1536 6.69343 14.1502 6.71284 14.1515C6.8723 14.1765 7.01877 14.2524 7.12929 14.3675C7.42944 14.6467 7.66976 14.9815 7.83623 15.3523C8.02672 15.8282 8.10322 16.3403 8.05989 16.8495C8.05731 16.8495 8.05731 16.8521 8.05989 16.8546C8.05731 16.935 8.0496 17.0078 8.04446 17.0756ZM7.37094 19.6679C7.10654 19.3558 6.90819 18.9954 6.78739 18.6078C6.70513 18.3114 6.74883 18.1506 6.81053 18.1029C6.84472 18.0808 6.88532 18.0702 6.92621 18.0727C7.06538 18.083 7.20011 18.1252 7.31952 18.1958C7.67743 18.3998 7.99096 18.6704 8.2424 18.9922C8.36581 19.5248 8.52118 20.0499 8.7077 20.5648C8.19659 20.3719 7.73879 20.0647 7.37094 19.6679ZM8.57917 18.0903C8.57145 18.0526 8.56374 18.0174 8.5586 17.9798C8.52044 17.7743 8.50407 17.5655 8.50976 17.3567C8.51158 17.2488 8.52276 17.1413 8.54318 17.0352C8.55089 16.995 8.56117 16.9523 8.57145 16.9121C8.6463 16.557 8.78841 16.2188 8.99048 15.9148C9.16786 15.661 9.31953 15.5882 9.39922 15.6033C9.61516 15.646 9.82338 16.3217 9.63572 17.2462C9.47532 17.812 9.1762 18.3311 8.76426 18.7585C8.68836 18.5399 8.62654 18.3165 8.57917 18.0903ZM9.63315 20.0322C9.81824 19.1077 10.2707 18.5601 10.4892 18.6003C10.7077 18.6405 10.9134 19.3187 10.7283 20.2432C10.5668 20.8086 10.2678 21.3275 9.8568 21.7555C9.64061 21.2073 9.56386 20.616 9.63315 20.0325V20.0322ZM8.69742 23.1347C7.96708 22.5202 7.67942 21.8786 7.82081 21.7128C7.8486 21.6888 7.8813 21.6707 7.91675 21.6599C7.9522 21.6491 7.98959 21.6457 8.02647 21.65C8.54508 21.7208 9.02839 21.9472 9.4095 22.2982C9.43521 22.3183 9.48919 22.3685 9.48919 22.3685C9.87656 22.7704 10.1703 23.2495 10.3504 23.7728C10.3375 23.7705 9.2676 23.6145 8.69742 23.1347ZM11.4481 21.7229C11.5226 21.7179 11.6717 21.8008 11.8285 22.0671C12.0211 22.4261 12.139 22.8188 12.1756 23.2226C12.1946 23.808 12.0676 24.3892 11.8054 24.9158C11.8054 24.9184 11.1473 24.1391 11.0676 23.3407C10.9743 22.4029 11.227 21.748 11.4481 21.7229ZM10.7 26.1518C9.83881 25.7248 9.42261 25.1495 9.52261 24.956C9.58765 24.8304 9.99305 24.8304 10.0265 24.8329C10.4386 24.8726 10.8387 24.9913 11.2038 25.1821C11.3266 25.2436 11.4429 25.3169 11.5509 25.4007C11.8429 25.6437 12.1028 25.9214 12.3247 26.2272C12.3697 26.2975 12.4172 26.3578 12.4558 26.4156C11.8573 26.4675 11.2549 26.3768 10.7 26.1518ZM13.3015 25.3052C13.281 24.3657 13.6023 23.7326 13.826 23.7276H13.8285C14.0496 23.7276 14.3967 24.3456 14.4172 25.2826C14.3827 25.8691 14.2036 26.4388 13.8954 26.9432C13.7485 26.7082 13.6212 26.4621 13.5149 26.2071C13.3902 25.9211 13.318 25.6159 13.3015 25.3055V25.3052ZM13.2141 28.7318C12.2553 28.6288 11.6563 28.2344 11.682 28.0184C11.6897 27.943 11.8054 27.8224 12.1062 27.7295C12.3687 27.6572 12.6406 27.6225 12.9134 27.6265C13.0542 27.6266 13.1949 27.6341 13.335 27.6491C13.9256 27.7583 14.4804 28.0057 14.9519 28.3701C14.4106 28.6256 13.8142 28.7498 13.2134 28.7321L13.2141 28.7318ZM15.5895 27.1592C15.3812 26.2398 15.5699 25.5632 15.7874 25.5137C16.0172 25.4612 16.4913 26.038 16.6769 26.9256C16.7572 27.5067 16.6956 28.0981 16.4969 28.6514C16.4763 28.6288 16.1267 28.2269 15.9776 28.0033C15.7977 27.747 15.6662 27.4609 15.5895 27.1592ZM17.592 29.6563C17.1503 30.0367 16.6212 30.3073 16.0496 30.4451C15.6424 30.5205 15.2241 30.5171 14.8182 30.4351C14.5149 30.3597 14.3889 30.2467 14.3761 30.1713C14.3632 30.0959 14.4429 29.9477 14.7051 29.7794C15.061 29.5716 15.4547 29.4334 15.8645 29.3724C15.9784 29.3542 16.0936 29.3449 16.209 29.3448C16.5516 29.3523 16.8915 29.4056 17.2193 29.5031C17.2218 29.5031 17.2244 29.5031 17.2244 29.5056C17.3735 29.5458 17.5072 29.591 17.6203 29.6337C17.6114 29.6419 17.602 29.6493 17.592 29.6563Z" stroke="url(#paint0_linear_608_373)" stroke-width="1.88125" mask="url(#path-2-inside-1_608_373)"/>
<path d="M21.9665 15.2726L21.9665 15.2726L21.9656 15.2751C21.874 15.5286 21.7094 15.8258 21.4632 16.168C21.2168 16.5104 20.8769 16.9214 20.4411 17.4019L16.6987 21.3909C16.4878 21.6156 16.3705 21.9122 16.3705 22.2203C16.3705 22.8897 16.9132 23.4324 17.5826 23.4324H24.0656C24.6337 23.4324 25.0941 22.9719 25.0941 22.4039C25.0941 21.8359 24.6337 21.3754 24.0656 21.3754H19.7158L22.0097 18.906C22.3845 18.5286 22.7287 18.156 23.0422 17.7883L23.0433 17.787C23.3596 17.4105 23.6341 17.0352 23.8662 16.6611C24.1059 16.2783 24.2918 15.8926 24.4223 15.5042C24.5541 15.112 24.6206 14.7148 24.6206 14.3137C24.6206 13.6003 24.46 12.9698 24.1297 12.4314C23.8046 11.8922 23.3306 11.4796 22.718 11.1921C22.1039 10.9038 21.3687 10.7648 20.5209 10.7648C19.6163 10.7648 18.8281 10.9445 18.1659 11.315C17.5101 11.6764 17.004 12.1695 16.6544 12.7936C16.4784 13.105 16.3469 13.4334 16.26 13.7783C16.0772 14.504 16.7094 15.0612 17.3689 15.0612H17.4069C18.1031 15.0612 18.5832 14.4848 18.7904 13.9267C18.8105 13.8727 18.8325 13.8203 18.8565 13.7692L18.8565 13.7692L18.8571 13.7678C18.9963 13.4666 19.1998 13.2351 19.4697 13.0673C19.7342 12.9028 20.0719 12.8135 20.4955 12.8135C20.8559 12.8135 21.1464 12.8912 21.3782 13.0346L21.3782 13.0346L21.3811 13.0363C21.6176 13.1778 21.7947 13.3717 21.9158 13.6227L21.9158 13.6227L21.9183 13.6275C22.045 13.8753 22.1123 14.1707 22.1123 14.5203C22.1123 14.7587 22.0651 15.009 21.9665 15.2726Z" stroke="black" stroke-width="0.470313"/>
<path d="M21.9665 15.2726L21.9665 15.2726L21.9656 15.2751C21.874 15.5286 21.7094 15.8258 21.4632 16.168C21.2168 16.5104 20.8769 16.9214 20.4411 17.4019L16.6987 21.3909C16.4878 21.6156 16.3705 21.9122 16.3705 22.2203C16.3705 22.8897 16.9132 23.4324 17.5826 23.4324H24.0656C24.6337 23.4324 25.0941 22.9719 25.0941 22.4039C25.0941 21.8359 24.6337 21.3754 24.0656 21.3754H19.7158L22.0097 18.906C22.3845 18.5286 22.7287 18.156 23.0422 17.7883L23.0433 17.787C23.3596 17.4105 23.6341 17.0352 23.8662 16.6611C24.1059 16.2783 24.2918 15.8926 24.4223 15.5042C24.5541 15.112 24.6206 14.7148 24.6206 14.3137C24.6206 13.6003 24.46 12.9698 24.1297 12.4314C23.8046 11.8922 23.3306 11.4796 22.718 11.1921C22.1039 10.9038 21.3687 10.7648 20.5209 10.7648C19.6163 10.7648 18.8281 10.9445 18.1659 11.315C17.5101 11.6764 17.004 12.1695 16.6544 12.7936C16.4784 13.105 16.3469 13.4334 16.26 13.7783C16.0772 14.504 16.7094 15.0612 17.3689 15.0612H17.4069C18.1031 15.0612 18.5832 14.4848 18.7904 13.9267C18.8105 13.8727 18.8325 13.8203 18.8565 13.7692L18.8565 13.7692L18.8571 13.7678C18.9963 13.4666 19.1998 13.2351 19.4697 13.0673C19.7342 12.9028 20.0719 12.8135 20.4955 12.8135C20.8559 12.8135 21.1464 12.8912 21.3782 13.0346L21.3782 13.0346L21.3811 13.0363C21.6176 13.1778 21.7947 13.3717 21.9158 13.6227L21.9158 13.6227L21.9183 13.6275C22.045 13.8753 22.1123 14.1707 22.1123 14.5203C22.1123 14.7587 22.0651 15.009 21.9665 15.2726Z" stroke="url(#paint1_linear_608_373)" stroke-width="0.470313"/>
<defs>
<linearGradient id="paint0_linear_608_373" x1="21" y1="13.6479" x2="21" y2="30.9995" gradientUnits="userSpaceOnUse">
<stop stop-color="#D9D9DB"/>
<stop offset="1" stop-color="#9D9D9F"/>
</linearGradient>
<linearGradient id="paint1_linear_608_373" x1="20.6139" y1="11" x2="20.6139" y2="23.1972" gradientUnits="userSpaceOnUse">
<stop stop-color="#D9D9DB"/>
<stop offset="1" stop-color="#9D9D9F"/>
</linearGradient>
</defs>
</svg>
