<svg width="46" height="46" viewBox="0 0 46 46" fill="none" xmlns="http://www.w3.org/2000/svg">
<path d="M16.9664 30.9998H28.037C29.12 30.9965 29.9966 30.1365 30 29.074V28.224C30 26.1455 29.1099 24.1633 27.5429 22.7654C26.8897 22.1843 25.9183 22.1047 25.1771 22.5728C24.4021 23.0609 23.4781 23.3199 22.5 23.3199C21.5219 23.3199 20.5979 23.0609 19.8229 22.5728C19.0817 22.1047 18.1103 22.1843 17.4571 22.7654C15.8901 24.1633 14.9966 26.1455 15 28.224V29.074C15.0034 30.1398 15.8834 30.9998 16.9664 30.9998ZM26.2331 22.9314C26.5512 22.9314 26.8558 23.0476 27.0894 23.2568C28.5142 24.5285 29.3265 26.3347 29.3265 28.224V29.074C29.3231 29.7713 28.7511 30.3324 28.0404 30.3357H16.9698C16.259 30.3357 15.6837 29.7713 15.6837 29.074V28.224C15.6837 26.3347 16.4959 24.5318 17.9208 23.2568C18.3473 22.8783 18.9802 22.8252 19.4641 23.1306C20.3475 23.6884 21.4001 23.984 22.5068 23.984C23.6135 23.984 24.6661 23.6884 25.5494 23.1306C25.7491 23.0011 25.9894 22.9314 26.2331 22.9314Z" fill="#F9BA0B"/>
<path d="M22.5 22.5664C24.9097 22.5631 26.8626 20.6473 26.866 18.2832C26.866 15.9225 24.9097 14 22.5 14C20.0902 14.0033 18.1374 15.9191 18.134 18.2832C18.1374 20.6439 20.0936 22.5664 22.5 22.5664ZM22.5 14.6674C24.5374 14.6674 26.1891 16.2877 26.1891 18.2865C26.1891 20.2854 24.5374 21.9057 22.5 21.9057C20.4625 21.9057 18.8109 20.2854 18.8109 18.2865C18.8143 16.2877 20.4625 14.6674 22.5 14.6674Z" fill="#F9BA0B"/>
</svg>
