<svg width="46" height="48" viewBox="0 0 46 48" fill="none" xmlns="http://www.w3.org/2000/svg">
<path d="M24.25 1.14434C23.4765 0.697756 22.5235 0.697756 21.75 1.14434L3.83142 11.4896C3.05791 11.9362 2.58142 12.7615 2.58142 13.6547V34.3453C2.58142 35.2385 3.05791 36.0638 3.83142 36.5104L21.75 46.8557C22.5235 47.3022 23.4765 47.3022 24.25 46.8557L42.1686 36.5104C42.9421 36.0638 43.4186 35.2385 43.4186 34.3453V13.6547C43.4186 12.7615 42.9421 11.9362 42.1686 11.4896L24.25 1.14434Z" stroke="url(#paint0_linear_594_2166)" stroke-linejoin="round"/>
<path fill-rule="evenodd" clip-rule="evenodd" d="M21.3205 4.26795C21.9393 3.91068 22.7017 3.91068 23.3205 4.26795L38.641 13.1132C39.2598 13.4705 39.641 14.1308 39.641 14.8453V32.5359C39.641 33.2504 39.2598 33.9107 38.641 34.2679L23.3205 43.1132C22.7017 43.4705 21.9393 43.4705 21.3205 43.1132L6 34.2679C5.3812 33.9107 5 33.2504 5 32.5359V14.8453C5 14.1308 5.3812 13.4705 6 13.1132L21.3205 4.26795ZM16.9663 32H28.037C29.12 31.9966 29.9966 31.1367 30 30.0742V29.2242C30 27.1457 29.1098 25.1634 27.5428 23.7656C26.8896 23.1845 25.9183 23.1049 25.1771 23.573C24.402 24.0611 23.4781 24.3201 22.5 24.3201C21.5218 24.3201 20.5979 24.0611 19.8228 23.573C19.0816 23.1049 18.1103 23.1845 17.4571 23.7656C15.8901 25.1634 14.9966 27.1457 15 29.2242V30.0742C15.0033 31.14 15.8833 32 16.9663 32ZM26.233 23.9316C26.5512 23.9316 26.8558 24.0478 27.0893 24.257C28.5142 25.5287 29.3264 27.3349 29.3264 29.2242V30.0742C29.3231 30.7715 28.7511 31.3326 28.0403 31.3359H16.9697C16.259 31.3359 15.6836 30.7715 15.6836 30.0742V29.2242C15.6836 27.3349 16.4959 25.532 17.9208 24.257C18.3472 23.8785 18.9801 23.8254 19.4641 24.1308C20.3474 24.6886 21.4 24.9842 22.5067 24.9842C23.6134 24.9842 24.666 24.6886 25.5494 24.1308C25.7491 24.0013 25.9893 23.9316 26.233 23.9316ZM26.8658 19.2833C26.8624 21.6473 24.9096 23.5631 22.4999 23.5665C20.0935 23.5665 18.1373 21.644 18.1339 19.2833C18.1373 16.9192 20.0901 15.0034 22.4999 15C24.9096 15 26.8658 16.9225 26.8658 19.2833ZM26.1889 19.2866C26.1889 17.2877 24.5373 15.6674 22.4999 15.6674C20.4624 15.6674 18.8142 17.2877 18.8108 19.2866C18.8108 21.2854 20.4624 22.9057 22.4999 22.9057C24.5373 22.9057 26.1889 21.2854 26.1889 19.2866Z" fill="#F9BA0B"/>
<defs>
<linearGradient id="paint0_linear_594_2166" x1="23" y1="1" x2="23" y2="47" gradientUnits="userSpaceOnUse">
<stop stop-color="#F9BA0B"/>
<stop offset="1" stop-color="#040612"/>
</linearGradient>
</defs>
</svg>
