<svg width="76" height="78" viewBox="0 0 76 78" fill="none" xmlns="http://www.w3.org/2000/svg">
<path d="M39.25 1.64434C38.4765 1.19776 37.5235 1.19776 36.75 1.64434L6.27405 19.2396C5.50055 19.6862 5.02405 20.5115 5.02405 21.4047V56.5953C5.02405 57.4885 5.50055 58.3138 6.27405 58.7604L36.75 76.3557C37.5235 76.8022 38.4765 76.8022 39.25 76.3557L69.726 58.7604C70.4995 58.3138 70.976 57.4885 70.976 56.5953V21.4047C70.976 20.5115 70.4995 19.6862 69.726 19.2396L39.25 1.64434Z" stroke="url(#paint0_linear_766_2416)" stroke-linejoin="round"/>
<path fill-rule="evenodd" clip-rule="evenodd" d="M39 6.96863C38.3812 6.61137 37.6188 6.61137 37 6.96863L10.76 22.1183C10.1412 22.4755 9.76001 23.1358 9.76001 23.8503V54.1496C9.76001 54.8641 10.1412 55.5244 10.76 55.8817L37 71.0313C37.6188 71.3886 38.3812 71.3886 39 71.0313L65.2399 55.8817C65.8587 55.5244 66.2399 54.8641 66.2399 54.1496V23.8503C66.2399 23.1358 65.8587 22.4755 65.2399 22.1183L39 6.96863ZM53.2714 27.0417L55.9265 34.3365C56.3205 34.3329 56.7059 34.4511 57.0301 34.6748C57.3543 34.8986 57.6014 35.2171 57.7377 35.5867L59.0452 39.1791C59.1784 39.5498 59.1938 39.9526 59.0893 40.3325C58.9848 40.7123 58.7655 41.0505 58.4614 41.3009L61.1165 48.5958C61.2899 49.0722 61.2669 49.598 61.0527 50.0574C60.8384 50.5169 60.4505 50.8724 59.9741 51.0458L30.6364 61.7238C29.6836 62.0695 28.6326 62.0231 27.714 61.5947C26.7953 61.1664 26.0842 60.3911 25.7366 59.4389L17.0198 35.4899C16.6766 34.5369 16.7241 33.4869 17.1522 32.5689C17.5803 31.651 18.354 30.9396 19.3047 30.59L21.6996 29.7183C21.7615 28.3291 22.1728 26.9779 22.8953 25.7897C23.6178 24.6015 24.6282 23.6147 25.8331 22.9204C27.038 22.2262 28.3986 21.847 29.7889 21.8178C31.1792 21.7887 32.5544 22.1106 33.7873 22.7537C35.1041 21.4322 36.8316 20.5986 38.6854 20.3901C40.5391 20.1817 42.4086 20.6107 43.986 21.6067L48.0436 20.1299C48.5199 19.9565 49.0457 19.9794 49.5051 20.1937C49.9646 20.4079 50.3201 20.7959 50.4935 21.2723L52.1907 25.9352C52.4389 26.0325 52.6636 26.1815 52.85 26.3723C53.0363 26.563 53.1799 26.7912 53.2714 27.0417ZM50.8215 25.8992L49.2961 21.7081C49.2383 21.5493 49.1198 21.42 48.9666 21.3486C48.8134 21.2772 48.6382 21.2695 48.4794 21.3273L45.2062 22.5187C46.1887 23.4168 46.9388 24.5398 47.392 25.7914C47.5347 26.1938 47.6462 26.6066 47.7255 27.0261L50.8215 25.8992ZM45.5212 24.8434C45.0137 24.0461 44.3467 23.3625 43.562 22.8357C42.2472 21.9352 40.6646 21.5101 39.0755 21.6307C37.4864 21.7513 35.9861 22.4104 34.8223 23.4991C33.6585 24.5878 32.9009 26.0409 32.6747 27.6185C32.4485 29.196 32.7672 30.8034 33.5781 32.1753L46.5107 27.4682C46.3656 26.5344 46.0287 25.6406 45.5212 24.8434ZM30.2729 23.0923C29.3554 23.0534 28.4393 23.1956 27.5768 23.5109C26.4477 23.9187 25.4426 24.6103 24.6584 25.5192C23.8741 26.4281 23.3371 27.5236 23.0991 28.7002C22.861 29.8768 22.9299 31.0949 23.2992 32.2372C23.6684 33.3795 24.3256 34.4074 25.2073 35.222L32.3633 32.6174C31.5888 31.2415 31.2295 29.6706 31.329 28.0947C31.4284 26.5189 31.9823 25.0056 32.9237 23.7379C32.0911 23.3507 31.1903 23.1313 30.2729 23.0923ZM18.3062 33.107C18.0208 33.7189 17.9889 34.4187 18.2173 35.054L18.2195 35.06C18.2434 35.1325 18.2715 35.2036 18.3037 35.2728C18.6027 35.8531 19.1056 36.3026 19.7157 36.5349C20.3258 36.7672 21.0003 36.766 21.6096 36.5315L23.8752 35.7069C22.6909 34.4214 21.9478 32.7916 21.754 31.0546L19.7405 31.7874C19.107 32.0209 18.5915 32.4952 18.3062 33.107ZM30.2006 60.5263L59.5382 49.8483C59.697 49.7905 59.8264 49.672 59.8978 49.5189C59.9692 49.3657 59.9768 49.1905 59.9191 49.0317L57.304 41.8469L54.3104 42.9365C53.3576 43.2833 52.3061 43.2374 51.3872 42.8089C50.4683 42.3804 49.7573 41.6044 49.4105 40.6517C49.0637 39.6989 49.1096 38.6474 49.5381 37.7285C49.9666 36.8096 50.7426 36.0986 51.6954 35.7518L54.689 34.6622L52.074 27.4775C52.0162 27.3187 51.8977 27.1894 51.7445 27.118C51.5914 27.0465 51.4161 27.0389 51.2573 27.0967L22.0454 37.7289C21.1162 38.0669 20.0954 38.0525 19.1761 37.6884L22.1398 45.8311L26.0854 44.395C26.2618 44.3306 26.422 44.2284 26.5546 44.0954C26.6872 43.9625 26.789 43.802 26.8529 43.6255L27.3993 42.1031C26.9228 41.7785 26.5695 41.3028 26.3964 40.7529C26.2233 40.2029 26.2405 39.6107 26.4452 39.0717C26.6499 38.5327 27.0301 38.0783 27.5246 37.7819C28.0191 37.4854 28.5991 37.3642 29.1709 37.4377C29.7428 37.5112 30.2732 37.7751 30.6767 38.187C31.0802 38.5988 31.3332 39.1346 31.3949 39.7078C31.4567 40.281 31.3235 40.8584 31.017 41.3467C30.7105 41.835 30.2484 42.2059 29.7053 42.3994C29.3514 42.525 28.9738 42.5697 28.6003 42.5304L28.0509 44.0593C27.9238 44.4113 27.721 44.7311 27.4566 44.9961C27.1923 45.261 26.873 45.4646 26.5213 45.5925L22.5757 47.0286L23.4473 49.4235L33.7107 45.6879C33.651 45.0705 33.8185 44.4525 34.1819 43.9497C34.5453 43.447 35.0795 43.094 35.6845 42.957C36.2895 42.82 36.9237 42.9083 37.4682 43.2054C38.0128 43.5025 38.4302 43.9881 38.6424 44.571C38.8546 45.1539 38.8468 45.7941 38.6207 46.3718C38.3946 46.9494 37.9655 47.4247 37.414 47.7086C36.8625 47.9925 36.2263 48.0656 35.6248 47.914C35.0233 47.7625 34.4977 47.3967 34.1465 46.8854L23.8832 50.6209L24.7548 53.0158L28.7005 51.5798C29.0523 51.4511 29.4282 51.4016 29.8013 51.4348C30.1745 51.468 30.5357 51.583 30.8594 51.7717L32.2614 52.589C32.7049 52.1405 33.2969 51.8693 33.9262 51.8265C34.5555 51.7836 35.1788 51.9721 35.679 52.3565C36.1791 52.7409 36.5217 53.2947 36.6423 53.9138C36.7629 54.533 36.6532 55.1749 36.3338 55.7188C36.0145 56.2628 35.5075 56.6715 34.9081 56.8679C34.3087 57.0644 33.6582 57.0353 33.0788 56.7859C32.4994 56.5366 32.031 56.0842 31.7616 55.5138C31.4923 54.9434 31.4405 54.2943 31.616 53.6884L30.2164 52.8723C30.0543 52.7785 29.8735 52.7214 29.6869 52.705C29.5003 52.6886 29.3123 52.7132 29.1363 52.7772L25.1907 54.2133L26.934 59.0031C27.1652 59.6383 27.6392 60.1556 28.2518 60.4413C28.8645 60.7269 29.5654 60.7575 30.2006 60.5263ZM34.3666 53.1362C34.1218 53.0763 33.8647 53.0903 33.6279 53.1765C33.3103 53.2921 33.0516 53.5291 32.9088 53.8354C32.766 54.1417 32.7507 54.4922 32.8663 54.8098C32.9525 55.0467 33.107 55.2526 33.3102 55.4016C33.5135 55.5507 33.7563 55.6361 34.0081 55.6471C34.2599 55.6581 34.5093 55.5942 34.7248 55.4634C34.9403 55.3327 35.1121 55.1409 35.2186 54.9125C35.3251 54.6841 35.3615 54.4292 35.3232 54.1801C35.2849 53.931 35.1735 53.6989 35.0032 53.5131C34.833 53.3273 34.6114 53.1961 34.3666 53.1362ZM35.0007 45.143C34.9408 45.3878 34.9549 45.6449 35.0411 45.8817C35.1567 46.1993 35.3937 46.458 35.7 46.6008C36.0063 46.7436 36.3568 46.759 36.6744 46.6434C36.9112 46.5572 37.1171 46.4027 37.2662 46.1994C37.4152 45.9962 37.5006 45.7533 37.5116 45.5015C37.5226 45.2497 37.4587 45.0003 37.3279 44.7848C37.1972 44.5694 37.0055 44.3975 36.7771 44.291C36.5486 44.1845 36.2938 44.1481 36.0447 44.1864C35.7956 44.2248 35.5634 44.3361 35.3776 44.5064C35.1918 44.6767 35.0606 44.8982 35.0007 45.143ZM27.5959 39.7016C27.536 39.9465 27.55 40.2035 27.6362 40.4404C27.7518 40.7579 27.9888 41.0166 28.2951 41.1594C28.6014 41.3023 28.9519 41.3176 29.2695 41.202C29.5063 41.1158 29.7123 40.9613 29.8613 40.758C30.0104 40.5548 30.0958 40.3119 30.1068 40.0601C30.1178 39.8083 30.0538 39.5589 29.9231 39.3435C29.7923 39.128 29.6006 38.9561 29.3722 38.8496C29.1438 38.7431 28.8889 38.7067 28.6398 38.7451C28.3907 38.7834 28.1586 38.8947 27.9728 39.065C27.7869 39.2353 27.6558 39.4568 27.5959 39.7016ZM57.8265 40.1021C57.8979 39.949 57.9055 39.7737 57.8477 39.6149L56.5402 36.0226C56.4824 35.8638 56.3639 35.7344 56.2108 35.663C56.0576 35.5916 55.8824 35.584 55.7236 35.6418L52.1312 36.9493C51.496 37.1805 50.9787 37.6545 50.6931 38.2671C50.4074 38.8797 50.3768 39.5807 50.608 40.2159C50.8391 40.851 51.3132 41.3683 51.9258 41.654C52.5384 41.9397 53.2394 41.9703 53.8745 41.7391L57.4669 40.4316C57.6257 40.3738 57.755 40.2553 57.8265 40.1021Z" fill="#F9BA0B"/>
<defs>
<linearGradient id="paint0_linear_766_2416" x1="38" y1="1.5" x2="38" y2="76.5" gradientUnits="userSpaceOnUse">
<stop stop-color="#F9BA0B"/>
<stop offset="1" stop-color="#040612"/>
</linearGradient>
</defs>
</svg>
