<svg width="76" height="78" viewBox="0 0 76 78" fill="none" xmlns="http://www.w3.org/2000/svg">
<path d="M39.25 1.64434C38.4765 1.19776 37.5235 1.19776 36.75 1.64434L6.27405 19.2396C5.50055 19.6862 5.02405 20.5115 5.02405 21.4047V56.5953C5.02405 57.4885 5.50055 58.3138 6.27405 58.7604L36.75 76.3557C37.5235 76.8022 38.4765 76.8022 39.25 76.3557L69.726 58.7604C70.4995 58.3138 70.976 57.4885 70.976 56.5953V21.4047C70.976 20.5115 70.4995 19.6862 69.726 19.2396L39.25 1.64434Z" stroke="url(#paint0_linear_833_1012)" stroke-linejoin="round"/>
<path fill-rule="evenodd" clip-rule="evenodd" d="M39 6.96863C38.3812 6.61137 37.6188 6.61137 37 6.96863L10.76 22.1183C10.1412 22.4755 9.76001 23.1358 9.76001 23.8503V54.1496C9.76001 54.8641 10.1412 55.5244 10.76 55.8817L37 71.0313C37.6188 71.3886 38.3812 71.3886 39 71.0313L65.2399 55.8817C65.8587 55.5244 66.2399 54.8641 66.2399 54.1496V23.8503C66.2399 23.1358 65.8587 22.4755 65.2399 22.1183L39 6.96863ZM53.2714 27.0416L55.9266 34.3365C56.3205 34.3328 56.7059 34.451 57.0301 34.6748C57.3543 34.8986 57.6014 35.2171 57.7377 35.5867L59.0452 39.179C59.1784 39.5498 59.1938 39.9526 59.0893 40.3324C58.9848 40.7122 58.7655 41.0505 58.4614 41.3009L61.1165 48.5958C61.2899 49.0722 61.267 49.5979 61.0527 50.0573C60.8385 50.5168 60.4505 50.8723 59.9741 51.0457L30.6365 61.7237C29.6837 62.0695 28.6326 62.023 27.714 61.5947C26.7954 61.1663 26.0842 60.391 25.7366 59.4389L17.0198 35.4898C16.6766 34.5369 16.7242 33.4868 17.1522 32.5689C17.5803 31.6509 18.3541 30.9395 19.3047 30.5899L21.6996 29.7182C21.7616 28.329 22.1728 26.9778 22.8953 25.7896C23.6178 24.6015 24.6282 23.6146 25.8332 22.9204C27.0381 22.2261 28.3986 21.8469 29.7889 21.8178C31.1792 21.7886 32.5544 22.1105 33.7874 22.7536C35.1041 21.4322 36.8316 20.5986 38.6854 20.3901C40.5392 20.1816 42.4087 20.6107 43.986 21.6067L48.0436 20.1298C48.52 19.9564 49.0457 19.9794 49.5052 20.1936C49.9646 20.4079 50.3201 20.7959 50.4935 21.2722L52.1907 25.9351C52.4389 26.0325 52.6637 26.1815 52.85 26.3722C53.0363 26.563 53.18 26.7911 53.2714 27.0416ZM50.8215 25.8992L49.2961 21.7081C49.2383 21.5493 49.1198 21.42 48.9666 21.3485C48.8135 21.2771 48.6382 21.2695 48.4794 21.3273L45.2062 22.5186C46.1887 23.4167 46.9388 24.5397 47.392 25.7913C47.5347 26.1937 47.6462 26.6065 47.7255 27.026L50.8215 25.8992ZM45.5212 24.8433C45.0138 24.046 44.3467 23.3625 43.5621 22.8357C42.2473 21.9351 40.6646 21.51 39.0755 21.6306C37.4865 21.7513 35.9861 22.4104 34.8223 23.4991C33.6585 24.5877 32.9009 26.0409 32.6747 27.6184C32.4485 29.1959 32.7672 30.8034 33.5782 32.1752L46.5107 27.4682C46.3656 26.5343 46.0287 25.6406 45.5212 24.8433ZM30.2729 23.0923C29.3554 23.0533 28.4393 23.1956 27.5768 23.5109C26.4477 23.9186 25.4427 24.6103 24.6584 25.5191C23.8742 26.428 23.3372 27.5235 23.0991 28.7001C22.861 29.8768 22.9299 31.0949 23.2992 32.2371C23.6685 33.3794 24.3256 34.4073 25.2074 35.222L32.3633 32.6174C31.5888 31.2414 31.2295 29.6705 31.329 28.0947C31.4284 26.5188 31.9824 25.0055 32.9238 23.7379C32.0911 23.3506 31.1903 23.1312 30.2729 23.0923ZM18.3062 33.107C18.0209 33.7188 17.9889 34.4186 18.2173 35.054L18.2195 35.0599C18.2434 35.1324 18.2715 35.2035 18.3037 35.2727C18.6027 35.8531 19.1056 36.3026 19.7157 36.5349C20.3259 36.7672 21.0003 36.766 21.6096 36.5314L23.8752 35.7068C22.6909 34.4214 21.9478 32.7915 21.754 31.0545L19.7405 31.7874C19.1071 32.0208 18.5915 32.4951 18.3062 33.107ZM30.2006 60.5263L59.5383 49.8483C59.6971 49.7905 59.8264 49.672 59.8978 49.5188C59.9692 49.3657 59.9769 49.1904 59.9191 49.0316L57.304 41.8469L54.3104 42.9365C53.3577 43.2833 52.3062 43.2373 51.3873 42.8089C50.4684 42.3804 49.7573 41.6044 49.4105 40.6516C49.0638 39.6989 49.1097 38.6474 49.5382 37.7285C49.9667 36.8096 50.7426 36.0985 51.6954 35.7518L54.689 34.6622L52.074 27.4774C52.0162 27.3186 51.8977 27.1893 51.7445 27.1179C51.5914 27.0465 51.4161 27.0388 51.2573 27.0966L22.0454 37.7289C21.1163 38.0669 20.0954 38.0525 19.1761 37.6884L22.1398 45.8311L26.0854 44.395C26.2618 44.3306 26.422 44.2283 26.5546 44.0954C26.6872 43.9624 26.789 43.802 26.8529 43.6254L27.3993 42.103C26.9228 41.7784 26.5695 41.3028 26.3964 40.7528C26.2233 40.2028 26.2405 39.6106 26.4452 39.0716C26.6499 38.5326 27.0302 38.0783 27.5247 37.7818C28.0192 37.4854 28.5991 37.3641 29.171 37.4376C29.7428 37.5111 30.2732 37.7751 30.6767 38.1869C31.0802 38.5988 31.3332 39.1345 31.3949 39.7077C31.4567 40.281 31.3236 40.8583 31.017 41.3466C30.7105 41.8349 30.2485 42.2058 29.7054 42.3994C29.3514 42.5249 28.9739 42.5696 28.6004 42.5303L28.051 44.0593C27.9239 44.4113 27.721 44.7311 27.4566 44.996C27.1923 45.2609 26.873 45.4645 26.5213 45.5924L22.5757 47.0285L23.4473 49.4234L33.7107 45.6878C33.651 45.0704 33.8186 44.4524 34.1819 43.9497C34.5453 43.4469 35.0796 43.0939 35.6845 42.9569C36.2895 42.8199 36.9237 42.9082 37.4683 43.2054C38.0128 43.5025 38.4303 43.988 38.6424 44.5709C38.8546 45.1538 38.8469 45.7941 38.6207 46.3717C38.3946 46.9493 37.9655 47.4246 37.414 47.7086C36.8625 47.9925 36.2263 48.0655 35.6248 47.9139C35.0233 47.7624 34.4977 47.3967 34.1466 46.8853L23.8832 50.6209L24.7549 53.0158L28.7005 51.5797C29.0523 51.451 29.4282 51.4016 29.8014 51.4347C30.1745 51.4679 30.5358 51.5829 30.8594 51.7716L32.2614 52.589C32.7049 52.1404 33.2969 51.8692 33.9262 51.8264C34.5556 51.7836 35.1789 51.9721 35.679 52.3565C36.1791 52.7408 36.5217 53.2946 36.6423 53.9138C36.7629 54.5329 36.6532 55.1748 36.3339 55.7188C36.0145 56.2628 35.5075 56.6714 34.9081 56.8679C34.3087 57.0644 33.6582 57.0352 33.0788 56.7858C32.4994 56.5365 32.031 56.0841 31.7616 55.5137C31.4923 54.9434 31.4405 54.2942 31.616 53.6884L30.2164 52.8722C30.0543 52.7784 29.8735 52.7213 29.6869 52.7049C29.5003 52.6885 29.3124 52.7131 29.1363 52.7771L25.1907 54.2132L26.934 59.003C27.1652 59.6382 27.6393 60.1555 28.2519 60.4412C28.8645 60.7269 29.5655 60.7575 30.2006 60.5263ZM34.3666 53.1361C34.1218 53.0762 33.8647 53.0903 33.6279 53.1765C33.3103 53.2921 33.0517 53.5291 32.9088 53.8354C32.766 54.1417 32.7507 54.4922 32.8663 54.8098C32.9525 55.0466 33.107 55.2525 33.3102 55.4016C33.5135 55.5506 33.7564 55.636 34.0082 55.647C34.26 55.658 34.5094 55.5941 34.7248 55.4633C34.9403 55.3326 35.1121 55.1409 35.2187 54.9125C35.3252 54.684 35.3616 54.4292 35.3232 54.1801C35.2849 53.931 35.1735 53.6988 35.0033 53.513C34.833 53.3272 34.6114 53.196 34.3666 53.1361ZM35.0007 45.143C34.9408 45.3878 34.9549 45.6448 35.0411 45.8817C35.1567 46.1993 35.3937 46.4579 35.7 46.6008C36.0063 46.7436 36.3568 46.7589 36.6744 46.6433C36.9112 46.5571 37.1172 46.4026 37.2662 46.1994C37.4152 45.9961 37.5006 45.7532 37.5116 45.5014C37.5226 45.2496 37.4587 45.0002 37.328 44.7848C37.1972 44.5693 37.0055 44.3974 36.7771 44.2909C36.5487 44.1844 36.2938 44.148 36.0447 44.1864C35.7956 44.2247 35.5634 44.3361 35.3776 44.5063C35.1918 44.6766 35.0607 44.8981 35.0007 45.143ZM27.5959 39.7016C27.536 39.9464 27.55 40.2035 27.6362 40.4403C27.7518 40.7579 27.9888 41.0165 28.2951 41.1594C28.6014 41.3022 28.9519 41.3175 29.2695 41.2019C29.5064 41.1157 29.7123 40.9612 29.8613 40.758C30.0104 40.5547 30.0958 40.3118 30.1068 40.0601C30.1178 39.8083 30.0539 39.5589 29.9231 39.3434C29.7924 39.1279 29.6007 38.9561 29.3722 38.8496C29.1438 38.743 28.8889 38.7067 28.6398 38.745C28.3907 38.7833 28.1586 38.8947 27.9728 39.065C27.787 39.2352 27.6558 39.4568 27.5959 39.7016ZM57.8265 40.1021C57.8979 39.9489 57.9055 39.7737 57.8477 39.6149L56.5402 36.0225C56.4824 35.8637 56.3639 35.7344 56.2108 35.663C56.0576 35.5915 55.8824 35.5839 55.7236 35.6417L52.1312 36.9492C51.4961 37.1804 50.9787 37.6544 50.6931 38.267C50.4074 38.8796 50.3768 39.5806 50.608 40.2158C50.8392 40.851 51.3132 41.3683 51.9258 41.6539C52.5384 41.9396 53.2394 41.9702 53.8746 41.739L57.4669 40.4315C57.6257 40.3737 57.7551 40.2552 57.8265 40.1021Z" fill="#CAC2AC"/>
<defs>
<linearGradient id="paint0_linear_833_1012" x1="38" y1="1.5" x2="38" y2="76.5" gradientUnits="userSpaceOnUse">
<stop stop-color="#F9BA0B"/>
<stop offset="1" stop-color="#040612"/>
</linearGradient>
</defs>
</svg>
